G04 #@! TF.GenerationSoftware,KiCad,Pcbnew,(5.0.1)-4*
G04 #@! TF.CreationDate,2019-11-10T23:47:17+01:00*
G04 #@! TF.ProjectId,rak4260,72616B343236302E6B696361645F7063,0.3*
G04 #@! TF.SameCoordinates,Original*
G04 #@! TF.FileFunction,Soldermask,Bot*
G04 #@! TF.FilePolarity,Negative*
%FSLAX46Y46*%
G04 Gerber Fmt 4.6, Leading zero omitted, Abs format (unit mm)*
G04 Created by KiCad (PCBNEW (5.0.1)-4) date 10/11/2019 23:47:17*
%MOMM*%
%LPD*%
G01*
G04 APERTURE LIST*
%ADD10C,0.100000*%
G04 APERTURE END LIST*
D10*
G36*
X111295000Y-90591000D02*
X110193000Y-90591000D01*
X110193000Y-87979000D01*
X111295000Y-87979000D01*
X111295000Y-90591000D01*
X111295000Y-90591000D01*
G37*
G36*
X116375000Y-90591000D02*
X115273000Y-90591000D01*
X115273000Y-87979000D01*
X116375000Y-87979000D01*
X116375000Y-90591000D01*
X116375000Y-90591000D01*
G37*
G36*
X121455000Y-90591000D02*
X120353000Y-90591000D01*
X120353000Y-87979000D01*
X121455000Y-87979000D01*
X121455000Y-90591000D01*
X121455000Y-90591000D01*
G37*
G36*
X127970734Y-87793232D02*
X128180202Y-87879996D01*
X128368723Y-88005962D01*
X128529038Y-88166277D01*
X128655004Y-88354798D01*
X128741768Y-88564266D01*
X128786000Y-88786635D01*
X128786000Y-89013365D01*
X128741768Y-89235734D01*
X128655004Y-89445202D01*
X128529038Y-89633723D01*
X128368723Y-89794038D01*
X128180202Y-89920004D01*
X127970734Y-90006768D01*
X127748365Y-90051000D01*
X127521635Y-90051000D01*
X127299266Y-90006768D01*
X127089798Y-89920004D01*
X126901277Y-89794038D01*
X126740962Y-89633723D01*
X126614996Y-89445202D01*
X126528232Y-89235734D01*
X126484000Y-89013365D01*
X126484000Y-88786635D01*
X126528232Y-88564266D01*
X126614996Y-88354798D01*
X126740962Y-88166277D01*
X126901277Y-88005962D01*
X127089798Y-87879996D01*
X127299266Y-87793232D01*
X127521635Y-87749000D01*
X127748365Y-87749000D01*
X127970734Y-87793232D01*
X127970734Y-87793232D01*
G37*
G36*
X104475734Y-87793232D02*
X104685202Y-87879996D01*
X104873723Y-88005962D01*
X105034038Y-88166277D01*
X105160004Y-88354798D01*
X105246768Y-88564266D01*
X105291000Y-88786635D01*
X105291000Y-89013365D01*
X105246768Y-89235734D01*
X105160004Y-89445202D01*
X105034038Y-89633723D01*
X104873723Y-89794038D01*
X104685202Y-89920004D01*
X104475734Y-90006768D01*
X104253365Y-90051000D01*
X104026635Y-90051000D01*
X103804266Y-90006768D01*
X103594798Y-89920004D01*
X103406277Y-89794038D01*
X103245962Y-89633723D01*
X103119996Y-89445202D01*
X103033232Y-89235734D01*
X102989000Y-89013365D01*
X102989000Y-88786635D01*
X103033232Y-88564266D01*
X103119996Y-88354798D01*
X103245962Y-88166277D01*
X103406277Y-88005962D01*
X103594798Y-87879996D01*
X103804266Y-87793232D01*
X104026635Y-87749000D01*
X104253365Y-87749000D01*
X104475734Y-87793232D01*
X104475734Y-87793232D01*
G37*
G36*
X118915000Y-87281000D02*
X117813000Y-87281000D01*
X117813000Y-84669000D01*
X118915000Y-84669000D01*
X118915000Y-87281000D01*
X118915000Y-87281000D01*
G37*
G36*
X113835000Y-87281000D02*
X112733000Y-87281000D01*
X112733000Y-84669000D01*
X113835000Y-84669000D01*
X113835000Y-87281000D01*
X113835000Y-87281000D01*
G37*
G36*
X103996443Y-82925519D02*
X104062627Y-82932037D01*
X104175853Y-82966384D01*
X104232467Y-82983557D01*
X104371087Y-83057652D01*
X104388991Y-83067222D01*
X104424729Y-83096552D01*
X104526186Y-83179814D01*
X104609448Y-83281271D01*
X104638778Y-83317009D01*
X104638779Y-83317011D01*
X104722443Y-83473533D01*
X104722443Y-83473534D01*
X104773963Y-83643373D01*
X104791359Y-83820000D01*
X104773963Y-83996627D01*
X104739616Y-84109853D01*
X104722443Y-84166467D01*
X104648348Y-84305087D01*
X104638778Y-84322991D01*
X104609448Y-84358729D01*
X104526186Y-84460186D01*
X104424729Y-84543448D01*
X104388991Y-84572778D01*
X104388989Y-84572779D01*
X104232467Y-84656443D01*
X104191071Y-84669000D01*
X104062627Y-84707963D01*
X103996443Y-84714481D01*
X103930260Y-84721000D01*
X103841740Y-84721000D01*
X103775557Y-84714481D01*
X103709373Y-84707963D01*
X103580929Y-84669000D01*
X103539533Y-84656443D01*
X103383011Y-84572779D01*
X103383009Y-84572778D01*
X103347271Y-84543448D01*
X103245814Y-84460186D01*
X103162552Y-84358729D01*
X103133222Y-84322991D01*
X103123652Y-84305087D01*
X103049557Y-84166467D01*
X103032384Y-84109853D01*
X102998037Y-83996627D01*
X102980641Y-83820000D01*
X102998037Y-83643373D01*
X103049557Y-83473534D01*
X103049557Y-83473533D01*
X103133221Y-83317011D01*
X103133222Y-83317009D01*
X103162552Y-83281271D01*
X103245814Y-83179814D01*
X103347271Y-83096552D01*
X103383009Y-83067222D01*
X103400913Y-83057652D01*
X103539533Y-82983557D01*
X103596147Y-82966384D01*
X103709373Y-82932037D01*
X103775557Y-82925519D01*
X103841740Y-82919000D01*
X103930260Y-82919000D01*
X103996443Y-82925519D01*
X103996443Y-82925519D01*
G37*
G36*
X104787000Y-82181000D02*
X102985000Y-82181000D01*
X102985000Y-80379000D01*
X104787000Y-80379000D01*
X104787000Y-82181000D01*
X104787000Y-82181000D01*
G37*
G36*
X127293466Y-76977565D02*
X127332137Y-76989296D01*
X127367779Y-77008348D01*
X127399017Y-77033983D01*
X127424652Y-77065221D01*
X127443704Y-77100863D01*
X127455435Y-77139534D01*
X127460000Y-77185888D01*
X127460000Y-78262112D01*
X127455435Y-78308466D01*
X127443704Y-78347137D01*
X127424652Y-78382779D01*
X127399017Y-78414017D01*
X127367779Y-78439652D01*
X127332137Y-78458704D01*
X127293466Y-78470435D01*
X127247112Y-78475000D01*
X126595888Y-78475000D01*
X126549534Y-78470435D01*
X126510863Y-78458704D01*
X126475221Y-78439652D01*
X126443983Y-78414017D01*
X126418348Y-78382779D01*
X126399296Y-78347137D01*
X126387565Y-78308466D01*
X126383000Y-78262112D01*
X126383000Y-77185888D01*
X126387565Y-77139534D01*
X126399296Y-77100863D01*
X126418348Y-77065221D01*
X126443983Y-77033983D01*
X126475221Y-77008348D01*
X126510863Y-76989296D01*
X126549534Y-76977565D01*
X126595888Y-76973000D01*
X127247112Y-76973000D01*
X127293466Y-76977565D01*
X127293466Y-76977565D01*
G37*
G36*
X125418466Y-76977565D02*
X125457137Y-76989296D01*
X125492779Y-77008348D01*
X125524017Y-77033983D01*
X125549652Y-77065221D01*
X125568704Y-77100863D01*
X125580435Y-77139534D01*
X125585000Y-77185888D01*
X125585000Y-78262112D01*
X125580435Y-78308466D01*
X125568704Y-78347137D01*
X125549652Y-78382779D01*
X125524017Y-78414017D01*
X125492779Y-78439652D01*
X125457137Y-78458704D01*
X125418466Y-78470435D01*
X125372112Y-78475000D01*
X124720888Y-78475000D01*
X124674534Y-78470435D01*
X124635863Y-78458704D01*
X124600221Y-78439652D01*
X124568983Y-78414017D01*
X124543348Y-78382779D01*
X124524296Y-78347137D01*
X124512565Y-78308466D01*
X124508000Y-78262112D01*
X124508000Y-77185888D01*
X124512565Y-77139534D01*
X124524296Y-77100863D01*
X124543348Y-77065221D01*
X124568983Y-77033983D01*
X124600221Y-77008348D01*
X124635863Y-76989296D01*
X124674534Y-76977565D01*
X124720888Y-76973000D01*
X125372112Y-76973000D01*
X125418466Y-76977565D01*
X125418466Y-76977565D01*
G37*
G36*
X103570355Y-77147140D02*
X103634118Y-77153420D01*
X103715927Y-77178237D01*
X103756833Y-77190645D01*
X103853378Y-77242250D01*
X103869926Y-77251095D01*
X103969053Y-77332447D01*
X104050405Y-77431574D01*
X104050406Y-77431576D01*
X104110855Y-77544667D01*
X104110855Y-77544668D01*
X104148080Y-77667382D01*
X104160649Y-77795000D01*
X104148080Y-77922618D01*
X104123263Y-78004427D01*
X104110855Y-78045333D01*
X104057319Y-78145491D01*
X104050405Y-78158426D01*
X103969053Y-78257553D01*
X103869926Y-78338905D01*
X103869924Y-78338906D01*
X103756833Y-78399355D01*
X103715927Y-78411763D01*
X103634118Y-78436580D01*
X103570355Y-78442860D01*
X103538474Y-78446000D01*
X102774526Y-78446000D01*
X102742645Y-78442860D01*
X102678882Y-78436580D01*
X102597073Y-78411763D01*
X102556167Y-78399355D01*
X102443076Y-78338906D01*
X102443074Y-78338905D01*
X102343947Y-78257553D01*
X102262595Y-78158426D01*
X102255681Y-78145491D01*
X102202145Y-78045333D01*
X102189737Y-78004427D01*
X102164920Y-77922618D01*
X102152351Y-77795000D01*
X102164920Y-77667382D01*
X102202145Y-77544668D01*
X102202145Y-77544667D01*
X102262594Y-77431576D01*
X102262595Y-77431574D01*
X102343947Y-77332447D01*
X102443074Y-77251095D01*
X102459622Y-77242250D01*
X102556167Y-77190645D01*
X102597073Y-77178237D01*
X102678882Y-77153420D01*
X102742645Y-77147140D01*
X102774526Y-77144000D01*
X103538474Y-77144000D01*
X103570355Y-77147140D01*
X103570355Y-77147140D01*
G37*
G36*
X106082849Y-76048820D02*
X106082852Y-76048821D01*
X106082851Y-76048821D01*
X106224074Y-76107317D01*
X106224075Y-76107318D01*
X106351174Y-76192243D01*
X106459257Y-76300326D01*
X106459259Y-76300329D01*
X106544183Y-76427426D01*
X106589427Y-76536657D01*
X106602680Y-76568651D01*
X106632500Y-76718569D01*
X106632500Y-76871431D01*
X106602680Y-77021349D01*
X106602679Y-77021351D01*
X106544183Y-77162574D01*
X106544182Y-77162575D01*
X106459257Y-77289674D01*
X106351174Y-77397757D01*
X106351171Y-77397759D01*
X106224074Y-77482683D01*
X106114843Y-77527927D01*
X106082849Y-77541180D01*
X105932931Y-77571000D01*
X105780069Y-77571000D01*
X105630151Y-77541180D01*
X105598157Y-77527927D01*
X105488926Y-77482683D01*
X105361829Y-77397759D01*
X105361826Y-77397757D01*
X105253743Y-77289674D01*
X105168818Y-77162575D01*
X105168817Y-77162574D01*
X105110321Y-77021351D01*
X105110320Y-77021349D01*
X105080500Y-76871431D01*
X105080500Y-76718569D01*
X105110320Y-76568651D01*
X105123573Y-76536657D01*
X105168817Y-76427426D01*
X105253741Y-76300329D01*
X105253743Y-76300326D01*
X105361826Y-76192243D01*
X105488925Y-76107318D01*
X105488926Y-76107317D01*
X105630149Y-76048821D01*
X105630148Y-76048821D01*
X105630151Y-76048820D01*
X105780069Y-76019000D01*
X105932931Y-76019000D01*
X106082849Y-76048820D01*
X106082849Y-76048820D01*
G37*
G36*
X125418466Y-74437565D02*
X125457137Y-74449296D01*
X125492779Y-74468348D01*
X125524017Y-74493983D01*
X125549652Y-74525221D01*
X125568704Y-74560863D01*
X125580435Y-74599534D01*
X125585000Y-74645888D01*
X125585000Y-75722112D01*
X125580435Y-75768466D01*
X125568704Y-75807137D01*
X125549652Y-75842779D01*
X125524017Y-75874017D01*
X125492779Y-75899652D01*
X125457137Y-75918704D01*
X125418466Y-75930435D01*
X125372112Y-75935000D01*
X124720888Y-75935000D01*
X124674534Y-75930435D01*
X124635863Y-75918704D01*
X124600221Y-75899652D01*
X124568983Y-75874017D01*
X124543348Y-75842779D01*
X124524296Y-75807137D01*
X124512565Y-75768466D01*
X124508000Y-75722112D01*
X124508000Y-74645888D01*
X124512565Y-74599534D01*
X124524296Y-74560863D01*
X124543348Y-74525221D01*
X124568983Y-74493983D01*
X124600221Y-74468348D01*
X124635863Y-74449296D01*
X124674534Y-74437565D01*
X124720888Y-74433000D01*
X125372112Y-74433000D01*
X125418466Y-74437565D01*
X125418466Y-74437565D01*
G37*
G36*
X127293466Y-74437565D02*
X127332137Y-74449296D01*
X127367779Y-74468348D01*
X127399017Y-74493983D01*
X127424652Y-74525221D01*
X127443704Y-74560863D01*
X127455435Y-74599534D01*
X127460000Y-74645888D01*
X127460000Y-75722112D01*
X127455435Y-75768466D01*
X127443704Y-75807137D01*
X127424652Y-75842779D01*
X127399017Y-75874017D01*
X127367779Y-75899652D01*
X127332137Y-75918704D01*
X127293466Y-75930435D01*
X127247112Y-75935000D01*
X126595888Y-75935000D01*
X126549534Y-75930435D01*
X126510863Y-75918704D01*
X126475221Y-75899652D01*
X126443983Y-75874017D01*
X126418348Y-75842779D01*
X126399296Y-75807137D01*
X126387565Y-75768466D01*
X126383000Y-75722112D01*
X126383000Y-74645888D01*
X126387565Y-74599534D01*
X126399296Y-74560863D01*
X126418348Y-74525221D01*
X126443983Y-74493983D01*
X126475221Y-74468348D01*
X126510863Y-74449296D01*
X126549534Y-74437565D01*
X126595888Y-74433000D01*
X127247112Y-74433000D01*
X127293466Y-74437565D01*
X127293466Y-74437565D01*
G37*
G36*
X106082849Y-71048820D02*
X106082852Y-71048821D01*
X106082851Y-71048821D01*
X106224074Y-71107317D01*
X106349456Y-71191095D01*
X106351174Y-71192243D01*
X106459257Y-71300326D01*
X106459259Y-71300329D01*
X106544183Y-71427426D01*
X106589427Y-71536657D01*
X106602680Y-71568651D01*
X106632500Y-71718569D01*
X106632500Y-71871431D01*
X106602680Y-72021349D01*
X106602679Y-72021351D01*
X106544183Y-72162574D01*
X106544182Y-72162575D01*
X106459257Y-72289674D01*
X106351174Y-72397757D01*
X106351171Y-72397759D01*
X106224074Y-72482683D01*
X106114843Y-72527927D01*
X106082849Y-72541180D01*
X105932931Y-72571000D01*
X105780069Y-72571000D01*
X105630151Y-72541180D01*
X105598157Y-72527927D01*
X105488926Y-72482683D01*
X105361829Y-72397759D01*
X105361826Y-72397757D01*
X105253743Y-72289674D01*
X105168818Y-72162575D01*
X105168817Y-72162574D01*
X105110321Y-72021351D01*
X105110320Y-72021349D01*
X105080500Y-71871431D01*
X105080500Y-71718569D01*
X105110320Y-71568651D01*
X105123573Y-71536657D01*
X105168817Y-71427426D01*
X105253741Y-71300329D01*
X105253743Y-71300326D01*
X105361826Y-71192243D01*
X105363544Y-71191095D01*
X105488926Y-71107317D01*
X105630149Y-71048821D01*
X105630148Y-71048821D01*
X105630151Y-71048820D01*
X105780069Y-71019000D01*
X105932931Y-71019000D01*
X106082849Y-71048820D01*
X106082849Y-71048820D01*
G37*
G36*
X109534000Y-71652000D02*
X108162000Y-71652000D01*
X108162000Y-70080000D01*
X109534000Y-70080000D01*
X109534000Y-71652000D01*
X109534000Y-71652000D01*
G37*
G36*
X113834000Y-71652000D02*
X112462000Y-71652000D01*
X112462000Y-70080000D01*
X113834000Y-70080000D01*
X113834000Y-71652000D01*
X113834000Y-71652000D01*
G37*
G36*
X103570355Y-70147140D02*
X103634118Y-70153420D01*
X103715927Y-70178237D01*
X103756833Y-70190645D01*
X103856991Y-70244181D01*
X103869926Y-70251095D01*
X103969053Y-70332447D01*
X104050405Y-70431574D01*
X104050406Y-70431576D01*
X104110855Y-70544667D01*
X104110855Y-70544668D01*
X104148080Y-70667382D01*
X104160649Y-70795000D01*
X104148080Y-70922618D01*
X104123263Y-71004427D01*
X104110855Y-71045333D01*
X104077723Y-71107318D01*
X104050405Y-71158426D01*
X103969053Y-71257553D01*
X103869926Y-71338905D01*
X103869924Y-71338906D01*
X103756833Y-71399355D01*
X103715927Y-71411763D01*
X103634118Y-71436580D01*
X103570355Y-71442860D01*
X103538474Y-71446000D01*
X102774526Y-71446000D01*
X102742645Y-71442860D01*
X102678882Y-71436580D01*
X102597073Y-71411763D01*
X102556167Y-71399355D01*
X102443076Y-71338906D01*
X102443074Y-71338905D01*
X102343947Y-71257553D01*
X102262595Y-71158426D01*
X102235277Y-71107318D01*
X102202145Y-71045333D01*
X102189737Y-71004427D01*
X102164920Y-70922618D01*
X102152351Y-70795000D01*
X102164920Y-70667382D01*
X102202145Y-70544668D01*
X102202145Y-70544667D01*
X102262594Y-70431576D01*
X102262595Y-70431574D01*
X102343947Y-70332447D01*
X102443074Y-70251095D01*
X102456009Y-70244181D01*
X102556167Y-70190645D01*
X102597073Y-70178237D01*
X102678882Y-70153420D01*
X102742645Y-70147140D01*
X102774526Y-70144000D01*
X103538474Y-70144000D01*
X103570355Y-70147140D01*
X103570355Y-70147140D01*
G37*
G36*
X127687565Y-67085389D02*
X127878834Y-67164615D01*
X128050976Y-67279637D01*
X128197363Y-67426024D01*
X128312385Y-67598166D01*
X128391611Y-67789435D01*
X128432000Y-67992484D01*
X128432000Y-68199516D01*
X128391611Y-68402565D01*
X128312385Y-68593834D01*
X128197363Y-68765976D01*
X128050976Y-68912363D01*
X127878834Y-69027385D01*
X127687565Y-69106611D01*
X127484516Y-69147000D01*
X127277484Y-69147000D01*
X127074435Y-69106611D01*
X126883166Y-69027385D01*
X126711024Y-68912363D01*
X126564637Y-68765976D01*
X126449615Y-68593834D01*
X126370389Y-68402565D01*
X126330000Y-68199516D01*
X126330000Y-67992484D01*
X126370389Y-67789435D01*
X126449615Y-67598166D01*
X126564637Y-67426024D01*
X126711024Y-67279637D01*
X126883166Y-67164615D01*
X127074435Y-67085389D01*
X127277484Y-67045000D01*
X127484516Y-67045000D01*
X127687565Y-67085389D01*
X127687565Y-67085389D01*
G37*
G36*
X103787565Y-67085389D02*
X103978834Y-67164615D01*
X104150976Y-67279637D01*
X104297363Y-67426024D01*
X104412385Y-67598166D01*
X104491611Y-67789435D01*
X104532000Y-67992484D01*
X104532000Y-68199516D01*
X104491611Y-68402565D01*
X104412385Y-68593834D01*
X104297363Y-68765976D01*
X104150976Y-68912363D01*
X103978834Y-69027385D01*
X103787565Y-69106611D01*
X103584516Y-69147000D01*
X103377484Y-69147000D01*
X103174435Y-69106611D01*
X102983166Y-69027385D01*
X102811024Y-68912363D01*
X102664637Y-68765976D01*
X102549615Y-68593834D01*
X102470389Y-68402565D01*
X102430000Y-68199516D01*
X102430000Y-67992484D01*
X102470389Y-67789435D01*
X102549615Y-67598166D01*
X102664637Y-67426024D01*
X102811024Y-67279637D01*
X102983166Y-67164615D01*
X103174435Y-67085389D01*
X103377484Y-67045000D01*
X103584516Y-67045000D01*
X103787565Y-67085389D01*
X103787565Y-67085389D01*
G37*
G36*
X114242466Y-60213565D02*
X114281137Y-60225296D01*
X114316779Y-60244348D01*
X114348017Y-60269983D01*
X114373652Y-60301221D01*
X114392704Y-60336863D01*
X114404435Y-60375534D01*
X114409000Y-60421888D01*
X114409000Y-61498112D01*
X114404435Y-61544466D01*
X114392704Y-61583137D01*
X114373652Y-61618779D01*
X114348017Y-61650017D01*
X114316779Y-61675652D01*
X114281137Y-61694704D01*
X114242466Y-61706435D01*
X114196112Y-61711000D01*
X113544888Y-61711000D01*
X113498534Y-61706435D01*
X113459863Y-61694704D01*
X113424221Y-61675652D01*
X113392983Y-61650017D01*
X113367348Y-61618779D01*
X113348296Y-61583137D01*
X113336565Y-61544466D01*
X113332000Y-61498112D01*
X113332000Y-60421888D01*
X113336565Y-60375534D01*
X113348296Y-60336863D01*
X113367348Y-60301221D01*
X113392983Y-60269983D01*
X113424221Y-60244348D01*
X113459863Y-60225296D01*
X113498534Y-60213565D01*
X113544888Y-60209000D01*
X114196112Y-60209000D01*
X114242466Y-60213565D01*
X114242466Y-60213565D01*
G37*
G36*
X116117466Y-60213565D02*
X116156137Y-60225296D01*
X116191779Y-60244348D01*
X116223017Y-60269983D01*
X116248652Y-60301221D01*
X116267704Y-60336863D01*
X116279435Y-60375534D01*
X116284000Y-60421888D01*
X116284000Y-61498112D01*
X116279435Y-61544466D01*
X116267704Y-61583137D01*
X116248652Y-61618779D01*
X116223017Y-61650017D01*
X116191779Y-61675652D01*
X116156137Y-61694704D01*
X116117466Y-61706435D01*
X116071112Y-61711000D01*
X115419888Y-61711000D01*
X115373534Y-61706435D01*
X115334863Y-61694704D01*
X115299221Y-61675652D01*
X115267983Y-61650017D01*
X115242348Y-61618779D01*
X115223296Y-61583137D01*
X115211565Y-61544466D01*
X115207000Y-61498112D01*
X115207000Y-60421888D01*
X115211565Y-60375534D01*
X115223296Y-60336863D01*
X115242348Y-60301221D01*
X115267983Y-60269983D01*
X115299221Y-60244348D01*
X115334863Y-60225296D01*
X115373534Y-60213565D01*
X115419888Y-60209000D01*
X116071112Y-60209000D01*
X116117466Y-60213565D01*
X116117466Y-60213565D01*
G37*
G36*
X116209000Y-59667000D02*
X115307000Y-59667000D01*
X115307000Y-58665000D01*
X116209000Y-58665000D01*
X116209000Y-59667000D01*
X116209000Y-59667000D01*
G37*
G36*
X114309000Y-59667000D02*
X113407000Y-59667000D01*
X113407000Y-58665000D01*
X114309000Y-58665000D01*
X114309000Y-59667000D01*
X114309000Y-59667000D01*
G37*
G36*
X115259000Y-57667000D02*
X114357000Y-57667000D01*
X114357000Y-56665000D01*
X115259000Y-56665000D01*
X115259000Y-57667000D01*
X115259000Y-57667000D01*
G37*
G36*
X126627198Y-53409954D02*
X126639450Y-53410556D01*
X126657869Y-53410556D01*
X126680149Y-53412750D01*
X126764236Y-53429476D01*
X126785655Y-53435974D01*
X126864871Y-53468785D01*
X126884607Y-53479335D01*
X126955897Y-53526969D01*
X126973208Y-53541176D01*
X127033824Y-53601792D01*
X127048031Y-53619103D01*
X127095665Y-53690393D01*
X127106215Y-53710129D01*
X127139026Y-53789345D01*
X127145524Y-53810764D01*
X127162250Y-53894851D01*
X127164444Y-53917131D01*
X127164444Y-53935550D01*
X127165046Y-53947802D01*
X127166852Y-53966140D01*
X127166852Y-54453860D01*
X127165263Y-54469999D01*
X127162347Y-54479611D01*
X127157612Y-54488469D01*
X127151237Y-54496237D01*
X127138798Y-54506446D01*
X127128432Y-54513372D01*
X127111105Y-54530698D01*
X127097490Y-54551073D01*
X127088112Y-54573711D01*
X127083331Y-54597745D01*
X127083331Y-54622249D01*
X127088111Y-54646283D01*
X127097487Y-54668922D01*
X127111101Y-54689297D01*
X127128427Y-54706624D01*
X127138796Y-54713552D01*
X127151237Y-54723763D01*
X127157612Y-54731531D01*
X127162347Y-54740389D01*
X127165263Y-54750001D01*
X127166852Y-54766140D01*
X127166852Y-55253861D01*
X127165046Y-55272198D01*
X127164444Y-55284450D01*
X127164444Y-55302869D01*
X127162250Y-55325149D01*
X127145524Y-55409236D01*
X127139026Y-55430655D01*
X127106215Y-55509871D01*
X127095665Y-55529607D01*
X127048031Y-55600897D01*
X127033824Y-55618208D01*
X126973208Y-55678824D01*
X126955897Y-55693031D01*
X126884607Y-55740665D01*
X126864871Y-55751215D01*
X126785655Y-55784026D01*
X126764236Y-55790524D01*
X126680149Y-55807250D01*
X126657869Y-55809444D01*
X126639450Y-55809444D01*
X126627198Y-55810046D01*
X126608861Y-55811852D01*
X126121139Y-55811852D01*
X126102802Y-55810046D01*
X126090550Y-55809444D01*
X126072131Y-55809444D01*
X126049851Y-55807250D01*
X125965764Y-55790524D01*
X125944345Y-55784026D01*
X125865129Y-55751215D01*
X125845393Y-55740665D01*
X125774103Y-55693031D01*
X125756792Y-55678824D01*
X125696176Y-55618208D01*
X125681969Y-55600897D01*
X125634335Y-55529607D01*
X125623785Y-55509871D01*
X125590974Y-55430655D01*
X125584476Y-55409236D01*
X125567750Y-55325149D01*
X125565556Y-55302869D01*
X125565556Y-55284450D01*
X125564954Y-55272198D01*
X125563148Y-55253861D01*
X125563148Y-54766140D01*
X125564737Y-54750001D01*
X125567653Y-54740389D01*
X125572388Y-54731531D01*
X125578763Y-54723763D01*
X125591202Y-54713554D01*
X125601568Y-54706628D01*
X125618895Y-54689302D01*
X125632510Y-54668927D01*
X125641888Y-54646289D01*
X125646669Y-54622255D01*
X125646669Y-54597751D01*
X125641889Y-54573717D01*
X125632513Y-54551078D01*
X125618899Y-54530703D01*
X125601573Y-54513376D01*
X125591204Y-54506448D01*
X125578763Y-54496237D01*
X125572388Y-54488469D01*
X125567653Y-54479611D01*
X125564737Y-54469999D01*
X125563148Y-54453860D01*
X125563148Y-53966140D01*
X125564954Y-53947802D01*
X125565556Y-53935550D01*
X125565556Y-53917131D01*
X125567750Y-53894851D01*
X125584476Y-53810764D01*
X125590974Y-53789345D01*
X125623785Y-53710129D01*
X125634335Y-53690393D01*
X125681969Y-53619103D01*
X125696176Y-53601792D01*
X125756792Y-53541176D01*
X125774103Y-53526969D01*
X125845393Y-53479335D01*
X125865129Y-53468785D01*
X125944345Y-53435974D01*
X125965764Y-53429476D01*
X126049851Y-53412750D01*
X126072131Y-53410556D01*
X126090550Y-53410556D01*
X126102802Y-53409954D01*
X126121140Y-53408148D01*
X126608860Y-53408148D01*
X126627198Y-53409954D01*
X126627198Y-53409954D01*
G37*
G36*
X116287677Y-53355465D02*
X116325364Y-53366898D01*
X116360103Y-53385466D01*
X116390548Y-53410452D01*
X116415534Y-53440897D01*
X116434102Y-53475636D01*
X116445535Y-53513323D01*
X116450000Y-53558661D01*
X116450000Y-54645339D01*
X116445535Y-54690677D01*
X116434102Y-54728364D01*
X116415534Y-54763103D01*
X116390548Y-54793548D01*
X116360103Y-54818534D01*
X116325364Y-54837102D01*
X116287677Y-54848535D01*
X116242339Y-54853000D01*
X115405661Y-54853000D01*
X115360323Y-54848535D01*
X115322636Y-54837102D01*
X115287897Y-54818534D01*
X115257452Y-54793548D01*
X115232466Y-54763103D01*
X115213898Y-54728364D01*
X115202465Y-54690677D01*
X115198000Y-54645339D01*
X115198000Y-53558661D01*
X115202465Y-53513323D01*
X115213898Y-53475636D01*
X115232466Y-53440897D01*
X115257452Y-53410452D01*
X115287897Y-53385466D01*
X115322636Y-53366898D01*
X115360323Y-53355465D01*
X115405661Y-53351000D01*
X116242339Y-53351000D01*
X116287677Y-53355465D01*
X116287677Y-53355465D01*
G37*
G36*
X114237677Y-53355465D02*
X114275364Y-53366898D01*
X114310103Y-53385466D01*
X114340548Y-53410452D01*
X114365534Y-53440897D01*
X114384102Y-53475636D01*
X114395535Y-53513323D01*
X114400000Y-53558661D01*
X114400000Y-54645339D01*
X114395535Y-54690677D01*
X114384102Y-54728364D01*
X114365534Y-54763103D01*
X114340548Y-54793548D01*
X114310103Y-54818534D01*
X114275364Y-54837102D01*
X114237677Y-54848535D01*
X114192339Y-54853000D01*
X113355661Y-54853000D01*
X113310323Y-54848535D01*
X113272636Y-54837102D01*
X113237897Y-54818534D01*
X113207452Y-54793548D01*
X113182466Y-54763103D01*
X113163898Y-54728364D01*
X113152465Y-54690677D01*
X113148000Y-54645339D01*
X113148000Y-53558661D01*
X113152465Y-53513323D01*
X113163898Y-53475636D01*
X113182466Y-53440897D01*
X113207452Y-53410452D01*
X113237897Y-53385466D01*
X113272636Y-53366898D01*
X113310323Y-53355465D01*
X113355661Y-53351000D01*
X114192339Y-53351000D01*
X114237677Y-53355465D01*
X114237677Y-53355465D01*
G37*
G36*
X120495996Y-47447051D02*
X120529653Y-47457261D01*
X120560667Y-47473838D01*
X120587852Y-47496148D01*
X120610162Y-47523333D01*
X120626739Y-47554347D01*
X120636949Y-47588004D01*
X120641000Y-47629138D01*
X120641000Y-50358862D01*
X120636949Y-50399996D01*
X120626739Y-50433653D01*
X120610162Y-50464667D01*
X120587852Y-50491852D01*
X120560667Y-50514162D01*
X120529653Y-50530739D01*
X120495996Y-50540949D01*
X120454862Y-50545000D01*
X119125138Y-50545000D01*
X119084004Y-50540949D01*
X119050347Y-50530739D01*
X119019333Y-50514162D01*
X118992148Y-50491852D01*
X118969838Y-50464667D01*
X118953261Y-50433653D01*
X118943051Y-50399996D01*
X118939000Y-50358862D01*
X118939000Y-47629138D01*
X118943051Y-47588004D01*
X118953261Y-47554347D01*
X118969838Y-47523333D01*
X118992148Y-47496148D01*
X119019333Y-47473838D01*
X119050347Y-47457261D01*
X119084004Y-47447051D01*
X119125138Y-47443000D01*
X120454862Y-47443000D01*
X120495996Y-47447051D01*
X120495996Y-47447051D01*
G37*
G36*
X127295996Y-47447051D02*
X127329653Y-47457261D01*
X127360667Y-47473838D01*
X127387852Y-47496148D01*
X127410162Y-47523333D01*
X127426739Y-47554347D01*
X127436949Y-47588004D01*
X127441000Y-47629138D01*
X127441000Y-50358862D01*
X127436949Y-50399996D01*
X127426739Y-50433653D01*
X127410162Y-50464667D01*
X127387852Y-50491852D01*
X127360667Y-50514162D01*
X127329653Y-50530739D01*
X127295996Y-50540949D01*
X127254862Y-50545000D01*
X125925138Y-50545000D01*
X125884004Y-50540949D01*
X125850347Y-50530739D01*
X125819333Y-50514162D01*
X125792148Y-50491852D01*
X125769838Y-50464667D01*
X125753261Y-50433653D01*
X125743051Y-50399996D01*
X125739000Y-50358862D01*
X125739000Y-47629138D01*
X125743051Y-47588004D01*
X125753261Y-47554347D01*
X125769838Y-47523333D01*
X125792148Y-47496148D01*
X125819333Y-47473838D01*
X125850347Y-47457261D01*
X125884004Y-47447051D01*
X125925138Y-47443000D01*
X127254862Y-47443000D01*
X127295996Y-47447051D01*
X127295996Y-47447051D01*
G37*
G36*
X110785996Y-47447051D02*
X110819653Y-47457261D01*
X110850667Y-47473838D01*
X110877852Y-47496148D01*
X110900162Y-47523333D01*
X110916739Y-47554347D01*
X110926949Y-47588004D01*
X110931000Y-47629138D01*
X110931000Y-50358862D01*
X110926949Y-50399996D01*
X110916739Y-50433653D01*
X110900162Y-50464667D01*
X110877852Y-50491852D01*
X110850667Y-50514162D01*
X110819653Y-50530739D01*
X110785996Y-50540949D01*
X110744862Y-50545000D01*
X109415138Y-50545000D01*
X109374004Y-50540949D01*
X109340347Y-50530739D01*
X109309333Y-50514162D01*
X109282148Y-50491852D01*
X109259838Y-50464667D01*
X109243261Y-50433653D01*
X109233051Y-50399996D01*
X109229000Y-50358862D01*
X109229000Y-47629138D01*
X109233051Y-47588004D01*
X109243261Y-47554347D01*
X109259838Y-47523333D01*
X109282148Y-47496148D01*
X109309333Y-47473838D01*
X109340347Y-47457261D01*
X109374004Y-47447051D01*
X109415138Y-47443000D01*
X110744862Y-47443000D01*
X110785996Y-47447051D01*
X110785996Y-47447051D01*
G37*
G36*
X103985996Y-47447051D02*
X104019653Y-47457261D01*
X104050667Y-47473838D01*
X104077852Y-47496148D01*
X104100162Y-47523333D01*
X104116739Y-47554347D01*
X104126949Y-47588004D01*
X104131000Y-47629138D01*
X104131000Y-50358862D01*
X104126949Y-50399996D01*
X104116739Y-50433653D01*
X104100162Y-50464667D01*
X104077852Y-50491852D01*
X104050667Y-50514162D01*
X104019653Y-50530739D01*
X103985996Y-50540949D01*
X103944862Y-50545000D01*
X102615138Y-50545000D01*
X102574004Y-50540949D01*
X102540347Y-50530739D01*
X102509333Y-50514162D01*
X102482148Y-50491852D01*
X102459838Y-50464667D01*
X102443261Y-50433653D01*
X102433051Y-50399996D01*
X102429000Y-50358862D01*
X102429000Y-47629138D01*
X102433051Y-47588004D01*
X102443261Y-47554347D01*
X102459838Y-47523333D01*
X102482148Y-47496148D01*
X102509333Y-47473838D01*
X102540347Y-47457261D01*
X102574004Y-47447051D01*
X102615138Y-47443000D01*
X103944862Y-47443000D01*
X103985996Y-47447051D01*
X103985996Y-47447051D01*
G37*
G36*
X106059433Y-43947686D02*
X106099281Y-43959774D01*
X106136001Y-43979401D01*
X106168186Y-44005814D01*
X106194599Y-44037999D01*
X106214226Y-44074719D01*
X106226314Y-44114567D01*
X106231000Y-44162141D01*
X106231000Y-49325859D01*
X106226314Y-49373433D01*
X106214226Y-49413281D01*
X106194599Y-49450001D01*
X106168186Y-49482186D01*
X106136001Y-49508599D01*
X106099281Y-49528226D01*
X106059433Y-49540314D01*
X106011859Y-49545000D01*
X105348141Y-49545000D01*
X105300567Y-49540314D01*
X105260719Y-49528226D01*
X105223999Y-49508599D01*
X105191814Y-49482186D01*
X105165401Y-49450001D01*
X105145774Y-49413281D01*
X105133686Y-49373433D01*
X105129000Y-49325859D01*
X105129000Y-44162141D01*
X105133686Y-44114567D01*
X105145774Y-44074719D01*
X105165401Y-44037999D01*
X105191814Y-44005814D01*
X105223999Y-43979401D01*
X105260719Y-43959774D01*
X105300567Y-43947686D01*
X105348141Y-43943000D01*
X106011859Y-43943000D01*
X106059433Y-43947686D01*
X106059433Y-43947686D01*
G37*
G36*
X122569433Y-43947686D02*
X122609281Y-43959774D01*
X122646001Y-43979401D01*
X122678186Y-44005814D01*
X122704599Y-44037999D01*
X122724226Y-44074719D01*
X122736314Y-44114567D01*
X122741000Y-44162141D01*
X122741000Y-49325859D01*
X122736314Y-49373433D01*
X122724226Y-49413281D01*
X122704599Y-49450001D01*
X122678186Y-49482186D01*
X122646001Y-49508599D01*
X122609281Y-49528226D01*
X122569433Y-49540314D01*
X122521859Y-49545000D01*
X121858141Y-49545000D01*
X121810567Y-49540314D01*
X121770719Y-49528226D01*
X121733999Y-49508599D01*
X121701814Y-49482186D01*
X121675401Y-49450001D01*
X121655774Y-49413281D01*
X121643686Y-49373433D01*
X121639000Y-49325859D01*
X121639000Y-44162141D01*
X121643686Y-44114567D01*
X121655774Y-44074719D01*
X121675401Y-44037999D01*
X121701814Y-44005814D01*
X121733999Y-43979401D01*
X121770719Y-43959774D01*
X121810567Y-43947686D01*
X121858141Y-43943000D01*
X122521859Y-43943000D01*
X122569433Y-43947686D01*
X122569433Y-43947686D01*
G37*
G36*
X108059433Y-43947686D02*
X108099281Y-43959774D01*
X108136001Y-43979401D01*
X108168186Y-44005814D01*
X108194599Y-44037999D01*
X108214226Y-44074719D01*
X108226314Y-44114567D01*
X108231000Y-44162141D01*
X108231000Y-49325859D01*
X108226314Y-49373433D01*
X108214226Y-49413281D01*
X108194599Y-49450001D01*
X108168186Y-49482186D01*
X108136001Y-49508599D01*
X108099281Y-49528226D01*
X108059433Y-49540314D01*
X108011859Y-49545000D01*
X107348141Y-49545000D01*
X107300567Y-49540314D01*
X107260719Y-49528226D01*
X107223999Y-49508599D01*
X107191814Y-49482186D01*
X107165401Y-49450001D01*
X107145774Y-49413281D01*
X107133686Y-49373433D01*
X107129000Y-49325859D01*
X107129000Y-44162141D01*
X107133686Y-44114567D01*
X107145774Y-44074719D01*
X107165401Y-44037999D01*
X107191814Y-44005814D01*
X107223999Y-43979401D01*
X107260719Y-43959774D01*
X107300567Y-43947686D01*
X107348141Y-43943000D01*
X108011859Y-43943000D01*
X108059433Y-43947686D01*
X108059433Y-43947686D01*
G37*
G36*
X124569433Y-43947686D02*
X124609281Y-43959774D01*
X124646001Y-43979401D01*
X124678186Y-44005814D01*
X124704599Y-44037999D01*
X124724226Y-44074719D01*
X124736314Y-44114567D01*
X124741000Y-44162141D01*
X124741000Y-49325859D01*
X124736314Y-49373433D01*
X124724226Y-49413281D01*
X124704599Y-49450001D01*
X124678186Y-49482186D01*
X124646001Y-49508599D01*
X124609281Y-49528226D01*
X124569433Y-49540314D01*
X124521859Y-49545000D01*
X123858141Y-49545000D01*
X123810567Y-49540314D01*
X123770719Y-49528226D01*
X123733999Y-49508599D01*
X123701814Y-49482186D01*
X123675401Y-49450001D01*
X123655774Y-49413281D01*
X123643686Y-49373433D01*
X123639000Y-49325859D01*
X123639000Y-44162141D01*
X123643686Y-44114567D01*
X123655774Y-44074719D01*
X123675401Y-44037999D01*
X123701814Y-44005814D01*
X123733999Y-43979401D01*
X123770719Y-43959774D01*
X123810567Y-43947686D01*
X123858141Y-43943000D01*
X124521859Y-43943000D01*
X124569433Y-43947686D01*
X124569433Y-43947686D01*
G37*
G36*
X116979000Y-48907000D02*
X115177000Y-48907000D01*
X115177000Y-47105000D01*
X116979000Y-47105000D01*
X116979000Y-48907000D01*
X116979000Y-48907000D01*
G37*
G36*
X113648442Y-47111518D02*
X113714627Y-47118037D01*
X113827853Y-47152384D01*
X113884467Y-47169557D01*
X114023087Y-47243652D01*
X114040991Y-47253222D01*
X114076729Y-47282552D01*
X114178186Y-47365814D01*
X114258143Y-47463243D01*
X114290778Y-47503009D01*
X114290779Y-47503011D01*
X114374443Y-47659533D01*
X114374443Y-47659534D01*
X114425963Y-47829373D01*
X114443359Y-48006000D01*
X114425963Y-48182627D01*
X114391616Y-48295853D01*
X114374443Y-48352467D01*
X114300348Y-48491087D01*
X114290778Y-48508991D01*
X114261448Y-48544729D01*
X114178186Y-48646186D01*
X114076729Y-48729448D01*
X114040991Y-48758778D01*
X114040989Y-48758779D01*
X113884467Y-48842443D01*
X113827853Y-48859616D01*
X113714627Y-48893963D01*
X113648443Y-48900481D01*
X113582260Y-48907000D01*
X113493740Y-48907000D01*
X113427558Y-48900482D01*
X113361373Y-48893963D01*
X113248147Y-48859616D01*
X113191533Y-48842443D01*
X113035011Y-48758779D01*
X113035009Y-48758778D01*
X112999271Y-48729448D01*
X112897814Y-48646186D01*
X112814552Y-48544729D01*
X112785222Y-48508991D01*
X112775652Y-48491087D01*
X112701557Y-48352467D01*
X112684384Y-48295853D01*
X112650037Y-48182627D01*
X112632641Y-48006000D01*
X112650037Y-47829373D01*
X112701557Y-47659534D01*
X112701557Y-47659533D01*
X112785221Y-47503011D01*
X112785222Y-47503009D01*
X112817857Y-47463243D01*
X112897814Y-47365814D01*
X112999271Y-47282552D01*
X113035009Y-47253222D01*
X113052913Y-47243652D01*
X113191533Y-47169557D01*
X113248147Y-47152384D01*
X113361373Y-47118037D01*
X113427558Y-47111518D01*
X113493740Y-47105000D01*
X113582260Y-47105000D01*
X113648442Y-47111518D01*
X113648442Y-47111518D01*
G37*
G36*
X116950142Y-43414242D02*
X117098102Y-43475530D01*
X117231258Y-43564502D01*
X117344498Y-43677742D01*
X117433470Y-43810898D01*
X117494758Y-43958858D01*
X117526000Y-44115925D01*
X117526000Y-44276075D01*
X117494758Y-44433142D01*
X117433470Y-44581102D01*
X117344498Y-44714258D01*
X117231258Y-44827498D01*
X117098102Y-44916470D01*
X116950142Y-44977758D01*
X116793075Y-45009000D01*
X116632925Y-45009000D01*
X116475858Y-44977758D01*
X116327898Y-44916470D01*
X116194742Y-44827498D01*
X116081502Y-44714258D01*
X115992530Y-44581102D01*
X115931242Y-44433142D01*
X115900000Y-44276075D01*
X115900000Y-44115925D01*
X115931242Y-43958858D01*
X115992530Y-43810898D01*
X116081502Y-43677742D01*
X116194742Y-43564502D01*
X116327898Y-43475530D01*
X116475858Y-43414242D01*
X116632925Y-43383000D01*
X116793075Y-43383000D01*
X116950142Y-43414242D01*
X116950142Y-43414242D01*
G37*
G36*
X119490142Y-43414242D02*
X119638102Y-43475530D01*
X119771258Y-43564502D01*
X119884498Y-43677742D01*
X119973470Y-43810898D01*
X120034758Y-43958858D01*
X120066000Y-44115925D01*
X120066000Y-44276075D01*
X120034758Y-44433142D01*
X119973470Y-44581102D01*
X119884498Y-44714258D01*
X119771258Y-44827498D01*
X119638102Y-44916470D01*
X119490142Y-44977758D01*
X119333075Y-45009000D01*
X119172925Y-45009000D01*
X119015858Y-44977758D01*
X118867898Y-44916470D01*
X118734742Y-44827498D01*
X118621502Y-44714258D01*
X118532530Y-44581102D01*
X118471242Y-44433142D01*
X118440000Y-44276075D01*
X118440000Y-44115925D01*
X118471242Y-43958858D01*
X118532530Y-43810898D01*
X118621502Y-43677742D01*
X118734742Y-43564502D01*
X118867898Y-43475530D01*
X119015858Y-43414242D01*
X119172925Y-43383000D01*
X119333075Y-43383000D01*
X119490142Y-43414242D01*
X119490142Y-43414242D01*
G37*
G36*
X114410142Y-43414242D02*
X114558102Y-43475530D01*
X114691258Y-43564502D01*
X114804498Y-43677742D01*
X114893470Y-43810898D01*
X114954758Y-43958858D01*
X114986000Y-44115925D01*
X114986000Y-44276075D01*
X114954758Y-44433142D01*
X114893470Y-44581102D01*
X114804498Y-44714258D01*
X114691258Y-44827498D01*
X114558102Y-44916470D01*
X114410142Y-44977758D01*
X114253075Y-45009000D01*
X114092925Y-45009000D01*
X113935858Y-44977758D01*
X113787898Y-44916470D01*
X113654742Y-44827498D01*
X113541502Y-44714258D01*
X113452530Y-44581102D01*
X113391242Y-44433142D01*
X113360000Y-44276075D01*
X113360000Y-44115925D01*
X113391242Y-43958858D01*
X113452530Y-43810898D01*
X113541502Y-43677742D01*
X113654742Y-43564502D01*
X113787898Y-43475530D01*
X113935858Y-43414242D01*
X114092925Y-43383000D01*
X114253075Y-43383000D01*
X114410142Y-43414242D01*
X114410142Y-43414242D01*
G37*
G36*
X111870142Y-43414242D02*
X112018102Y-43475530D01*
X112151258Y-43564502D01*
X112264498Y-43677742D01*
X112353470Y-43810898D01*
X112414758Y-43958858D01*
X112446000Y-44115925D01*
X112446000Y-44276075D01*
X112414758Y-44433142D01*
X112353470Y-44581102D01*
X112264498Y-44714258D01*
X112151258Y-44827498D01*
X112018102Y-44916470D01*
X111870142Y-44977758D01*
X111713075Y-45009000D01*
X111552925Y-45009000D01*
X111395858Y-44977758D01*
X111247898Y-44916470D01*
X111114742Y-44827498D01*
X111001502Y-44714258D01*
X110912530Y-44581102D01*
X110851242Y-44433142D01*
X110820000Y-44276075D01*
X110820000Y-44115925D01*
X110851242Y-43958858D01*
X110912530Y-43810898D01*
X111001502Y-43677742D01*
X111114742Y-43564502D01*
X111247898Y-43475530D01*
X111395858Y-43414242D01*
X111552925Y-43383000D01*
X111713075Y-43383000D01*
X111870142Y-43414242D01*
X111870142Y-43414242D01*
G37*
G36*
X127970734Y-38898232D02*
X128180202Y-38984996D01*
X128368723Y-39110962D01*
X128529038Y-39271277D01*
X128655004Y-39459798D01*
X128741768Y-39669266D01*
X128786000Y-39891635D01*
X128786000Y-40118365D01*
X128741768Y-40340734D01*
X128655004Y-40550202D01*
X128529038Y-40738723D01*
X128368723Y-40899038D01*
X128180202Y-41025004D01*
X127970734Y-41111768D01*
X127748365Y-41156000D01*
X127521635Y-41156000D01*
X127299266Y-41111768D01*
X127089798Y-41025004D01*
X126901277Y-40899038D01*
X126740962Y-40738723D01*
X126614996Y-40550202D01*
X126528232Y-40340734D01*
X126484000Y-40118365D01*
X126484000Y-39891635D01*
X126528232Y-39669266D01*
X126614996Y-39459798D01*
X126740962Y-39271277D01*
X126901277Y-39110962D01*
X127089798Y-38984996D01*
X127299266Y-38898232D01*
X127521635Y-38854000D01*
X127748365Y-38854000D01*
X127970734Y-38898232D01*
X127970734Y-38898232D01*
G37*
G36*
X104406000Y-40271000D02*
X102604000Y-40271000D01*
X102604000Y-38469000D01*
X104406000Y-38469000D01*
X104406000Y-40271000D01*
X104406000Y-40271000D01*
G37*
M02*
