G04 #@! TF.GenerationSoftware,KiCad,Pcbnew,(5.0.1)-4*
G04 #@! TF.CreationDate,2019-11-10T23:47:17+01:00*
G04 #@! TF.ProjectId,rak4260,72616B343236302E6B696361645F7063,0.3*
G04 #@! TF.SameCoordinates,Original*
G04 #@! TF.FileFunction,Profile,NP*
%FSLAX46Y46*%
G04 Gerber Fmt 4.6, Leading zero omitted, Abs format (unit mm)*
G04 Created by KiCad (PCBNEW (5.0.1)-4) date 10/11/2019 23:47:17*
%MOMM*%
%LPD*%
G01*
G04 APERTURE LIST*
%ADD10C,0.150000*%
G04 APERTURE END LIST*
D10*
X128905000Y-37465000D02*
G75*
G02X130175000Y-38735000I0J-1270000D01*
G01*
X130175000Y-90170000D02*
G75*
G02X128905000Y-91440000I-1270000J0D01*
G01*
X128270000Y-91440000D02*
X128905000Y-91440000D01*
X127635000Y-91440000D02*
X128270000Y-91440000D01*
X130175000Y-38735000D02*
X130175000Y-90170000D01*
X128270000Y-37465000D02*
X128905000Y-37465000D01*
X121285000Y-41910000D02*
G75*
G02X120650000Y-42545000I-635000J0D01*
G01*
X121285000Y-38100000D02*
G75*
G02X121920000Y-37465000I635000J0D01*
G01*
X120650000Y-42545000D02*
X106045000Y-42545000D01*
X121285000Y-38100000D02*
X121285000Y-41910000D01*
X127000000Y-37465000D02*
X121920000Y-37465000D01*
X128270000Y-37465000D02*
X127000000Y-37465000D01*
X102870000Y-91440000D02*
G75*
G02X101600000Y-90170000I0J1270000D01*
G01*
X106045000Y-42545000D02*
G75*
G02X105410000Y-41910000I0J635000D01*
G01*
X104775000Y-36830000D02*
G75*
G02X105410000Y-37465000I0J-635000D01*
G01*
X101600000Y-37465000D02*
G75*
G02X102235000Y-36830000I635000J0D01*
G01*
X101600000Y-37465000D02*
X101600000Y-42545000D01*
X104775000Y-36830000D02*
X102235000Y-36830000D01*
X105410000Y-41910000D02*
X105410000Y-37465000D01*
X102870000Y-91440000D02*
X127635000Y-91440000D01*
X101600000Y-42545000D02*
X101600000Y-90170000D01*
M02*
