G04 #@! TF.GenerationSoftware,KiCad,Pcbnew,(5.0.1)-4*
G04 #@! TF.CreationDate,2019-11-10T23:47:17+01:00*
G04 #@! TF.ProjectId,rak4260,72616B343236302E6B696361645F7063,0.3*
G04 #@! TF.SameCoordinates,Original*
G04 #@! TF.FileFunction,Paste,Bot*
G04 #@! TF.FilePolarity,Positive*
%FSLAX46Y46*%
G04 Gerber Fmt 4.6, Leading zero omitted, Abs format (unit mm)*
G04 Created by KiCad (PCBNEW (5.0.1)-4) date 10/11/2019 23:47:17*
%MOMM*%
%LPD*%
G01*
G04 APERTURE LIST*
%ADD10C,0.100000*%
%ADD11C,1.000000*%
%ADD12C,1.600000*%
%ADD13R,1.270000X1.470000*%
%ADD14R,0.800000X0.900000*%
%ADD15C,0.975000*%
%ADD16R,1.700000X1.700000*%
%ADD17O,1.700000X1.700000*%
%ADD18C,1.150000*%
%ADD19R,1.000000X2.510000*%
G04 APERTURE END LIST*
D10*
G04 #@! TO.C,J2*
G36*
X122464504Y-43995204D02*
X122488773Y-43998804D01*
X122512571Y-44004765D01*
X122535671Y-44013030D01*
X122557849Y-44023520D01*
X122578893Y-44036133D01*
X122598598Y-44050747D01*
X122616777Y-44067223D01*
X122633253Y-44085402D01*
X122647867Y-44105107D01*
X122660480Y-44126151D01*
X122670970Y-44148329D01*
X122679235Y-44171429D01*
X122685196Y-44195227D01*
X122688796Y-44219496D01*
X122690000Y-44244000D01*
X122690000Y-49244000D01*
X122688796Y-49268504D01*
X122685196Y-49292773D01*
X122679235Y-49316571D01*
X122670970Y-49339671D01*
X122660480Y-49361849D01*
X122647867Y-49382893D01*
X122633253Y-49402598D01*
X122616777Y-49420777D01*
X122598598Y-49437253D01*
X122578893Y-49451867D01*
X122557849Y-49464480D01*
X122535671Y-49474970D01*
X122512571Y-49483235D01*
X122488773Y-49489196D01*
X122464504Y-49492796D01*
X122440000Y-49494000D01*
X121940000Y-49494000D01*
X121915496Y-49492796D01*
X121891227Y-49489196D01*
X121867429Y-49483235D01*
X121844329Y-49474970D01*
X121822151Y-49464480D01*
X121801107Y-49451867D01*
X121781402Y-49437253D01*
X121763223Y-49420777D01*
X121746747Y-49402598D01*
X121732133Y-49382893D01*
X121719520Y-49361849D01*
X121709030Y-49339671D01*
X121700765Y-49316571D01*
X121694804Y-49292773D01*
X121691204Y-49268504D01*
X121690000Y-49244000D01*
X121690000Y-44244000D01*
X121691204Y-44219496D01*
X121694804Y-44195227D01*
X121700765Y-44171429D01*
X121709030Y-44148329D01*
X121719520Y-44126151D01*
X121732133Y-44105107D01*
X121746747Y-44085402D01*
X121763223Y-44067223D01*
X121781402Y-44050747D01*
X121801107Y-44036133D01*
X121822151Y-44023520D01*
X121844329Y-44013030D01*
X121867429Y-44004765D01*
X121891227Y-43998804D01*
X121915496Y-43995204D01*
X121940000Y-43994000D01*
X122440000Y-43994000D01*
X122464504Y-43995204D01*
X122464504Y-43995204D01*
G37*
D11*
X122190000Y-46744000D03*
D10*
G36*
X124464504Y-43995204D02*
X124488773Y-43998804D01*
X124512571Y-44004765D01*
X124535671Y-44013030D01*
X124557849Y-44023520D01*
X124578893Y-44036133D01*
X124598598Y-44050747D01*
X124616777Y-44067223D01*
X124633253Y-44085402D01*
X124647867Y-44105107D01*
X124660480Y-44126151D01*
X124670970Y-44148329D01*
X124679235Y-44171429D01*
X124685196Y-44195227D01*
X124688796Y-44219496D01*
X124690000Y-44244000D01*
X124690000Y-49244000D01*
X124688796Y-49268504D01*
X124685196Y-49292773D01*
X124679235Y-49316571D01*
X124670970Y-49339671D01*
X124660480Y-49361849D01*
X124647867Y-49382893D01*
X124633253Y-49402598D01*
X124616777Y-49420777D01*
X124598598Y-49437253D01*
X124578893Y-49451867D01*
X124557849Y-49464480D01*
X124535671Y-49474970D01*
X124512571Y-49483235D01*
X124488773Y-49489196D01*
X124464504Y-49492796D01*
X124440000Y-49494000D01*
X123940000Y-49494000D01*
X123915496Y-49492796D01*
X123891227Y-49489196D01*
X123867429Y-49483235D01*
X123844329Y-49474970D01*
X123822151Y-49464480D01*
X123801107Y-49451867D01*
X123781402Y-49437253D01*
X123763223Y-49420777D01*
X123746747Y-49402598D01*
X123732133Y-49382893D01*
X123719520Y-49361849D01*
X123709030Y-49339671D01*
X123700765Y-49316571D01*
X123694804Y-49292773D01*
X123691204Y-49268504D01*
X123690000Y-49244000D01*
X123690000Y-44244000D01*
X123691204Y-44219496D01*
X123694804Y-44195227D01*
X123700765Y-44171429D01*
X123709030Y-44148329D01*
X123719520Y-44126151D01*
X123732133Y-44105107D01*
X123746747Y-44085402D01*
X123763223Y-44067223D01*
X123781402Y-44050747D01*
X123801107Y-44036133D01*
X123822151Y-44023520D01*
X123844329Y-44013030D01*
X123867429Y-44004765D01*
X123891227Y-43998804D01*
X123915496Y-43995204D01*
X123940000Y-43994000D01*
X124440000Y-43994000D01*
X124464504Y-43995204D01*
X124464504Y-43995204D01*
G37*
D11*
X124190000Y-46744000D03*
D10*
G36*
X120364504Y-47495204D02*
X120388773Y-47498804D01*
X120412571Y-47504765D01*
X120435671Y-47513030D01*
X120457849Y-47523520D01*
X120478893Y-47536133D01*
X120498598Y-47550747D01*
X120516777Y-47567223D01*
X120533253Y-47585402D01*
X120547867Y-47605107D01*
X120560480Y-47626151D01*
X120570970Y-47648329D01*
X120579235Y-47671429D01*
X120585196Y-47695227D01*
X120588796Y-47719496D01*
X120590000Y-47744000D01*
X120590000Y-50244000D01*
X120588796Y-50268504D01*
X120585196Y-50292773D01*
X120579235Y-50316571D01*
X120570970Y-50339671D01*
X120560480Y-50361849D01*
X120547867Y-50382893D01*
X120533253Y-50402598D01*
X120516777Y-50420777D01*
X120498598Y-50437253D01*
X120478893Y-50451867D01*
X120457849Y-50464480D01*
X120435671Y-50474970D01*
X120412571Y-50483235D01*
X120388773Y-50489196D01*
X120364504Y-50492796D01*
X120340000Y-50494000D01*
X119240000Y-50494000D01*
X119215496Y-50492796D01*
X119191227Y-50489196D01*
X119167429Y-50483235D01*
X119144329Y-50474970D01*
X119122151Y-50464480D01*
X119101107Y-50451867D01*
X119081402Y-50437253D01*
X119063223Y-50420777D01*
X119046747Y-50402598D01*
X119032133Y-50382893D01*
X119019520Y-50361849D01*
X119009030Y-50339671D01*
X119000765Y-50316571D01*
X118994804Y-50292773D01*
X118991204Y-50268504D01*
X118990000Y-50244000D01*
X118990000Y-47744000D01*
X118991204Y-47719496D01*
X118994804Y-47695227D01*
X119000765Y-47671429D01*
X119009030Y-47648329D01*
X119019520Y-47626151D01*
X119032133Y-47605107D01*
X119046747Y-47585402D01*
X119063223Y-47567223D01*
X119081402Y-47550747D01*
X119101107Y-47536133D01*
X119122151Y-47523520D01*
X119144329Y-47513030D01*
X119167429Y-47504765D01*
X119191227Y-47498804D01*
X119215496Y-47495204D01*
X119240000Y-47494000D01*
X120340000Y-47494000D01*
X120364504Y-47495204D01*
X120364504Y-47495204D01*
G37*
D12*
X119790000Y-48994000D03*
D10*
G36*
X127164504Y-47495204D02*
X127188773Y-47498804D01*
X127212571Y-47504765D01*
X127235671Y-47513030D01*
X127257849Y-47523520D01*
X127278893Y-47536133D01*
X127298598Y-47550747D01*
X127316777Y-47567223D01*
X127333253Y-47585402D01*
X127347867Y-47605107D01*
X127360480Y-47626151D01*
X127370970Y-47648329D01*
X127379235Y-47671429D01*
X127385196Y-47695227D01*
X127388796Y-47719496D01*
X127390000Y-47744000D01*
X127390000Y-50244000D01*
X127388796Y-50268504D01*
X127385196Y-50292773D01*
X127379235Y-50316571D01*
X127370970Y-50339671D01*
X127360480Y-50361849D01*
X127347867Y-50382893D01*
X127333253Y-50402598D01*
X127316777Y-50420777D01*
X127298598Y-50437253D01*
X127278893Y-50451867D01*
X127257849Y-50464480D01*
X127235671Y-50474970D01*
X127212571Y-50483235D01*
X127188773Y-50489196D01*
X127164504Y-50492796D01*
X127140000Y-50494000D01*
X126040000Y-50494000D01*
X126015496Y-50492796D01*
X125991227Y-50489196D01*
X125967429Y-50483235D01*
X125944329Y-50474970D01*
X125922151Y-50464480D01*
X125901107Y-50451867D01*
X125881402Y-50437253D01*
X125863223Y-50420777D01*
X125846747Y-50402598D01*
X125832133Y-50382893D01*
X125819520Y-50361849D01*
X125809030Y-50339671D01*
X125800765Y-50316571D01*
X125794804Y-50292773D01*
X125791204Y-50268504D01*
X125790000Y-50244000D01*
X125790000Y-47744000D01*
X125791204Y-47719496D01*
X125794804Y-47695227D01*
X125800765Y-47671429D01*
X125809030Y-47648329D01*
X125819520Y-47626151D01*
X125832133Y-47605107D01*
X125846747Y-47585402D01*
X125863223Y-47567223D01*
X125881402Y-47550747D01*
X125901107Y-47536133D01*
X125922151Y-47523520D01*
X125944329Y-47513030D01*
X125967429Y-47504765D01*
X125991227Y-47498804D01*
X126015496Y-47495204D01*
X126040000Y-47494000D01*
X127140000Y-47494000D01*
X127164504Y-47495204D01*
X127164504Y-47495204D01*
G37*
D12*
X126590000Y-48994000D03*
G04 #@! TD*
D13*
G04 #@! TO.C,D4*
X108848000Y-70866000D03*
X113148000Y-70866000D03*
G04 #@! TD*
D14*
G04 #@! TO.C,Q1*
X115758000Y-59166000D03*
X113858000Y-59166000D03*
X114808000Y-57166000D03*
G04 #@! TD*
D10*
G04 #@! TO.C,R12*
G36*
X114138142Y-60261174D02*
X114161803Y-60264684D01*
X114185007Y-60270496D01*
X114207529Y-60278554D01*
X114229153Y-60288782D01*
X114249670Y-60301079D01*
X114268883Y-60315329D01*
X114286607Y-60331393D01*
X114302671Y-60349117D01*
X114316921Y-60368330D01*
X114329218Y-60388847D01*
X114339446Y-60410471D01*
X114347504Y-60432993D01*
X114353316Y-60456197D01*
X114356826Y-60479858D01*
X114358000Y-60503750D01*
X114358000Y-61416250D01*
X114356826Y-61440142D01*
X114353316Y-61463803D01*
X114347504Y-61487007D01*
X114339446Y-61509529D01*
X114329218Y-61531153D01*
X114316921Y-61551670D01*
X114302671Y-61570883D01*
X114286607Y-61588607D01*
X114268883Y-61604671D01*
X114249670Y-61618921D01*
X114229153Y-61631218D01*
X114207529Y-61641446D01*
X114185007Y-61649504D01*
X114161803Y-61655316D01*
X114138142Y-61658826D01*
X114114250Y-61660000D01*
X113626750Y-61660000D01*
X113602858Y-61658826D01*
X113579197Y-61655316D01*
X113555993Y-61649504D01*
X113533471Y-61641446D01*
X113511847Y-61631218D01*
X113491330Y-61618921D01*
X113472117Y-61604671D01*
X113454393Y-61588607D01*
X113438329Y-61570883D01*
X113424079Y-61551670D01*
X113411782Y-61531153D01*
X113401554Y-61509529D01*
X113393496Y-61487007D01*
X113387684Y-61463803D01*
X113384174Y-61440142D01*
X113383000Y-61416250D01*
X113383000Y-60503750D01*
X113384174Y-60479858D01*
X113387684Y-60456197D01*
X113393496Y-60432993D01*
X113401554Y-60410471D01*
X113411782Y-60388847D01*
X113424079Y-60368330D01*
X113438329Y-60349117D01*
X113454393Y-60331393D01*
X113472117Y-60315329D01*
X113491330Y-60301079D01*
X113511847Y-60288782D01*
X113533471Y-60278554D01*
X113555993Y-60270496D01*
X113579197Y-60264684D01*
X113602858Y-60261174D01*
X113626750Y-60260000D01*
X114114250Y-60260000D01*
X114138142Y-60261174D01*
X114138142Y-60261174D01*
G37*
D15*
X113870500Y-60960000D03*
D10*
G36*
X116013142Y-60261174D02*
X116036803Y-60264684D01*
X116060007Y-60270496D01*
X116082529Y-60278554D01*
X116104153Y-60288782D01*
X116124670Y-60301079D01*
X116143883Y-60315329D01*
X116161607Y-60331393D01*
X116177671Y-60349117D01*
X116191921Y-60368330D01*
X116204218Y-60388847D01*
X116214446Y-60410471D01*
X116222504Y-60432993D01*
X116228316Y-60456197D01*
X116231826Y-60479858D01*
X116233000Y-60503750D01*
X116233000Y-61416250D01*
X116231826Y-61440142D01*
X116228316Y-61463803D01*
X116222504Y-61487007D01*
X116214446Y-61509529D01*
X116204218Y-61531153D01*
X116191921Y-61551670D01*
X116177671Y-61570883D01*
X116161607Y-61588607D01*
X116143883Y-61604671D01*
X116124670Y-61618921D01*
X116104153Y-61631218D01*
X116082529Y-61641446D01*
X116060007Y-61649504D01*
X116036803Y-61655316D01*
X116013142Y-61658826D01*
X115989250Y-61660000D01*
X115501750Y-61660000D01*
X115477858Y-61658826D01*
X115454197Y-61655316D01*
X115430993Y-61649504D01*
X115408471Y-61641446D01*
X115386847Y-61631218D01*
X115366330Y-61618921D01*
X115347117Y-61604671D01*
X115329393Y-61588607D01*
X115313329Y-61570883D01*
X115299079Y-61551670D01*
X115286782Y-61531153D01*
X115276554Y-61509529D01*
X115268496Y-61487007D01*
X115262684Y-61463803D01*
X115259174Y-61440142D01*
X115258000Y-61416250D01*
X115258000Y-60503750D01*
X115259174Y-60479858D01*
X115262684Y-60456197D01*
X115268496Y-60432993D01*
X115276554Y-60410471D01*
X115286782Y-60388847D01*
X115299079Y-60368330D01*
X115313329Y-60349117D01*
X115329393Y-60331393D01*
X115347117Y-60315329D01*
X115366330Y-60301079D01*
X115386847Y-60288782D01*
X115408471Y-60278554D01*
X115430993Y-60270496D01*
X115454197Y-60264684D01*
X115477858Y-60261174D01*
X115501750Y-60260000D01*
X115989250Y-60260000D01*
X116013142Y-60261174D01*
X116013142Y-60261174D01*
G37*
D15*
X115745500Y-60960000D03*
G04 #@! TD*
D10*
G04 #@! TO.C,R13*
G36*
X127189142Y-77025174D02*
X127212803Y-77028684D01*
X127236007Y-77034496D01*
X127258529Y-77042554D01*
X127280153Y-77052782D01*
X127300670Y-77065079D01*
X127319883Y-77079329D01*
X127337607Y-77095393D01*
X127353671Y-77113117D01*
X127367921Y-77132330D01*
X127380218Y-77152847D01*
X127390446Y-77174471D01*
X127398504Y-77196993D01*
X127404316Y-77220197D01*
X127407826Y-77243858D01*
X127409000Y-77267750D01*
X127409000Y-78180250D01*
X127407826Y-78204142D01*
X127404316Y-78227803D01*
X127398504Y-78251007D01*
X127390446Y-78273529D01*
X127380218Y-78295153D01*
X127367921Y-78315670D01*
X127353671Y-78334883D01*
X127337607Y-78352607D01*
X127319883Y-78368671D01*
X127300670Y-78382921D01*
X127280153Y-78395218D01*
X127258529Y-78405446D01*
X127236007Y-78413504D01*
X127212803Y-78419316D01*
X127189142Y-78422826D01*
X127165250Y-78424000D01*
X126677750Y-78424000D01*
X126653858Y-78422826D01*
X126630197Y-78419316D01*
X126606993Y-78413504D01*
X126584471Y-78405446D01*
X126562847Y-78395218D01*
X126542330Y-78382921D01*
X126523117Y-78368671D01*
X126505393Y-78352607D01*
X126489329Y-78334883D01*
X126475079Y-78315670D01*
X126462782Y-78295153D01*
X126452554Y-78273529D01*
X126444496Y-78251007D01*
X126438684Y-78227803D01*
X126435174Y-78204142D01*
X126434000Y-78180250D01*
X126434000Y-77267750D01*
X126435174Y-77243858D01*
X126438684Y-77220197D01*
X126444496Y-77196993D01*
X126452554Y-77174471D01*
X126462782Y-77152847D01*
X126475079Y-77132330D01*
X126489329Y-77113117D01*
X126505393Y-77095393D01*
X126523117Y-77079329D01*
X126542330Y-77065079D01*
X126562847Y-77052782D01*
X126584471Y-77042554D01*
X126606993Y-77034496D01*
X126630197Y-77028684D01*
X126653858Y-77025174D01*
X126677750Y-77024000D01*
X127165250Y-77024000D01*
X127189142Y-77025174D01*
X127189142Y-77025174D01*
G37*
D15*
X126921500Y-77724000D03*
D10*
G36*
X125314142Y-77025174D02*
X125337803Y-77028684D01*
X125361007Y-77034496D01*
X125383529Y-77042554D01*
X125405153Y-77052782D01*
X125425670Y-77065079D01*
X125444883Y-77079329D01*
X125462607Y-77095393D01*
X125478671Y-77113117D01*
X125492921Y-77132330D01*
X125505218Y-77152847D01*
X125515446Y-77174471D01*
X125523504Y-77196993D01*
X125529316Y-77220197D01*
X125532826Y-77243858D01*
X125534000Y-77267750D01*
X125534000Y-78180250D01*
X125532826Y-78204142D01*
X125529316Y-78227803D01*
X125523504Y-78251007D01*
X125515446Y-78273529D01*
X125505218Y-78295153D01*
X125492921Y-78315670D01*
X125478671Y-78334883D01*
X125462607Y-78352607D01*
X125444883Y-78368671D01*
X125425670Y-78382921D01*
X125405153Y-78395218D01*
X125383529Y-78405446D01*
X125361007Y-78413504D01*
X125337803Y-78419316D01*
X125314142Y-78422826D01*
X125290250Y-78424000D01*
X124802750Y-78424000D01*
X124778858Y-78422826D01*
X124755197Y-78419316D01*
X124731993Y-78413504D01*
X124709471Y-78405446D01*
X124687847Y-78395218D01*
X124667330Y-78382921D01*
X124648117Y-78368671D01*
X124630393Y-78352607D01*
X124614329Y-78334883D01*
X124600079Y-78315670D01*
X124587782Y-78295153D01*
X124577554Y-78273529D01*
X124569496Y-78251007D01*
X124563684Y-78227803D01*
X124560174Y-78204142D01*
X124559000Y-78180250D01*
X124559000Y-77267750D01*
X124560174Y-77243858D01*
X124563684Y-77220197D01*
X124569496Y-77196993D01*
X124577554Y-77174471D01*
X124587782Y-77152847D01*
X124600079Y-77132330D01*
X124614329Y-77113117D01*
X124630393Y-77095393D01*
X124648117Y-77079329D01*
X124667330Y-77065079D01*
X124687847Y-77052782D01*
X124709471Y-77042554D01*
X124731993Y-77034496D01*
X124755197Y-77028684D01*
X124778858Y-77025174D01*
X124802750Y-77024000D01*
X125290250Y-77024000D01*
X125314142Y-77025174D01*
X125314142Y-77025174D01*
G37*
D15*
X125046500Y-77724000D03*
G04 #@! TD*
D10*
G04 #@! TO.C,R14*
G36*
X127189142Y-74485174D02*
X127212803Y-74488684D01*
X127236007Y-74494496D01*
X127258529Y-74502554D01*
X127280153Y-74512782D01*
X127300670Y-74525079D01*
X127319883Y-74539329D01*
X127337607Y-74555393D01*
X127353671Y-74573117D01*
X127367921Y-74592330D01*
X127380218Y-74612847D01*
X127390446Y-74634471D01*
X127398504Y-74656993D01*
X127404316Y-74680197D01*
X127407826Y-74703858D01*
X127409000Y-74727750D01*
X127409000Y-75640250D01*
X127407826Y-75664142D01*
X127404316Y-75687803D01*
X127398504Y-75711007D01*
X127390446Y-75733529D01*
X127380218Y-75755153D01*
X127367921Y-75775670D01*
X127353671Y-75794883D01*
X127337607Y-75812607D01*
X127319883Y-75828671D01*
X127300670Y-75842921D01*
X127280153Y-75855218D01*
X127258529Y-75865446D01*
X127236007Y-75873504D01*
X127212803Y-75879316D01*
X127189142Y-75882826D01*
X127165250Y-75884000D01*
X126677750Y-75884000D01*
X126653858Y-75882826D01*
X126630197Y-75879316D01*
X126606993Y-75873504D01*
X126584471Y-75865446D01*
X126562847Y-75855218D01*
X126542330Y-75842921D01*
X126523117Y-75828671D01*
X126505393Y-75812607D01*
X126489329Y-75794883D01*
X126475079Y-75775670D01*
X126462782Y-75755153D01*
X126452554Y-75733529D01*
X126444496Y-75711007D01*
X126438684Y-75687803D01*
X126435174Y-75664142D01*
X126434000Y-75640250D01*
X126434000Y-74727750D01*
X126435174Y-74703858D01*
X126438684Y-74680197D01*
X126444496Y-74656993D01*
X126452554Y-74634471D01*
X126462782Y-74612847D01*
X126475079Y-74592330D01*
X126489329Y-74573117D01*
X126505393Y-74555393D01*
X126523117Y-74539329D01*
X126542330Y-74525079D01*
X126562847Y-74512782D01*
X126584471Y-74502554D01*
X126606993Y-74494496D01*
X126630197Y-74488684D01*
X126653858Y-74485174D01*
X126677750Y-74484000D01*
X127165250Y-74484000D01*
X127189142Y-74485174D01*
X127189142Y-74485174D01*
G37*
D15*
X126921500Y-75184000D03*
D10*
G36*
X125314142Y-74485174D02*
X125337803Y-74488684D01*
X125361007Y-74494496D01*
X125383529Y-74502554D01*
X125405153Y-74512782D01*
X125425670Y-74525079D01*
X125444883Y-74539329D01*
X125462607Y-74555393D01*
X125478671Y-74573117D01*
X125492921Y-74592330D01*
X125505218Y-74612847D01*
X125515446Y-74634471D01*
X125523504Y-74656993D01*
X125529316Y-74680197D01*
X125532826Y-74703858D01*
X125534000Y-74727750D01*
X125534000Y-75640250D01*
X125532826Y-75664142D01*
X125529316Y-75687803D01*
X125523504Y-75711007D01*
X125515446Y-75733529D01*
X125505218Y-75755153D01*
X125492921Y-75775670D01*
X125478671Y-75794883D01*
X125462607Y-75812607D01*
X125444883Y-75828671D01*
X125425670Y-75842921D01*
X125405153Y-75855218D01*
X125383529Y-75865446D01*
X125361007Y-75873504D01*
X125337803Y-75879316D01*
X125314142Y-75882826D01*
X125290250Y-75884000D01*
X124802750Y-75884000D01*
X124778858Y-75882826D01*
X124755197Y-75879316D01*
X124731993Y-75873504D01*
X124709471Y-75865446D01*
X124687847Y-75855218D01*
X124667330Y-75842921D01*
X124648117Y-75828671D01*
X124630393Y-75812607D01*
X124614329Y-75794883D01*
X124600079Y-75775670D01*
X124587782Y-75755153D01*
X124577554Y-75733529D01*
X124569496Y-75711007D01*
X124563684Y-75687803D01*
X124560174Y-75664142D01*
X124559000Y-75640250D01*
X124559000Y-74727750D01*
X124560174Y-74703858D01*
X124563684Y-74680197D01*
X124569496Y-74656993D01*
X124577554Y-74634471D01*
X124587782Y-74612847D01*
X124600079Y-74592330D01*
X124614329Y-74573117D01*
X124630393Y-74555393D01*
X124648117Y-74539329D01*
X124667330Y-74525079D01*
X124687847Y-74512782D01*
X124709471Y-74502554D01*
X124731993Y-74494496D01*
X124755197Y-74488684D01*
X124778858Y-74485174D01*
X124802750Y-74484000D01*
X125290250Y-74484000D01*
X125314142Y-74485174D01*
X125314142Y-74485174D01*
G37*
D15*
X125046500Y-75184000D03*
G04 #@! TD*
D10*
G04 #@! TO.C,SC1*
G36*
X105954504Y-43995204D02*
X105978773Y-43998804D01*
X106002571Y-44004765D01*
X106025671Y-44013030D01*
X106047849Y-44023520D01*
X106068893Y-44036133D01*
X106088598Y-44050747D01*
X106106777Y-44067223D01*
X106123253Y-44085402D01*
X106137867Y-44105107D01*
X106150480Y-44126151D01*
X106160970Y-44148329D01*
X106169235Y-44171429D01*
X106175196Y-44195227D01*
X106178796Y-44219496D01*
X106180000Y-44244000D01*
X106180000Y-49244000D01*
X106178796Y-49268504D01*
X106175196Y-49292773D01*
X106169235Y-49316571D01*
X106160970Y-49339671D01*
X106150480Y-49361849D01*
X106137867Y-49382893D01*
X106123253Y-49402598D01*
X106106777Y-49420777D01*
X106088598Y-49437253D01*
X106068893Y-49451867D01*
X106047849Y-49464480D01*
X106025671Y-49474970D01*
X106002571Y-49483235D01*
X105978773Y-49489196D01*
X105954504Y-49492796D01*
X105930000Y-49494000D01*
X105430000Y-49494000D01*
X105405496Y-49492796D01*
X105381227Y-49489196D01*
X105357429Y-49483235D01*
X105334329Y-49474970D01*
X105312151Y-49464480D01*
X105291107Y-49451867D01*
X105271402Y-49437253D01*
X105253223Y-49420777D01*
X105236747Y-49402598D01*
X105222133Y-49382893D01*
X105209520Y-49361849D01*
X105199030Y-49339671D01*
X105190765Y-49316571D01*
X105184804Y-49292773D01*
X105181204Y-49268504D01*
X105180000Y-49244000D01*
X105180000Y-44244000D01*
X105181204Y-44219496D01*
X105184804Y-44195227D01*
X105190765Y-44171429D01*
X105199030Y-44148329D01*
X105209520Y-44126151D01*
X105222133Y-44105107D01*
X105236747Y-44085402D01*
X105253223Y-44067223D01*
X105271402Y-44050747D01*
X105291107Y-44036133D01*
X105312151Y-44023520D01*
X105334329Y-44013030D01*
X105357429Y-44004765D01*
X105381227Y-43998804D01*
X105405496Y-43995204D01*
X105430000Y-43994000D01*
X105930000Y-43994000D01*
X105954504Y-43995204D01*
X105954504Y-43995204D01*
G37*
D11*
X105680000Y-46744000D03*
D10*
G36*
X107954504Y-43995204D02*
X107978773Y-43998804D01*
X108002571Y-44004765D01*
X108025671Y-44013030D01*
X108047849Y-44023520D01*
X108068893Y-44036133D01*
X108088598Y-44050747D01*
X108106777Y-44067223D01*
X108123253Y-44085402D01*
X108137867Y-44105107D01*
X108150480Y-44126151D01*
X108160970Y-44148329D01*
X108169235Y-44171429D01*
X108175196Y-44195227D01*
X108178796Y-44219496D01*
X108180000Y-44244000D01*
X108180000Y-49244000D01*
X108178796Y-49268504D01*
X108175196Y-49292773D01*
X108169235Y-49316571D01*
X108160970Y-49339671D01*
X108150480Y-49361849D01*
X108137867Y-49382893D01*
X108123253Y-49402598D01*
X108106777Y-49420777D01*
X108088598Y-49437253D01*
X108068893Y-49451867D01*
X108047849Y-49464480D01*
X108025671Y-49474970D01*
X108002571Y-49483235D01*
X107978773Y-49489196D01*
X107954504Y-49492796D01*
X107930000Y-49494000D01*
X107430000Y-49494000D01*
X107405496Y-49492796D01*
X107381227Y-49489196D01*
X107357429Y-49483235D01*
X107334329Y-49474970D01*
X107312151Y-49464480D01*
X107291107Y-49451867D01*
X107271402Y-49437253D01*
X107253223Y-49420777D01*
X107236747Y-49402598D01*
X107222133Y-49382893D01*
X107209520Y-49361849D01*
X107199030Y-49339671D01*
X107190765Y-49316571D01*
X107184804Y-49292773D01*
X107181204Y-49268504D01*
X107180000Y-49244000D01*
X107180000Y-44244000D01*
X107181204Y-44219496D01*
X107184804Y-44195227D01*
X107190765Y-44171429D01*
X107199030Y-44148329D01*
X107209520Y-44126151D01*
X107222133Y-44105107D01*
X107236747Y-44085402D01*
X107253223Y-44067223D01*
X107271402Y-44050747D01*
X107291107Y-44036133D01*
X107312151Y-44023520D01*
X107334329Y-44013030D01*
X107357429Y-44004765D01*
X107381227Y-43998804D01*
X107405496Y-43995204D01*
X107430000Y-43994000D01*
X107930000Y-43994000D01*
X107954504Y-43995204D01*
X107954504Y-43995204D01*
G37*
D11*
X107680000Y-46744000D03*
D10*
G36*
X103854504Y-47495204D02*
X103878773Y-47498804D01*
X103902571Y-47504765D01*
X103925671Y-47513030D01*
X103947849Y-47523520D01*
X103968893Y-47536133D01*
X103988598Y-47550747D01*
X104006777Y-47567223D01*
X104023253Y-47585402D01*
X104037867Y-47605107D01*
X104050480Y-47626151D01*
X104060970Y-47648329D01*
X104069235Y-47671429D01*
X104075196Y-47695227D01*
X104078796Y-47719496D01*
X104080000Y-47744000D01*
X104080000Y-50244000D01*
X104078796Y-50268504D01*
X104075196Y-50292773D01*
X104069235Y-50316571D01*
X104060970Y-50339671D01*
X104050480Y-50361849D01*
X104037867Y-50382893D01*
X104023253Y-50402598D01*
X104006777Y-50420777D01*
X103988598Y-50437253D01*
X103968893Y-50451867D01*
X103947849Y-50464480D01*
X103925671Y-50474970D01*
X103902571Y-50483235D01*
X103878773Y-50489196D01*
X103854504Y-50492796D01*
X103830000Y-50494000D01*
X102730000Y-50494000D01*
X102705496Y-50492796D01*
X102681227Y-50489196D01*
X102657429Y-50483235D01*
X102634329Y-50474970D01*
X102612151Y-50464480D01*
X102591107Y-50451867D01*
X102571402Y-50437253D01*
X102553223Y-50420777D01*
X102536747Y-50402598D01*
X102522133Y-50382893D01*
X102509520Y-50361849D01*
X102499030Y-50339671D01*
X102490765Y-50316571D01*
X102484804Y-50292773D01*
X102481204Y-50268504D01*
X102480000Y-50244000D01*
X102480000Y-47744000D01*
X102481204Y-47719496D01*
X102484804Y-47695227D01*
X102490765Y-47671429D01*
X102499030Y-47648329D01*
X102509520Y-47626151D01*
X102522133Y-47605107D01*
X102536747Y-47585402D01*
X102553223Y-47567223D01*
X102571402Y-47550747D01*
X102591107Y-47536133D01*
X102612151Y-47523520D01*
X102634329Y-47513030D01*
X102657429Y-47504765D01*
X102681227Y-47498804D01*
X102705496Y-47495204D01*
X102730000Y-47494000D01*
X103830000Y-47494000D01*
X103854504Y-47495204D01*
X103854504Y-47495204D01*
G37*
D12*
X103280000Y-48994000D03*
D10*
G36*
X110654504Y-47495204D02*
X110678773Y-47498804D01*
X110702571Y-47504765D01*
X110725671Y-47513030D01*
X110747849Y-47523520D01*
X110768893Y-47536133D01*
X110788598Y-47550747D01*
X110806777Y-47567223D01*
X110823253Y-47585402D01*
X110837867Y-47605107D01*
X110850480Y-47626151D01*
X110860970Y-47648329D01*
X110869235Y-47671429D01*
X110875196Y-47695227D01*
X110878796Y-47719496D01*
X110880000Y-47744000D01*
X110880000Y-50244000D01*
X110878796Y-50268504D01*
X110875196Y-50292773D01*
X110869235Y-50316571D01*
X110860970Y-50339671D01*
X110850480Y-50361849D01*
X110837867Y-50382893D01*
X110823253Y-50402598D01*
X110806777Y-50420777D01*
X110788598Y-50437253D01*
X110768893Y-50451867D01*
X110747849Y-50464480D01*
X110725671Y-50474970D01*
X110702571Y-50483235D01*
X110678773Y-50489196D01*
X110654504Y-50492796D01*
X110630000Y-50494000D01*
X109530000Y-50494000D01*
X109505496Y-50492796D01*
X109481227Y-50489196D01*
X109457429Y-50483235D01*
X109434329Y-50474970D01*
X109412151Y-50464480D01*
X109391107Y-50451867D01*
X109371402Y-50437253D01*
X109353223Y-50420777D01*
X109336747Y-50402598D01*
X109322133Y-50382893D01*
X109309520Y-50361849D01*
X109299030Y-50339671D01*
X109290765Y-50316571D01*
X109284804Y-50292773D01*
X109281204Y-50268504D01*
X109280000Y-50244000D01*
X109280000Y-47744000D01*
X109281204Y-47719496D01*
X109284804Y-47695227D01*
X109290765Y-47671429D01*
X109299030Y-47648329D01*
X109309520Y-47626151D01*
X109322133Y-47605107D01*
X109336747Y-47585402D01*
X109353223Y-47567223D01*
X109371402Y-47550747D01*
X109391107Y-47536133D01*
X109412151Y-47523520D01*
X109434329Y-47513030D01*
X109457429Y-47504765D01*
X109481227Y-47498804D01*
X109505496Y-47495204D01*
X109530000Y-47494000D01*
X110630000Y-47494000D01*
X110654504Y-47495204D01*
X110654504Y-47495204D01*
G37*
D12*
X110080000Y-48994000D03*
G04 #@! TD*
D16*
G04 #@! TO.C,J4*
X116078000Y-48006000D03*
D17*
X113538000Y-48006000D03*
G04 #@! TD*
D10*
G04 #@! TO.C,D5*
G36*
X114123505Y-53403204D02*
X114147773Y-53406804D01*
X114171572Y-53412765D01*
X114194671Y-53421030D01*
X114216850Y-53431520D01*
X114237893Y-53444132D01*
X114257599Y-53458747D01*
X114275777Y-53475223D01*
X114292253Y-53493401D01*
X114306868Y-53513107D01*
X114319480Y-53534150D01*
X114329970Y-53556329D01*
X114338235Y-53579428D01*
X114344196Y-53603227D01*
X114347796Y-53627495D01*
X114349000Y-53651999D01*
X114349000Y-54552001D01*
X114347796Y-54576505D01*
X114344196Y-54600773D01*
X114338235Y-54624572D01*
X114329970Y-54647671D01*
X114319480Y-54669850D01*
X114306868Y-54690893D01*
X114292253Y-54710599D01*
X114275777Y-54728777D01*
X114257599Y-54745253D01*
X114237893Y-54759868D01*
X114216850Y-54772480D01*
X114194671Y-54782970D01*
X114171572Y-54791235D01*
X114147773Y-54797196D01*
X114123505Y-54800796D01*
X114099001Y-54802000D01*
X113448999Y-54802000D01*
X113424495Y-54800796D01*
X113400227Y-54797196D01*
X113376428Y-54791235D01*
X113353329Y-54782970D01*
X113331150Y-54772480D01*
X113310107Y-54759868D01*
X113290401Y-54745253D01*
X113272223Y-54728777D01*
X113255747Y-54710599D01*
X113241132Y-54690893D01*
X113228520Y-54669850D01*
X113218030Y-54647671D01*
X113209765Y-54624572D01*
X113203804Y-54600773D01*
X113200204Y-54576505D01*
X113199000Y-54552001D01*
X113199000Y-53651999D01*
X113200204Y-53627495D01*
X113203804Y-53603227D01*
X113209765Y-53579428D01*
X113218030Y-53556329D01*
X113228520Y-53534150D01*
X113241132Y-53513107D01*
X113255747Y-53493401D01*
X113272223Y-53475223D01*
X113290401Y-53458747D01*
X113310107Y-53444132D01*
X113331150Y-53431520D01*
X113353329Y-53421030D01*
X113376428Y-53412765D01*
X113400227Y-53406804D01*
X113424495Y-53403204D01*
X113448999Y-53402000D01*
X114099001Y-53402000D01*
X114123505Y-53403204D01*
X114123505Y-53403204D01*
G37*
D18*
X113774000Y-54102000D03*
D10*
G36*
X116173505Y-53403204D02*
X116197773Y-53406804D01*
X116221572Y-53412765D01*
X116244671Y-53421030D01*
X116266850Y-53431520D01*
X116287893Y-53444132D01*
X116307599Y-53458747D01*
X116325777Y-53475223D01*
X116342253Y-53493401D01*
X116356868Y-53513107D01*
X116369480Y-53534150D01*
X116379970Y-53556329D01*
X116388235Y-53579428D01*
X116394196Y-53603227D01*
X116397796Y-53627495D01*
X116399000Y-53651999D01*
X116399000Y-54552001D01*
X116397796Y-54576505D01*
X116394196Y-54600773D01*
X116388235Y-54624572D01*
X116379970Y-54647671D01*
X116369480Y-54669850D01*
X116356868Y-54690893D01*
X116342253Y-54710599D01*
X116325777Y-54728777D01*
X116307599Y-54745253D01*
X116287893Y-54759868D01*
X116266850Y-54772480D01*
X116244671Y-54782970D01*
X116221572Y-54791235D01*
X116197773Y-54797196D01*
X116173505Y-54800796D01*
X116149001Y-54802000D01*
X115498999Y-54802000D01*
X115474495Y-54800796D01*
X115450227Y-54797196D01*
X115426428Y-54791235D01*
X115403329Y-54782970D01*
X115381150Y-54772480D01*
X115360107Y-54759868D01*
X115340401Y-54745253D01*
X115322223Y-54728777D01*
X115305747Y-54710599D01*
X115291132Y-54690893D01*
X115278520Y-54669850D01*
X115268030Y-54647671D01*
X115259765Y-54624572D01*
X115253804Y-54600773D01*
X115250204Y-54576505D01*
X115249000Y-54552001D01*
X115249000Y-53651999D01*
X115250204Y-53627495D01*
X115253804Y-53603227D01*
X115259765Y-53579428D01*
X115268030Y-53556329D01*
X115278520Y-53534150D01*
X115291132Y-53513107D01*
X115305747Y-53493401D01*
X115322223Y-53475223D01*
X115340401Y-53458747D01*
X115360107Y-53444132D01*
X115381150Y-53431520D01*
X115403329Y-53421030D01*
X115426428Y-53412765D01*
X115450227Y-53406804D01*
X115474495Y-53403204D01*
X115498999Y-53402000D01*
X116149001Y-53402000D01*
X116173505Y-53403204D01*
X116173505Y-53403204D01*
G37*
D18*
X115824000Y-54102000D03*
G04 #@! TD*
D19*
G04 #@! TO.C,J3*
X113284000Y-85975000D03*
X118364000Y-85975000D03*
X110744000Y-89285000D03*
X115824000Y-89285000D03*
X120904000Y-89285000D03*
G04 #@! TD*
D16*
G04 #@! TO.C,SW3*
X103886000Y-81280000D03*
D17*
X103886000Y-83820000D03*
G04 #@! TD*
M02*
