M48
;DRILL file {KiCad (5.0.1)-4} date 10/11/2019 23:47:21
;FORMAT={-:-/ absolute / inch / decimal}
FMAT,2
INCH,TZ
T1C0.0157
T2C0.0236
T3C0.0300
T4C0.0335
T5C0.0394
T6C0.0787
%
G90
G05
M72
T1
X4.0611Y-2.4629
X4.0756Y-3.4047
X4.0975Y-1.765
X4.1271Y-3.3838
X4.156Y-2.2014
X4.1675Y-3.2307
X4.1897Y-2.7753
X4.1923Y-2.3487
X4.2Y-2.4
X4.2143Y-2.7191
X4.2146Y-2.6495
X4.2185Y-2.8443
X4.2285Y-3.0044
X4.2339Y-2.9429
X4.2463Y-2.0056
X4.2528Y-2.3329
X4.2625Y-2.915
X4.2628Y-3.0569
X4.29Y-2.3925
X4.305Y-2.85
X4.3217Y-3.056
X4.3352Y-2.4116
X4.336Y-2.7635
X4.3441Y-2.926
X4.3497Y-2.5989
X4.3575Y-3.2825
X4.384Y-2.2466
X4.3883Y-3.1385
X4.394Y-2.6527
X4.4019Y-1.8143
X4.4268Y-2.4491
X4.4305Y-3.0204
X4.441Y-2.9377
X4.4625Y-1.975
X4.4625Y-3.3725
X4.4661Y-2.5236
X4.4725Y-2.6325
X4.4826Y-2.3294
X4.5072Y-2.7753
X4.5364Y-2.0225
X4.5425Y-1.785
X4.5519Y-2.7329
X4.5549Y-3.3051
X4.5552Y-2.4559
X4.5625Y-2.659
X4.6022Y-2.2506
X4.604Y-3.181
X4.605Y-2.7625
X4.6151Y-2.294
X4.634Y-2.934
X4.6481Y-2.3496
X4.6497Y-1.8719
X4.6744Y-3.0645
X4.675Y-2.8654
X4.6775Y-1.8019
X4.6775Y-2.4875
X4.6895Y-2.5993
X4.7213Y-3.3438
X4.725Y-2.762
X4.725Y-2.762
X4.7361Y-2.6425
X4.75Y-2.5404
X4.7654Y-2.95
X4.775Y-2.8619
X4.7786Y-2.0148
X4.798Y-2.153
X4.804Y-3.246
X4.808Y-2.47
X4.8095Y-2.9794
X4.8096Y-2.675
X4.8185Y-2.0056
X4.8185Y-2.091
X4.8227Y-2.5538
X4.823Y-3.0794
X4.8275Y-1.6775
X4.829Y-2.8686
X4.8347Y-2.2271
X4.8406Y-3.15
X4.8452Y-2.7506
X4.85Y-1.9575
X4.8534Y-3.2541
X4.862Y-3.472
X4.8648Y-2.4183
X4.882Y-2.989
X4.887Y-3.228
X4.9006Y-2.3654
X4.921Y-1.967
X4.9315Y-2.0809
X4.9315Y-2.4263
X4.9388Y-1.697
X4.9392Y-1.8545
X4.9475Y-2.8475
X4.9517Y-2.7474
X4.954Y-3.086
X4.9659Y-3.3915
X4.979Y-2.037
X4.9825Y-2.9
X4.9871Y-3.2556
X4.9875Y-2.785
X4.9994Y-3.3925
X5.Y-2.2429
X5.0018Y-2.3524
X5.025Y-2.6025
X5.0489Y-3.08
X5.05Y-2.762
X5.0619Y-3.369
X5.0712Y-3.1855
T3
X4.395Y-1.74
X4.495Y-1.74
X4.595Y-1.74
X4.695Y-1.74
T4
X4.1676Y-2.8266
X4.1676Y-3.0234
T5
X4.075Y-1.55
T6
X4.0741Y-2.6809
X5.015Y-2.6809
T2
X4.0475Y-2.7872G85X4.0751Y-2.7872
G05
X4.0751Y-3.0628G85X4.0475Y-3.0628
G05
T0
M30
