G04 #@! TF.GenerationSoftware,KiCad,Pcbnew,(5.0.1)-4*
G04 #@! TF.CreationDate,2019-11-10T23:47:17+01:00*
G04 #@! TF.ProjectId,rak4260,72616B343236302E6B696361645F7063,0.3*
G04 #@! TF.SameCoordinates,Original*
G04 #@! TF.FileFunction,Legend,Top*
G04 #@! TF.FilePolarity,Positive*
%FSLAX46Y46*%
G04 Gerber Fmt 4.6, Leading zero omitted, Abs format (unit mm)*
G04 Created by KiCad (PCBNEW (5.0.1)-4) date 10/11/2019 23:47:17*
%MOMM*%
%LPD*%
G01*
G04 APERTURE LIST*
%ADD10C,0.150000*%
%ADD11C,0.120000*%
%ADD12C,0.203200*%
%ADD13C,0.100000*%
%ADD14C,0.050000*%
%ADD15C,0.070000*%
%ADD16C,0.080000*%
G04 APERTURE END LIST*
D10*
G04 #@! TO.C,U1*
X104140000Y-63500000D02*
X119140000Y-63500000D01*
X119140000Y-63500000D02*
X119140000Y-48500000D01*
X119140000Y-48500000D02*
X105140000Y-48500000D01*
X105140000Y-48500000D02*
X104140000Y-49500000D01*
X104140000Y-49500000D02*
X104140000Y-63500000D01*
X106100000Y-48510000D02*
X106100000Y-48380000D01*
D11*
G04 #@! TO.C,AE1*
X102175000Y-40700000D02*
X104835000Y-40700000D01*
X102175000Y-40640000D02*
X102175000Y-40700000D01*
X104835000Y-40640000D02*
X104835000Y-40700000D01*
X102175000Y-40640000D02*
X104835000Y-40640000D01*
X102175000Y-39370000D02*
X102175000Y-38040000D01*
X102175000Y-38040000D02*
X103505000Y-38040000D01*
G04 #@! TO.C,C1*
X102160000Y-44188748D02*
X102160000Y-44711252D01*
X103580000Y-44188748D02*
X103580000Y-44711252D01*
G04 #@! TO.C,C3*
X106120000Y-44188748D02*
X106120000Y-44711252D01*
X104700000Y-44188748D02*
X104700000Y-44711252D01*
G04 #@! TO.C,C4*
X106605000Y-44711252D02*
X106605000Y-44188748D01*
X108025000Y-44711252D02*
X108025000Y-44188748D01*
G04 #@! TO.C,J1*
X106156500Y-70395000D02*
X106156500Y-70845000D01*
X104306500Y-70395000D02*
X106156500Y-70395000D01*
X101756500Y-78195000D02*
X102006500Y-78195000D01*
X101756500Y-70395000D02*
X102006500Y-70395000D01*
X104306500Y-78195000D02*
X106156500Y-78195000D01*
X106156500Y-78195000D02*
X106156500Y-77745000D01*
X106706500Y-72595000D02*
X106706500Y-73045000D01*
X106706500Y-72595000D02*
X106256500Y-72595000D01*
G04 #@! TO.C,R1*
X117851422Y-67235000D02*
X118368578Y-67235000D01*
X117851422Y-68655000D02*
X118368578Y-68655000D01*
G04 #@! TO.C,R2*
X113923578Y-67235000D02*
X113406422Y-67235000D01*
X113923578Y-68655000D02*
X113406422Y-68655000D01*
G04 #@! TO.C,R3*
X109810578Y-68655000D02*
X109293422Y-68655000D01*
X109810578Y-67235000D02*
X109293422Y-67235000D01*
G04 #@! TO.C,SW1*
X123826000Y-73490000D02*
X123826000Y-73790000D01*
X123826000Y-73790000D02*
X127126000Y-73790000D01*
X127126000Y-73790000D02*
X127126000Y-73490000D01*
X123826000Y-71290000D02*
X123826000Y-70990000D01*
X123826000Y-70990000D02*
X127126000Y-70990000D01*
X127126000Y-70990000D02*
X127126000Y-71290000D01*
G04 #@! TO.C,SW2*
X114950000Y-82510000D02*
X115950000Y-82510000D01*
X115450000Y-82010000D02*
X115450000Y-83010000D01*
X121550000Y-86010000D02*
X121550000Y-88410000D01*
X121550000Y-81210000D02*
X121550000Y-83810000D01*
X121550000Y-76610000D02*
X121550000Y-79010000D01*
X108250000Y-78410000D02*
X107950000Y-78710000D01*
X107650000Y-78410000D02*
X108250000Y-78410000D01*
X107950000Y-78710000D02*
X107650000Y-78410000D01*
X109350000Y-76610000D02*
X109350000Y-88410000D01*
X113450000Y-76610000D02*
X109350000Y-76610000D01*
X113450000Y-88410000D02*
X109350000Y-88410000D01*
X121550000Y-88410000D02*
X117450000Y-88410000D01*
X117450000Y-76610000D02*
X121550000Y-76610000D01*
X118450000Y-82510000D02*
G75*
G03X118450000Y-82510000I-3000000J0D01*
G01*
G04 #@! TO.C,C2*
X122928748Y-67235000D02*
X123451252Y-67235000D01*
X122928748Y-68655000D02*
X123451252Y-68655000D01*
D10*
G04 #@! TO.C,LCD1*
X128905000Y-42672000D02*
X128905000Y-69596000D01*
X101981000Y-42672000D02*
X128905000Y-42672000D01*
X101981000Y-69596000D02*
X101981000Y-42672000D01*
X128516923Y-44196000D02*
G75*
G03X128516923Y-44196000I-1135923J0D01*
G01*
X104640923Y-44196000D02*
G75*
G03X104640923Y-44196000I-1135923J0D01*
G01*
X104640923Y-68072000D02*
G75*
G03X104640923Y-68072000I-1135923J0D01*
G01*
X128516923Y-68072000D02*
G75*
G03X128516923Y-68072000I-1135923J0D01*
G01*
X101981000Y-65532000D02*
X101981000Y-47244000D01*
X128905000Y-65532000D02*
X101981000Y-65532000D01*
X128905000Y-47244000D02*
X128905000Y-65532000D01*
X101981000Y-47244000D02*
X128905000Y-47244000D01*
X102997000Y-59944000D02*
X102997000Y-49276000D01*
X127889000Y-59944000D02*
X102997000Y-59944000D01*
X127889000Y-49276000D02*
X127889000Y-59944000D01*
X102997000Y-49276000D02*
X127889000Y-49276000D01*
X123317000Y-68580000D02*
X123317000Y-69596000D01*
X107061000Y-68580000D02*
X123317000Y-68580000D01*
X107061000Y-69596000D02*
X107061000Y-68580000D01*
X101981000Y-69596000D02*
X107061000Y-69596000D01*
X123317000Y-69596000D02*
X128905000Y-69596000D01*
D11*
G04 #@! TO.C,C5*
X110751252Y-74855000D02*
X110228748Y-74855000D01*
X110751252Y-76275000D02*
X110228748Y-76275000D01*
G04 #@! TO.C,C6*
X108660000Y-88003748D02*
X108660000Y-88526252D01*
X107240000Y-88003748D02*
X107240000Y-88526252D01*
G04 #@! TO.C,C7*
X112955000Y-72016252D02*
X112955000Y-71493748D01*
X114375000Y-72016252D02*
X114375000Y-71493748D01*
G04 #@! TO.C,C8*
X116915000Y-72651252D02*
X116915000Y-72128748D01*
X115495000Y-72651252D02*
X115495000Y-72128748D01*
G04 #@! TO.C,C9*
X119753748Y-75640000D02*
X120276252Y-75640000D01*
X119753748Y-74220000D02*
X120276252Y-74220000D01*
G04 #@! TO.C,C10*
X119940000Y-63761252D02*
X119940000Y-63238748D01*
X121360000Y-63761252D02*
X121360000Y-63238748D01*
D12*
G04 #@! TO.C,D1*
X103140000Y-84850000D02*
X102690000Y-84850000D01*
X102690000Y-84850000D02*
X102690000Y-80250000D01*
X102690000Y-80250000D02*
X103140000Y-80250000D01*
X105140000Y-80250000D02*
X105590000Y-80250000D01*
X105590000Y-80250000D02*
X105590000Y-84850000D01*
X105590000Y-84850000D02*
X105140000Y-84850000D01*
D11*
G04 #@! TO.C,R4*
X126496578Y-76910000D02*
X125979422Y-76910000D01*
X126496578Y-75490000D02*
X125979422Y-75490000D01*
G04 #@! TO.C,R5*
X104215000Y-65028578D02*
X104215000Y-64511422D01*
X102795000Y-65028578D02*
X102795000Y-64511422D01*
G04 #@! TO.C,R6*
X124535000Y-52328578D02*
X124535000Y-51811422D01*
X123115000Y-52328578D02*
X123115000Y-51811422D01*
G04 #@! TO.C,R7*
X121845000Y-45343578D02*
X121845000Y-44826422D01*
X123265000Y-45343578D02*
X123265000Y-44826422D01*
G04 #@! TO.C,R8*
X120575000Y-72013578D02*
X120575000Y-71496422D01*
X121995000Y-72013578D02*
X121995000Y-71496422D01*
G04 #@! TO.C,R9*
X125170000Y-45343578D02*
X125170000Y-44826422D01*
X123750000Y-45343578D02*
X123750000Y-44826422D01*
G04 #@! TO.C,R10*
X124201422Y-65330000D02*
X124718578Y-65330000D01*
X124201422Y-66750000D02*
X124718578Y-66750000D01*
G04 #@! TO.C,R11*
X127710000Y-45343578D02*
X127710000Y-44826422D01*
X126290000Y-45343578D02*
X126290000Y-44826422D01*
G04 #@! TO.C,U2*
X109590000Y-74000000D02*
X111390000Y-74000000D01*
X111390000Y-70780000D02*
X108940000Y-70780000D01*
D13*
G04 #@! TO.C,U3*
X122845000Y-64160000D02*
X122845000Y-64310000D01*
X122445000Y-63760000D02*
X122845000Y-64160000D01*
X122445000Y-63510000D02*
X122445000Y-63760000D01*
X122445000Y-57810000D02*
X122795000Y-57810000D01*
X122445000Y-58360000D02*
X122445000Y-57810000D01*
X127745000Y-57810000D02*
X127745000Y-58360000D01*
X127395000Y-57810000D02*
X127745000Y-57810000D01*
X127745000Y-64110000D02*
X127745000Y-63510000D01*
X127445000Y-64110000D02*
X127745000Y-64110000D01*
D11*
G04 #@! TO.C,D2*
X117785000Y-69895000D02*
X117785000Y-72755000D01*
X119705000Y-69895000D02*
X117785000Y-69895000D01*
X119705000Y-72755000D02*
X119705000Y-69895000D01*
G04 #@! TO.C,D3*
X121722000Y-39132000D02*
X121722000Y-41992000D01*
X121722000Y-41992000D02*
X123642000Y-41992000D01*
X123642000Y-41992000D02*
X123642000Y-39132000D01*
D10*
G04 #@! TO.C,IC1*
X125396000Y-79542000D02*
X126396000Y-79542000D01*
X125396000Y-79542000D02*
X125246000Y-79692000D01*
X125246000Y-84542000D02*
X125246000Y-84392000D01*
X128246000Y-84542000D02*
X128246000Y-84392000D01*
X128246000Y-84542000D02*
X127096000Y-84542000D01*
X125246000Y-84542000D02*
X126396000Y-84542000D01*
X128246000Y-79542000D02*
X128246000Y-79692000D01*
X128246000Y-79542000D02*
X127096000Y-79542000D01*
D14*
G36*
X125246000Y-79442000D02*
X124946000Y-79742000D01*
X124946000Y-79442000D01*
X125246000Y-79442000D01*
G37*
X125246000Y-79442000D02*
X124946000Y-79742000D01*
X124946000Y-79442000D01*
X125246000Y-79442000D01*
G04 #@! TO.C,U1*
D13*
X109637142Y-57138571D02*
X109637142Y-57672857D01*
X109668571Y-57735714D01*
X109700000Y-57767142D01*
X109762857Y-57798571D01*
X109888571Y-57798571D01*
X109951428Y-57767142D01*
X109982857Y-57735714D01*
X110014285Y-57672857D01*
X110014285Y-57138571D01*
X110674285Y-57798571D02*
X110297142Y-57798571D01*
X110485714Y-57798571D02*
X110485714Y-57138571D01*
X110422857Y-57232857D01*
X110360000Y-57295714D01*
X110297142Y-57327142D01*
X109474285Y-56798571D02*
X109254285Y-56484285D01*
X109097142Y-56798571D02*
X109097142Y-56138571D01*
X109348571Y-56138571D01*
X109411428Y-56170000D01*
X109442857Y-56201428D01*
X109474285Y-56264285D01*
X109474285Y-56358571D01*
X109442857Y-56421428D01*
X109411428Y-56452857D01*
X109348571Y-56484285D01*
X109097142Y-56484285D01*
X109725714Y-56610000D02*
X110040000Y-56610000D01*
X109662857Y-56798571D02*
X109882857Y-56138571D01*
X110102857Y-56798571D01*
X110322857Y-56798571D02*
X110322857Y-56138571D01*
X110700000Y-56798571D02*
X110417142Y-56421428D01*
X110700000Y-56138571D02*
X110322857Y-56515714D01*
X111265714Y-56358571D02*
X111265714Y-56798571D01*
X111108571Y-56107142D02*
X110951428Y-56578571D01*
X111360000Y-56578571D01*
X111580000Y-56201428D02*
X111611428Y-56170000D01*
X111674285Y-56138571D01*
X111831428Y-56138571D01*
X111894285Y-56170000D01*
X111925714Y-56201428D01*
X111957142Y-56264285D01*
X111957142Y-56327142D01*
X111925714Y-56421428D01*
X111548571Y-56798571D01*
X111957142Y-56798571D01*
X112522857Y-56138571D02*
X112397142Y-56138571D01*
X112334285Y-56170000D01*
X112302857Y-56201428D01*
X112240000Y-56295714D01*
X112208571Y-56421428D01*
X112208571Y-56672857D01*
X112240000Y-56735714D01*
X112271428Y-56767142D01*
X112334285Y-56798571D01*
X112460000Y-56798571D01*
X112522857Y-56767142D01*
X112554285Y-56735714D01*
X112585714Y-56672857D01*
X112585714Y-56515714D01*
X112554285Y-56452857D01*
X112522857Y-56421428D01*
X112460000Y-56390000D01*
X112334285Y-56390000D01*
X112271428Y-56421428D01*
X112240000Y-56452857D01*
X112208571Y-56515714D01*
X112994285Y-56138571D02*
X113057142Y-56138571D01*
X113120000Y-56170000D01*
X113151428Y-56201428D01*
X113182857Y-56264285D01*
X113214285Y-56390000D01*
X113214285Y-56547142D01*
X113182857Y-56672857D01*
X113151428Y-56735714D01*
X113120000Y-56767142D01*
X113057142Y-56798571D01*
X112994285Y-56798571D01*
X112931428Y-56767142D01*
X112900000Y-56735714D01*
X112868571Y-56672857D01*
X112837142Y-56547142D01*
X112837142Y-56390000D01*
X112868571Y-56264285D01*
X112900000Y-56201428D01*
X112931428Y-56170000D01*
X112994285Y-56138571D01*
G04 #@! TO.C,AE1*
D15*
X102276447Y-41434533D02*
X102514542Y-41434533D01*
X102228828Y-41577390D02*
X102395495Y-41077390D01*
X102562161Y-41577390D01*
X102728828Y-41244057D02*
X102728828Y-41577390D01*
X102728828Y-41291676D02*
X102752638Y-41267866D01*
X102800257Y-41244057D01*
X102871685Y-41244057D01*
X102919304Y-41267866D01*
X102943114Y-41315485D01*
X102943114Y-41577390D01*
X103109780Y-41244057D02*
X103300257Y-41244057D01*
X103181209Y-41077390D02*
X103181209Y-41505961D01*
X103205019Y-41553580D01*
X103252638Y-41577390D01*
X103300257Y-41577390D01*
X103657400Y-41553580D02*
X103609780Y-41577390D01*
X103514542Y-41577390D01*
X103466923Y-41553580D01*
X103443114Y-41505961D01*
X103443114Y-41315485D01*
X103466923Y-41267866D01*
X103514542Y-41244057D01*
X103609780Y-41244057D01*
X103657400Y-41267866D01*
X103681209Y-41315485D01*
X103681209Y-41363104D01*
X103443114Y-41410723D01*
X103895495Y-41244057D02*
X103895495Y-41577390D01*
X103895495Y-41291676D02*
X103919304Y-41267866D01*
X103966923Y-41244057D01*
X104038352Y-41244057D01*
X104085971Y-41267866D01*
X104109780Y-41315485D01*
X104109780Y-41577390D01*
X104347876Y-41244057D02*
X104347876Y-41577390D01*
X104347876Y-41291676D02*
X104371685Y-41267866D01*
X104419304Y-41244057D01*
X104490733Y-41244057D01*
X104538352Y-41267866D01*
X104562161Y-41315485D01*
X104562161Y-41577390D01*
X105014542Y-41577390D02*
X105014542Y-41315485D01*
X104990733Y-41267866D01*
X104943114Y-41244057D01*
X104847876Y-41244057D01*
X104800257Y-41267866D01*
X105014542Y-41553580D02*
X104966923Y-41577390D01*
X104847876Y-41577390D01*
X104800257Y-41553580D01*
X104776447Y-41505961D01*
X104776447Y-41458342D01*
X104800257Y-41410723D01*
X104847876Y-41386914D01*
X104966923Y-41386914D01*
X105014542Y-41363104D01*
G04 #@! TO.C,C1*
D13*
X103105714Y-47379400D02*
X103137142Y-47410828D01*
X103168571Y-47505114D01*
X103168571Y-47567971D01*
X103137142Y-47662257D01*
X103074285Y-47725114D01*
X103011428Y-47756542D01*
X102885714Y-47787971D01*
X102791428Y-47787971D01*
X102665714Y-47756542D01*
X102602857Y-47725114D01*
X102540000Y-47662257D01*
X102508571Y-47567971D01*
X102508571Y-47505114D01*
X102540000Y-47410828D01*
X102571428Y-47379400D01*
X103168571Y-46750828D02*
X103168571Y-47127971D01*
X103168571Y-46939400D02*
X102508571Y-46939400D01*
X102602857Y-47002257D01*
X102665714Y-47065114D01*
X102697142Y-47127971D01*
G04 #@! TO.C,C3*
X107652314Y-47455600D02*
X107683742Y-47487028D01*
X107715171Y-47581314D01*
X107715171Y-47644171D01*
X107683742Y-47738457D01*
X107620885Y-47801314D01*
X107558028Y-47832742D01*
X107432314Y-47864171D01*
X107338028Y-47864171D01*
X107212314Y-47832742D01*
X107149457Y-47801314D01*
X107086600Y-47738457D01*
X107055171Y-47644171D01*
X107055171Y-47581314D01*
X107086600Y-47487028D01*
X107118028Y-47455600D01*
X107055171Y-47235600D02*
X107055171Y-46827028D01*
X107306600Y-47047028D01*
X107306600Y-46952742D01*
X107338028Y-46889885D01*
X107369457Y-46858457D01*
X107432314Y-46827028D01*
X107589457Y-46827028D01*
X107652314Y-46858457D01*
X107683742Y-46889885D01*
X107715171Y-46952742D01*
X107715171Y-47141314D01*
X107683742Y-47204171D01*
X107652314Y-47235600D01*
D16*
X105624171Y-51459000D02*
X106064171Y-51459000D01*
X105372742Y-51616142D02*
X105844171Y-51773285D01*
X105844171Y-51364714D01*
X105404171Y-51176142D02*
X105404171Y-50736142D01*
X106064171Y-51019000D01*
X105624171Y-50484714D02*
X106284171Y-50484714D01*
X105655600Y-50484714D02*
X105624171Y-50421857D01*
X105624171Y-50296142D01*
X105655600Y-50233285D01*
X105687028Y-50201857D01*
X105749885Y-50170428D01*
X105938457Y-50170428D01*
X106001314Y-50201857D01*
X106032742Y-50233285D01*
X106064171Y-50296142D01*
X106064171Y-50421857D01*
X106032742Y-50484714D01*
X105718457Y-49667571D02*
X105718457Y-49887571D01*
X106064171Y-49887571D02*
X105404171Y-49887571D01*
X105404171Y-49573285D01*
X105812742Y-48819000D02*
X105812742Y-48316142D01*
X105404171Y-47687571D02*
X105404171Y-48001857D01*
X105718457Y-48033285D01*
X105687028Y-48001857D01*
X105655600Y-47939000D01*
X105655600Y-47781857D01*
X105687028Y-47719000D01*
X105718457Y-47687571D01*
X105781314Y-47656142D01*
X105938457Y-47656142D01*
X106001314Y-47687571D01*
X106032742Y-47719000D01*
X106064171Y-47781857D01*
X106064171Y-47939000D01*
X106032742Y-48001857D01*
X106001314Y-48033285D01*
X105404171Y-47247571D02*
X105404171Y-47184714D01*
X105435600Y-47121857D01*
X105467028Y-47090428D01*
X105529885Y-47059000D01*
X105655600Y-47027571D01*
X105812742Y-47027571D01*
X105938457Y-47059000D01*
X106001314Y-47090428D01*
X106032742Y-47121857D01*
X106064171Y-47184714D01*
X106064171Y-47247571D01*
X106032742Y-47310428D01*
X106001314Y-47341857D01*
X105938457Y-47373285D01*
X105812742Y-47404714D01*
X105655600Y-47404714D01*
X105529885Y-47373285D01*
X105467028Y-47341857D01*
X105435600Y-47310428D01*
X105404171Y-47247571D01*
X105624171Y-46807571D02*
X106064171Y-46650428D01*
X105624171Y-46493285D01*
G04 #@! TO.C,C4*
D10*
X104903542Y-47664666D02*
X104951161Y-47712285D01*
X104998780Y-47855142D01*
X104998780Y-47950380D01*
X104951161Y-48093238D01*
X104855923Y-48188476D01*
X104760685Y-48236095D01*
X104570209Y-48283714D01*
X104427352Y-48283714D01*
X104236876Y-48236095D01*
X104141638Y-48188476D01*
X104046400Y-48093238D01*
X103998780Y-47950380D01*
X103998780Y-47855142D01*
X104046400Y-47712285D01*
X104094019Y-47664666D01*
X104332114Y-46807523D02*
X104998780Y-46807523D01*
X103951161Y-47045619D02*
X104665447Y-47283714D01*
X104665447Y-46664666D01*
G04 #@! TO.C,J1*
X102982780Y-74653733D02*
X103697066Y-74653733D01*
X103839923Y-74701352D01*
X103935161Y-74796590D01*
X103982780Y-74939447D01*
X103982780Y-75034685D01*
X103982780Y-73653733D02*
X103982780Y-74225161D01*
X103982780Y-73939447D02*
X102982780Y-73939447D01*
X103125638Y-74034685D01*
X103220876Y-74129923D01*
X103268495Y-74225161D01*
G04 #@! TO.C,R1*
D13*
X116857000Y-69742171D02*
X116637000Y-69427885D01*
X116479857Y-69742171D02*
X116479857Y-69082171D01*
X116731285Y-69082171D01*
X116794142Y-69113600D01*
X116825571Y-69145028D01*
X116857000Y-69207885D01*
X116857000Y-69302171D01*
X116825571Y-69365028D01*
X116794142Y-69396457D01*
X116731285Y-69427885D01*
X116479857Y-69427885D01*
X117485571Y-69742171D02*
X117108428Y-69742171D01*
X117297000Y-69742171D02*
X117297000Y-69082171D01*
X117234142Y-69176457D01*
X117171285Y-69239314D01*
X117108428Y-69270742D01*
X117564742Y-66694171D02*
X117187600Y-66694171D01*
X117376171Y-66694171D02*
X117376171Y-66034171D01*
X117313314Y-66128457D01*
X117250457Y-66191314D01*
X117187600Y-66222742D01*
X117973314Y-66034171D02*
X118036171Y-66034171D01*
X118099028Y-66065600D01*
X118130457Y-66097028D01*
X118161885Y-66159885D01*
X118193314Y-66285600D01*
X118193314Y-66442742D01*
X118161885Y-66568457D01*
X118130457Y-66631314D01*
X118099028Y-66662742D01*
X118036171Y-66694171D01*
X117973314Y-66694171D01*
X117910457Y-66662742D01*
X117879028Y-66631314D01*
X117847600Y-66568457D01*
X117816171Y-66442742D01*
X117816171Y-66285600D01*
X117847600Y-66159885D01*
X117879028Y-66097028D01*
X117910457Y-66065600D01*
X117973314Y-66034171D01*
X118476171Y-66694171D02*
X118476171Y-66034171D01*
X118539028Y-66442742D02*
X118727600Y-66694171D01*
X118727600Y-66254171D02*
X118476171Y-66505600D01*
G04 #@! TO.C,R2*
X112412000Y-69716771D02*
X112192000Y-69402485D01*
X112034857Y-69716771D02*
X112034857Y-69056771D01*
X112286285Y-69056771D01*
X112349142Y-69088200D01*
X112380571Y-69119628D01*
X112412000Y-69182485D01*
X112412000Y-69276771D01*
X112380571Y-69339628D01*
X112349142Y-69371057D01*
X112286285Y-69402485D01*
X112034857Y-69402485D01*
X112663428Y-69119628D02*
X112694857Y-69088200D01*
X112757714Y-69056771D01*
X112914857Y-69056771D01*
X112977714Y-69088200D01*
X113009142Y-69119628D01*
X113040571Y-69182485D01*
X113040571Y-69245342D01*
X113009142Y-69339628D01*
X112632000Y-69716771D01*
X113040571Y-69716771D01*
X113225000Y-66593571D02*
X112847857Y-66593571D01*
X113036428Y-66593571D02*
X113036428Y-65933571D01*
X112973571Y-66027857D01*
X112910714Y-66090714D01*
X112847857Y-66122142D01*
X113633571Y-65933571D02*
X113696428Y-65933571D01*
X113759285Y-65965000D01*
X113790714Y-65996428D01*
X113822142Y-66059285D01*
X113853571Y-66185000D01*
X113853571Y-66342142D01*
X113822142Y-66467857D01*
X113790714Y-66530714D01*
X113759285Y-66562142D01*
X113696428Y-66593571D01*
X113633571Y-66593571D01*
X113570714Y-66562142D01*
X113539285Y-66530714D01*
X113507857Y-66467857D01*
X113476428Y-66342142D01*
X113476428Y-66185000D01*
X113507857Y-66059285D01*
X113539285Y-65996428D01*
X113570714Y-65965000D01*
X113633571Y-65933571D01*
X114262142Y-65933571D02*
X114325000Y-65933571D01*
X114387857Y-65965000D01*
X114419285Y-65996428D01*
X114450714Y-66059285D01*
X114482142Y-66185000D01*
X114482142Y-66342142D01*
X114450714Y-66467857D01*
X114419285Y-66530714D01*
X114387857Y-66562142D01*
X114325000Y-66593571D01*
X114262142Y-66593571D01*
X114199285Y-66562142D01*
X114167857Y-66530714D01*
X114136428Y-66467857D01*
X114105000Y-66342142D01*
X114105000Y-66185000D01*
X114136428Y-66059285D01*
X114167857Y-65996428D01*
X114199285Y-65965000D01*
X114262142Y-65933571D01*
G04 #@! TO.C,R3*
X108195600Y-69767571D02*
X107975600Y-69453285D01*
X107818457Y-69767571D02*
X107818457Y-69107571D01*
X108069885Y-69107571D01*
X108132742Y-69139000D01*
X108164171Y-69170428D01*
X108195600Y-69233285D01*
X108195600Y-69327571D01*
X108164171Y-69390428D01*
X108132742Y-69421857D01*
X108069885Y-69453285D01*
X107818457Y-69453285D01*
X108415600Y-69107571D02*
X108824171Y-69107571D01*
X108604171Y-69359000D01*
X108698457Y-69359000D01*
X108761314Y-69390428D01*
X108792742Y-69421857D01*
X108824171Y-69484714D01*
X108824171Y-69641857D01*
X108792742Y-69704714D01*
X108761314Y-69736142D01*
X108698457Y-69767571D01*
X108509885Y-69767571D01*
X108447028Y-69736142D01*
X108415600Y-69704714D01*
X109112000Y-66593571D02*
X108734857Y-66593571D01*
X108923428Y-66593571D02*
X108923428Y-65933571D01*
X108860571Y-66027857D01*
X108797714Y-66090714D01*
X108734857Y-66122142D01*
X109520571Y-65933571D02*
X109583428Y-65933571D01*
X109646285Y-65965000D01*
X109677714Y-65996428D01*
X109709142Y-66059285D01*
X109740571Y-66185000D01*
X109740571Y-66342142D01*
X109709142Y-66467857D01*
X109677714Y-66530714D01*
X109646285Y-66562142D01*
X109583428Y-66593571D01*
X109520571Y-66593571D01*
X109457714Y-66562142D01*
X109426285Y-66530714D01*
X109394857Y-66467857D01*
X109363428Y-66342142D01*
X109363428Y-66185000D01*
X109394857Y-66059285D01*
X109426285Y-65996428D01*
X109457714Y-65965000D01*
X109520571Y-65933571D01*
X110149142Y-65933571D02*
X110212000Y-65933571D01*
X110274857Y-65965000D01*
X110306285Y-65996428D01*
X110337714Y-66059285D01*
X110369142Y-66185000D01*
X110369142Y-66342142D01*
X110337714Y-66467857D01*
X110306285Y-66530714D01*
X110274857Y-66562142D01*
X110212000Y-66593571D01*
X110149142Y-66593571D01*
X110086285Y-66562142D01*
X110054857Y-66530714D01*
X110023428Y-66467857D01*
X109992000Y-66342142D01*
X109992000Y-66185000D01*
X110023428Y-66059285D01*
X110054857Y-65996428D01*
X110086285Y-65965000D01*
X110149142Y-65933571D01*
G04 #@! TO.C,SW1*
X128695571Y-73181742D02*
X128381285Y-73401742D01*
X128695571Y-73558885D02*
X128035571Y-73558885D01*
X128035571Y-73307457D01*
X128067000Y-73244600D01*
X128098428Y-73213171D01*
X128161285Y-73181742D01*
X128255571Y-73181742D01*
X128318428Y-73213171D01*
X128349857Y-73244600D01*
X128381285Y-73307457D01*
X128381285Y-73558885D01*
X128664142Y-72647457D02*
X128695571Y-72710314D01*
X128695571Y-72836028D01*
X128664142Y-72898885D01*
X128601285Y-72930314D01*
X128349857Y-72930314D01*
X128287000Y-72898885D01*
X128255571Y-72836028D01*
X128255571Y-72710314D01*
X128287000Y-72647457D01*
X128349857Y-72616028D01*
X128412714Y-72616028D01*
X128475571Y-72930314D01*
X128664142Y-72364600D02*
X128695571Y-72301742D01*
X128695571Y-72176028D01*
X128664142Y-72113171D01*
X128601285Y-72081742D01*
X128569857Y-72081742D01*
X128507000Y-72113171D01*
X128475571Y-72176028D01*
X128475571Y-72270314D01*
X128444142Y-72333171D01*
X128381285Y-72364600D01*
X128349857Y-72364600D01*
X128287000Y-72333171D01*
X128255571Y-72270314D01*
X128255571Y-72176028D01*
X128287000Y-72113171D01*
X128664142Y-71547457D02*
X128695571Y-71610314D01*
X128695571Y-71736028D01*
X128664142Y-71798885D01*
X128601285Y-71830314D01*
X128349857Y-71830314D01*
X128287000Y-71798885D01*
X128255571Y-71736028D01*
X128255571Y-71610314D01*
X128287000Y-71547457D01*
X128349857Y-71516028D01*
X128412714Y-71516028D01*
X128475571Y-71830314D01*
X128255571Y-71327457D02*
X128255571Y-71076028D01*
X128035571Y-71233171D02*
X128601285Y-71233171D01*
X128664142Y-71201742D01*
X128695571Y-71138885D01*
X128695571Y-71076028D01*
G04 #@! TO.C,SW2*
X110558571Y-78808571D02*
X110338571Y-78494285D01*
X110181428Y-78808571D02*
X110181428Y-78148571D01*
X110432857Y-78148571D01*
X110495714Y-78180000D01*
X110527142Y-78211428D01*
X110558571Y-78274285D01*
X110558571Y-78368571D01*
X110527142Y-78431428D01*
X110495714Y-78462857D01*
X110432857Y-78494285D01*
X110181428Y-78494285D01*
X110935714Y-78808571D02*
X110872857Y-78777142D01*
X110841428Y-78745714D01*
X110810000Y-78682857D01*
X110810000Y-78494285D01*
X110841428Y-78431428D01*
X110872857Y-78400000D01*
X110935714Y-78368571D01*
X111030000Y-78368571D01*
X111092857Y-78400000D01*
X111124285Y-78431428D01*
X111155714Y-78494285D01*
X111155714Y-78682857D01*
X111124285Y-78745714D01*
X111092857Y-78777142D01*
X111030000Y-78808571D01*
X110935714Y-78808571D01*
X111344285Y-78368571D02*
X111595714Y-78368571D01*
X111438571Y-78148571D02*
X111438571Y-78714285D01*
X111470000Y-78777142D01*
X111532857Y-78808571D01*
X111595714Y-78808571D01*
X112098571Y-78808571D02*
X112098571Y-78462857D01*
X112067142Y-78400000D01*
X112004285Y-78368571D01*
X111878571Y-78368571D01*
X111815714Y-78400000D01*
X112098571Y-78777142D02*
X112035714Y-78808571D01*
X111878571Y-78808571D01*
X111815714Y-78777142D01*
X111784285Y-78714285D01*
X111784285Y-78651428D01*
X111815714Y-78588571D01*
X111878571Y-78557142D01*
X112035714Y-78557142D01*
X112098571Y-78525714D01*
X112412857Y-78808571D02*
X112412857Y-78368571D01*
X112412857Y-78494285D02*
X112444285Y-78431428D01*
X112475714Y-78400000D01*
X112538571Y-78368571D01*
X112601428Y-78368571D01*
X112758571Y-78368571D02*
X112915714Y-78808571D01*
X113072857Y-78368571D02*
X112915714Y-78808571D01*
X112852857Y-78965714D01*
X112821428Y-78997142D01*
X112758571Y-79028571D01*
X113167142Y-78871428D02*
X113670000Y-78871428D01*
X113827142Y-78462857D02*
X114047142Y-78462857D01*
X114141428Y-78808571D02*
X113827142Y-78808571D01*
X113827142Y-78148571D01*
X114141428Y-78148571D01*
X114424285Y-78368571D02*
X114424285Y-78808571D01*
X114424285Y-78431428D02*
X114455714Y-78400000D01*
X114518571Y-78368571D01*
X114612857Y-78368571D01*
X114675714Y-78400000D01*
X114707142Y-78462857D01*
X114707142Y-78808571D01*
X115304285Y-78777142D02*
X115241428Y-78808571D01*
X115115714Y-78808571D01*
X115052857Y-78777142D01*
X115021428Y-78745714D01*
X114990000Y-78682857D01*
X114990000Y-78494285D01*
X115021428Y-78431428D01*
X115052857Y-78400000D01*
X115115714Y-78368571D01*
X115241428Y-78368571D01*
X115304285Y-78400000D01*
X115681428Y-78808571D02*
X115618571Y-78777142D01*
X115587142Y-78745714D01*
X115555714Y-78682857D01*
X115555714Y-78494285D01*
X115587142Y-78431428D01*
X115618571Y-78400000D01*
X115681428Y-78368571D01*
X115775714Y-78368571D01*
X115838571Y-78400000D01*
X115870000Y-78431428D01*
X115901428Y-78494285D01*
X115901428Y-78682857D01*
X115870000Y-78745714D01*
X115838571Y-78777142D01*
X115775714Y-78808571D01*
X115681428Y-78808571D01*
X116467142Y-78808571D02*
X116467142Y-78148571D01*
X116467142Y-78777142D02*
X116404285Y-78808571D01*
X116278571Y-78808571D01*
X116215714Y-78777142D01*
X116184285Y-78745714D01*
X116152857Y-78682857D01*
X116152857Y-78494285D01*
X116184285Y-78431428D01*
X116215714Y-78400000D01*
X116278571Y-78368571D01*
X116404285Y-78368571D01*
X116467142Y-78400000D01*
X117032857Y-78777142D02*
X116970000Y-78808571D01*
X116844285Y-78808571D01*
X116781428Y-78777142D01*
X116750000Y-78714285D01*
X116750000Y-78462857D01*
X116781428Y-78400000D01*
X116844285Y-78368571D01*
X116970000Y-78368571D01*
X117032857Y-78400000D01*
X117064285Y-78462857D01*
X117064285Y-78525714D01*
X116750000Y-78588571D01*
X117347142Y-78808571D02*
X117347142Y-78368571D01*
X117347142Y-78494285D02*
X117378571Y-78431428D01*
X117410000Y-78400000D01*
X117472857Y-78368571D01*
X117535714Y-78368571D01*
X117598571Y-78871428D02*
X118101428Y-78871428D01*
X118227142Y-78777142D02*
X118321428Y-78808571D01*
X118478571Y-78808571D01*
X118541428Y-78777142D01*
X118572857Y-78745714D01*
X118604285Y-78682857D01*
X118604285Y-78620000D01*
X118572857Y-78557142D01*
X118541428Y-78525714D01*
X118478571Y-78494285D01*
X118352857Y-78462857D01*
X118290000Y-78431428D01*
X118258571Y-78400000D01*
X118227142Y-78337142D01*
X118227142Y-78274285D01*
X118258571Y-78211428D01*
X118290000Y-78180000D01*
X118352857Y-78148571D01*
X118510000Y-78148571D01*
X118604285Y-78180000D01*
X118824285Y-78368571D02*
X118950000Y-78808571D01*
X119075714Y-78494285D01*
X119201428Y-78808571D01*
X119327142Y-78368571D01*
X119578571Y-78808571D02*
X119578571Y-78368571D01*
X119578571Y-78148571D02*
X119547142Y-78180000D01*
X119578571Y-78211428D01*
X119610000Y-78180000D01*
X119578571Y-78148571D01*
X119578571Y-78211428D01*
X119798571Y-78368571D02*
X120050000Y-78368571D01*
X119892857Y-78148571D02*
X119892857Y-78714285D01*
X119924285Y-78777142D01*
X119987142Y-78808571D01*
X120050000Y-78808571D01*
X120552857Y-78777142D02*
X120490000Y-78808571D01*
X120364285Y-78808571D01*
X120301428Y-78777142D01*
X120270000Y-78745714D01*
X120238571Y-78682857D01*
X120238571Y-78494285D01*
X120270000Y-78431428D01*
X120301428Y-78400000D01*
X120364285Y-78368571D01*
X120490000Y-78368571D01*
X120552857Y-78400000D01*
X120835714Y-78808571D02*
X120835714Y-78148571D01*
X121118571Y-78808571D02*
X121118571Y-78462857D01*
X121087142Y-78400000D01*
X121024285Y-78368571D01*
X120930000Y-78368571D01*
X120867142Y-78400000D01*
X120835714Y-78431428D01*
G04 #@! TO.C,C2*
X121683000Y-66732914D02*
X121651571Y-66764342D01*
X121557285Y-66795771D01*
X121494428Y-66795771D01*
X121400142Y-66764342D01*
X121337285Y-66701485D01*
X121305857Y-66638628D01*
X121274428Y-66512914D01*
X121274428Y-66418628D01*
X121305857Y-66292914D01*
X121337285Y-66230057D01*
X121400142Y-66167200D01*
X121494428Y-66135771D01*
X121557285Y-66135771D01*
X121651571Y-66167200D01*
X121683000Y-66198628D01*
X121934428Y-66198628D02*
X121965857Y-66167200D01*
X122028714Y-66135771D01*
X122185857Y-66135771D01*
X122248714Y-66167200D01*
X122280142Y-66198628D01*
X122311571Y-66261485D01*
X122311571Y-66324342D01*
X122280142Y-66418628D01*
X121903000Y-66795771D01*
X122311571Y-66795771D01*
X120593771Y-69615171D02*
X120216628Y-69615171D01*
X120405200Y-69615171D02*
X120405200Y-68955171D01*
X120342342Y-69049457D01*
X120279485Y-69112314D01*
X120216628Y-69143742D01*
X121002342Y-68955171D02*
X121065200Y-68955171D01*
X121128057Y-68986600D01*
X121159485Y-69018028D01*
X121190914Y-69080885D01*
X121222342Y-69206600D01*
X121222342Y-69363742D01*
X121190914Y-69489457D01*
X121159485Y-69552314D01*
X121128057Y-69583742D01*
X121065200Y-69615171D01*
X121002342Y-69615171D01*
X120939485Y-69583742D01*
X120908057Y-69552314D01*
X120876628Y-69489457D01*
X120845200Y-69363742D01*
X120845200Y-69206600D01*
X120876628Y-69080885D01*
X120908057Y-69018028D01*
X120939485Y-68986600D01*
X121002342Y-68955171D01*
X121630914Y-68955171D02*
X121693771Y-68955171D01*
X121756628Y-68986600D01*
X121788057Y-69018028D01*
X121819485Y-69080885D01*
X121850914Y-69206600D01*
X121850914Y-69363742D01*
X121819485Y-69489457D01*
X121788057Y-69552314D01*
X121756628Y-69583742D01*
X121693771Y-69615171D01*
X121630914Y-69615171D01*
X121568057Y-69583742D01*
X121536628Y-69552314D01*
X121505200Y-69489457D01*
X121473771Y-69363742D01*
X121473771Y-69206600D01*
X121505200Y-69080885D01*
X121536628Y-69018028D01*
X121568057Y-68986600D01*
X121630914Y-68955171D01*
X122133771Y-69175171D02*
X122133771Y-69615171D01*
X122133771Y-69238028D02*
X122165200Y-69206600D01*
X122228057Y-69175171D01*
X122322342Y-69175171D01*
X122385200Y-69206600D01*
X122416628Y-69269457D01*
X122416628Y-69615171D01*
X122950914Y-69269457D02*
X122730914Y-69269457D01*
X122730914Y-69615171D02*
X122730914Y-68955171D01*
X123045200Y-68955171D01*
G04 #@! TO.C,LCD1*
D10*
X109838142Y-45496000D02*
X109742904Y-45448380D01*
X109600047Y-45448380D01*
X109457190Y-45496000D01*
X109361952Y-45591238D01*
X109314333Y-45686476D01*
X109266714Y-45876952D01*
X109266714Y-46019809D01*
X109314333Y-46210285D01*
X109361952Y-46305523D01*
X109457190Y-46400761D01*
X109600047Y-46448380D01*
X109695285Y-46448380D01*
X109838142Y-46400761D01*
X109885761Y-46353142D01*
X109885761Y-46019809D01*
X109695285Y-46019809D01*
X110314333Y-45781714D02*
X110314333Y-46448380D01*
X110314333Y-45876952D02*
X110361952Y-45829333D01*
X110457190Y-45781714D01*
X110600047Y-45781714D01*
X110695285Y-45829333D01*
X110742904Y-45924571D01*
X110742904Y-46448380D01*
X111647666Y-46448380D02*
X111647666Y-45448380D01*
X111647666Y-46400761D02*
X111552428Y-46448380D01*
X111361952Y-46448380D01*
X111266714Y-46400761D01*
X111219095Y-46353142D01*
X111171476Y-46257904D01*
X111171476Y-45972190D01*
X111219095Y-45876952D01*
X111266714Y-45829333D01*
X111361952Y-45781714D01*
X111552428Y-45781714D01*
X111647666Y-45829333D01*
X112690523Y-45448380D02*
X113023857Y-46448380D01*
X113357190Y-45448380D01*
X114119095Y-46400761D02*
X114023857Y-46448380D01*
X113833380Y-46448380D01*
X113738142Y-46400761D01*
X113690523Y-46353142D01*
X113642904Y-46257904D01*
X113642904Y-45972190D01*
X113690523Y-45876952D01*
X113738142Y-45829333D01*
X113833380Y-45781714D01*
X114023857Y-45781714D01*
X114119095Y-45829333D01*
X114976238Y-46400761D02*
X114881000Y-46448380D01*
X114690523Y-46448380D01*
X114595285Y-46400761D01*
X114547666Y-46353142D01*
X114500047Y-46257904D01*
X114500047Y-45972190D01*
X114547666Y-45876952D01*
X114595285Y-45829333D01*
X114690523Y-45781714D01*
X114881000Y-45781714D01*
X114976238Y-45829333D01*
X115704809Y-46400761D02*
X115847666Y-46448380D01*
X116085761Y-46448380D01*
X116181000Y-46400761D01*
X116228619Y-46353142D01*
X116276238Y-46257904D01*
X116276238Y-46162666D01*
X116228619Y-46067428D01*
X116181000Y-46019809D01*
X116085761Y-45972190D01*
X115895285Y-45924571D01*
X115800047Y-45876952D01*
X115752428Y-45829333D01*
X115704809Y-45734095D01*
X115704809Y-45638857D01*
X115752428Y-45543619D01*
X115800047Y-45496000D01*
X115895285Y-45448380D01*
X116133380Y-45448380D01*
X116276238Y-45496000D01*
X117133380Y-46400761D02*
X117038142Y-46448380D01*
X116847666Y-46448380D01*
X116752428Y-46400761D01*
X116704809Y-46353142D01*
X116657190Y-46257904D01*
X116657190Y-45972190D01*
X116704809Y-45876952D01*
X116752428Y-45829333D01*
X116847666Y-45781714D01*
X117038142Y-45781714D01*
X117133380Y-45829333D01*
X117704809Y-46448380D02*
X117609571Y-46400761D01*
X117561952Y-46305523D01*
X117561952Y-45448380D01*
X118490523Y-46400761D02*
X118633380Y-46448380D01*
X118871476Y-46448380D01*
X118966714Y-46400761D01*
X119014333Y-46353142D01*
X119061952Y-46257904D01*
X119061952Y-46162666D01*
X119014333Y-46067428D01*
X118966714Y-46019809D01*
X118871476Y-45972190D01*
X118681000Y-45924571D01*
X118585761Y-45876952D01*
X118538142Y-45829333D01*
X118490523Y-45734095D01*
X118490523Y-45638857D01*
X118538142Y-45543619D01*
X118585761Y-45496000D01*
X118681000Y-45448380D01*
X118919095Y-45448380D01*
X119061952Y-45496000D01*
X119919095Y-46448380D02*
X119919095Y-45448380D01*
X119919095Y-46400761D02*
X119823857Y-46448380D01*
X119633380Y-46448380D01*
X119538142Y-46400761D01*
X119490523Y-46353142D01*
X119442904Y-46257904D01*
X119442904Y-45972190D01*
X119490523Y-45876952D01*
X119538142Y-45829333D01*
X119633380Y-45781714D01*
X119823857Y-45781714D01*
X119919095Y-45829333D01*
X120823857Y-46448380D02*
X120823857Y-45924571D01*
X120776238Y-45829333D01*
X120681000Y-45781714D01*
X120490523Y-45781714D01*
X120395285Y-45829333D01*
X120823857Y-46400761D02*
X120728619Y-46448380D01*
X120490523Y-46448380D01*
X120395285Y-46400761D01*
X120347666Y-46305523D01*
X120347666Y-46210285D01*
X120395285Y-46115047D01*
X120490523Y-46067428D01*
X120728619Y-46067428D01*
X120823857Y-46019809D01*
G04 #@! TO.C,C5*
D13*
X108922314Y-77351400D02*
X108953742Y-77382828D01*
X108985171Y-77477114D01*
X108985171Y-77539971D01*
X108953742Y-77634257D01*
X108890885Y-77697114D01*
X108828028Y-77728542D01*
X108702314Y-77759971D01*
X108608028Y-77759971D01*
X108482314Y-77728542D01*
X108419457Y-77697114D01*
X108356600Y-77634257D01*
X108325171Y-77539971D01*
X108325171Y-77477114D01*
X108356600Y-77382828D01*
X108388028Y-77351400D01*
X108325171Y-76754257D02*
X108325171Y-77068542D01*
X108639457Y-77099971D01*
X108608028Y-77068542D01*
X108576600Y-77005685D01*
X108576600Y-76848542D01*
X108608028Y-76785685D01*
X108639457Y-76754257D01*
X108702314Y-76722828D01*
X108859457Y-76722828D01*
X108922314Y-76754257D01*
X108953742Y-76785685D01*
X108985171Y-76848542D01*
X108985171Y-77005685D01*
X108953742Y-77068542D01*
X108922314Y-77099971D01*
X107867571Y-77069028D02*
X107867571Y-77446171D01*
X107867571Y-77257600D02*
X107207571Y-77257600D01*
X107301857Y-77320457D01*
X107364714Y-77383314D01*
X107396142Y-77446171D01*
X107207571Y-76660457D02*
X107207571Y-76597600D01*
X107239000Y-76534742D01*
X107270428Y-76503314D01*
X107333285Y-76471885D01*
X107459000Y-76440457D01*
X107616142Y-76440457D01*
X107741857Y-76471885D01*
X107804714Y-76503314D01*
X107836142Y-76534742D01*
X107867571Y-76597600D01*
X107867571Y-76660457D01*
X107836142Y-76723314D01*
X107804714Y-76754742D01*
X107741857Y-76786171D01*
X107616142Y-76817600D01*
X107459000Y-76817600D01*
X107333285Y-76786171D01*
X107270428Y-76754742D01*
X107239000Y-76723314D01*
X107207571Y-76660457D01*
X107207571Y-76031885D02*
X107207571Y-75969028D01*
X107239000Y-75906171D01*
X107270428Y-75874742D01*
X107333285Y-75843314D01*
X107459000Y-75811885D01*
X107616142Y-75811885D01*
X107741857Y-75843314D01*
X107804714Y-75874742D01*
X107836142Y-75906171D01*
X107867571Y-75969028D01*
X107867571Y-76031885D01*
X107836142Y-76094742D01*
X107804714Y-76126171D01*
X107741857Y-76157600D01*
X107616142Y-76189028D01*
X107459000Y-76189028D01*
X107333285Y-76157600D01*
X107270428Y-76126171D01*
X107239000Y-76094742D01*
X107207571Y-76031885D01*
X107427571Y-75529028D02*
X107867571Y-75529028D01*
X107490428Y-75529028D02*
X107459000Y-75497600D01*
X107427571Y-75434742D01*
X107427571Y-75340457D01*
X107459000Y-75277600D01*
X107521857Y-75246171D01*
X107867571Y-75246171D01*
X107521857Y-74711885D02*
X107521857Y-74931885D01*
X107867571Y-74931885D02*
X107207571Y-74931885D01*
X107207571Y-74617600D01*
G04 #@! TO.C,C6*
X107687600Y-90888314D02*
X107656171Y-90919742D01*
X107561885Y-90951171D01*
X107499028Y-90951171D01*
X107404742Y-90919742D01*
X107341885Y-90856885D01*
X107310457Y-90794028D01*
X107279028Y-90668314D01*
X107279028Y-90574028D01*
X107310457Y-90448314D01*
X107341885Y-90385457D01*
X107404742Y-90322600D01*
X107499028Y-90291171D01*
X107561885Y-90291171D01*
X107656171Y-90322600D01*
X107687600Y-90354028D01*
X108253314Y-90291171D02*
X108127600Y-90291171D01*
X108064742Y-90322600D01*
X108033314Y-90354028D01*
X107970457Y-90448314D01*
X107939028Y-90574028D01*
X107939028Y-90825457D01*
X107970457Y-90888314D01*
X108001885Y-90919742D01*
X108064742Y-90951171D01*
X108190457Y-90951171D01*
X108253314Y-90919742D01*
X108284742Y-90888314D01*
X108316171Y-90825457D01*
X108316171Y-90668314D01*
X108284742Y-90605457D01*
X108253314Y-90574028D01*
X108190457Y-90542600D01*
X108064742Y-90542600D01*
X108001885Y-90574028D01*
X107970457Y-90605457D01*
X107939028Y-90668314D01*
X109721771Y-90683428D02*
X109721771Y-91060571D01*
X109721771Y-90872000D02*
X109061771Y-90872000D01*
X109156057Y-90934857D01*
X109218914Y-90997714D01*
X109250342Y-91060571D01*
X109061771Y-90274857D02*
X109061771Y-90212000D01*
X109093200Y-90149142D01*
X109124628Y-90117714D01*
X109187485Y-90086285D01*
X109313200Y-90054857D01*
X109470342Y-90054857D01*
X109596057Y-90086285D01*
X109658914Y-90117714D01*
X109690342Y-90149142D01*
X109721771Y-90212000D01*
X109721771Y-90274857D01*
X109690342Y-90337714D01*
X109658914Y-90369142D01*
X109596057Y-90400571D01*
X109470342Y-90432000D01*
X109313200Y-90432000D01*
X109187485Y-90400571D01*
X109124628Y-90369142D01*
X109093200Y-90337714D01*
X109061771Y-90274857D01*
X109061771Y-89646285D02*
X109061771Y-89583428D01*
X109093200Y-89520571D01*
X109124628Y-89489142D01*
X109187485Y-89457714D01*
X109313200Y-89426285D01*
X109470342Y-89426285D01*
X109596057Y-89457714D01*
X109658914Y-89489142D01*
X109690342Y-89520571D01*
X109721771Y-89583428D01*
X109721771Y-89646285D01*
X109690342Y-89709142D01*
X109658914Y-89740571D01*
X109596057Y-89772000D01*
X109470342Y-89803428D01*
X109313200Y-89803428D01*
X109187485Y-89772000D01*
X109124628Y-89740571D01*
X109093200Y-89709142D01*
X109061771Y-89646285D01*
X109281771Y-89143428D02*
X109721771Y-89143428D01*
X109344628Y-89143428D02*
X109313200Y-89112000D01*
X109281771Y-89049142D01*
X109281771Y-88954857D01*
X109313200Y-88892000D01*
X109376057Y-88860571D01*
X109721771Y-88860571D01*
X109376057Y-88326285D02*
X109376057Y-88546285D01*
X109721771Y-88546285D02*
X109061771Y-88546285D01*
X109061771Y-88232000D01*
G04 #@! TO.C,C7*
X111980200Y-70619114D02*
X111948771Y-70650542D01*
X111854485Y-70681971D01*
X111791628Y-70681971D01*
X111697342Y-70650542D01*
X111634485Y-70587685D01*
X111603057Y-70524828D01*
X111571628Y-70399114D01*
X111571628Y-70304828D01*
X111603057Y-70179114D01*
X111634485Y-70116257D01*
X111697342Y-70053400D01*
X111791628Y-70021971D01*
X111854485Y-70021971D01*
X111948771Y-70053400D01*
X111980200Y-70084828D01*
X112200200Y-70021971D02*
X112640200Y-70021971D01*
X112357342Y-70681971D01*
X112642771Y-73589228D02*
X112642771Y-73966371D01*
X112642771Y-73777800D02*
X111982771Y-73777800D01*
X112077057Y-73840657D01*
X112139914Y-73903514D01*
X112171342Y-73966371D01*
X111982771Y-73180657D02*
X111982771Y-73117800D01*
X112014200Y-73054942D01*
X112045628Y-73023514D01*
X112108485Y-72992085D01*
X112234200Y-72960657D01*
X112391342Y-72960657D01*
X112517057Y-72992085D01*
X112579914Y-73023514D01*
X112611342Y-73054942D01*
X112642771Y-73117800D01*
X112642771Y-73180657D01*
X112611342Y-73243514D01*
X112579914Y-73274942D01*
X112517057Y-73306371D01*
X112391342Y-73337800D01*
X112234200Y-73337800D01*
X112108485Y-73306371D01*
X112045628Y-73274942D01*
X112014200Y-73243514D01*
X111982771Y-73180657D01*
X111982771Y-72552085D02*
X111982771Y-72489228D01*
X112014200Y-72426371D01*
X112045628Y-72394942D01*
X112108485Y-72363514D01*
X112234200Y-72332085D01*
X112391342Y-72332085D01*
X112517057Y-72363514D01*
X112579914Y-72394942D01*
X112611342Y-72426371D01*
X112642771Y-72489228D01*
X112642771Y-72552085D01*
X112611342Y-72614942D01*
X112579914Y-72646371D01*
X112517057Y-72677800D01*
X112391342Y-72709228D01*
X112234200Y-72709228D01*
X112108485Y-72677800D01*
X112045628Y-72646371D01*
X112014200Y-72614942D01*
X111982771Y-72552085D01*
X112202771Y-72049228D02*
X112642771Y-72049228D01*
X112265628Y-72049228D02*
X112234200Y-72017800D01*
X112202771Y-71954942D01*
X112202771Y-71860657D01*
X112234200Y-71797800D01*
X112297057Y-71766371D01*
X112642771Y-71766371D01*
X112297057Y-71232085D02*
X112297057Y-71452085D01*
X112642771Y-71452085D02*
X111982771Y-71452085D01*
X111982771Y-71137800D01*
G04 #@! TO.C,C8*
X115333000Y-70390514D02*
X115301571Y-70421942D01*
X115207285Y-70453371D01*
X115144428Y-70453371D01*
X115050142Y-70421942D01*
X114987285Y-70359085D01*
X114955857Y-70296228D01*
X114924428Y-70170514D01*
X114924428Y-70076228D01*
X114955857Y-69950514D01*
X114987285Y-69887657D01*
X115050142Y-69824800D01*
X115144428Y-69793371D01*
X115207285Y-69793371D01*
X115301571Y-69824800D01*
X115333000Y-69856228D01*
X115710142Y-70076228D02*
X115647285Y-70044800D01*
X115615857Y-70013371D01*
X115584428Y-69950514D01*
X115584428Y-69919085D01*
X115615857Y-69856228D01*
X115647285Y-69824800D01*
X115710142Y-69793371D01*
X115835857Y-69793371D01*
X115898714Y-69824800D01*
X115930142Y-69856228D01*
X115961571Y-69919085D01*
X115961571Y-69950514D01*
X115930142Y-70013371D01*
X115898714Y-70044800D01*
X115835857Y-70076228D01*
X115710142Y-70076228D01*
X115647285Y-70107657D01*
X115615857Y-70139085D01*
X115584428Y-70201942D01*
X115584428Y-70327657D01*
X115615857Y-70390514D01*
X115647285Y-70421942D01*
X115710142Y-70453371D01*
X115835857Y-70453371D01*
X115898714Y-70421942D01*
X115930142Y-70390514D01*
X115961571Y-70327657D01*
X115961571Y-70201942D01*
X115930142Y-70139085D01*
X115898714Y-70107657D01*
X115835857Y-70076228D01*
X114844371Y-72859942D02*
X115284371Y-72859942D01*
X114592942Y-73017085D02*
X115064371Y-73174228D01*
X115064371Y-72765657D01*
X115221514Y-72514228D02*
X115252942Y-72482800D01*
X115284371Y-72514228D01*
X115252942Y-72545657D01*
X115221514Y-72514228D01*
X115284371Y-72514228D01*
X114624371Y-72262800D02*
X114624371Y-71822800D01*
X115284371Y-72105657D01*
X114844371Y-71288514D02*
X115284371Y-71288514D01*
X114844371Y-71571371D02*
X115190085Y-71571371D01*
X115252942Y-71539942D01*
X115284371Y-71477085D01*
X115284371Y-71382800D01*
X115252942Y-71319942D01*
X115221514Y-71288514D01*
X114938657Y-70754228D02*
X114938657Y-70974228D01*
X115284371Y-70974228D02*
X114624371Y-70974228D01*
X114624371Y-70659942D01*
G04 #@! TO.C,C9*
X122597400Y-75165714D02*
X122565971Y-75197142D01*
X122471685Y-75228571D01*
X122408828Y-75228571D01*
X122314542Y-75197142D01*
X122251685Y-75134285D01*
X122220257Y-75071428D01*
X122188828Y-74945714D01*
X122188828Y-74851428D01*
X122220257Y-74725714D01*
X122251685Y-74662857D01*
X122314542Y-74600000D01*
X122408828Y-74568571D01*
X122471685Y-74568571D01*
X122565971Y-74600000D01*
X122597400Y-74631428D01*
X122911685Y-75228571D02*
X123037400Y-75228571D01*
X123100257Y-75197142D01*
X123131685Y-75165714D01*
X123194542Y-75071428D01*
X123225971Y-74945714D01*
X123225971Y-74694285D01*
X123194542Y-74631428D01*
X123163114Y-74600000D01*
X123100257Y-74568571D01*
X122974542Y-74568571D01*
X122911685Y-74600000D01*
X122880257Y-74631428D01*
X122848828Y-74694285D01*
X122848828Y-74851428D01*
X122880257Y-74914285D01*
X122911685Y-74945714D01*
X122974542Y-74977142D01*
X123100257Y-74977142D01*
X123163114Y-74945714D01*
X123194542Y-74914285D01*
X123225971Y-74851428D01*
X118986257Y-76083971D02*
X118986257Y-76523971D01*
X118829114Y-75832542D02*
X118671971Y-76303971D01*
X119080542Y-76303971D01*
X119331971Y-76461114D02*
X119363400Y-76492542D01*
X119331971Y-76523971D01*
X119300542Y-76492542D01*
X119331971Y-76461114D01*
X119331971Y-76523971D01*
X119583400Y-75863971D02*
X120023400Y-75863971D01*
X119740542Y-76523971D01*
X120557685Y-76083971D02*
X120557685Y-76523971D01*
X120274828Y-76083971D02*
X120274828Y-76429685D01*
X120306257Y-76492542D01*
X120369114Y-76523971D01*
X120463400Y-76523971D01*
X120526257Y-76492542D01*
X120557685Y-76461114D01*
X121091971Y-76178257D02*
X120871971Y-76178257D01*
X120871971Y-76523971D02*
X120871971Y-75863971D01*
X121186257Y-75863971D01*
G04 #@! TO.C,C10*
X119437914Y-64991085D02*
X119469342Y-65022514D01*
X119500771Y-65116800D01*
X119500771Y-65179657D01*
X119469342Y-65273942D01*
X119406485Y-65336800D01*
X119343628Y-65368228D01*
X119217914Y-65399657D01*
X119123628Y-65399657D01*
X118997914Y-65368228D01*
X118935057Y-65336800D01*
X118872200Y-65273942D01*
X118840771Y-65179657D01*
X118840771Y-65116800D01*
X118872200Y-65022514D01*
X118903628Y-64991085D01*
X119500771Y-64362514D02*
X119500771Y-64739657D01*
X119500771Y-64551085D02*
X118840771Y-64551085D01*
X118935057Y-64613942D01*
X118997914Y-64676800D01*
X119029342Y-64739657D01*
X118840771Y-63953942D02*
X118840771Y-63891085D01*
X118872200Y-63828228D01*
X118903628Y-63796800D01*
X118966485Y-63765371D01*
X119092200Y-63733942D01*
X119249342Y-63733942D01*
X119375057Y-63765371D01*
X119437914Y-63796800D01*
X119469342Y-63828228D01*
X119500771Y-63891085D01*
X119500771Y-63953942D01*
X119469342Y-64016800D01*
X119437914Y-64048228D01*
X119375057Y-64079657D01*
X119249342Y-64111085D01*
X119092200Y-64111085D01*
X118966485Y-64079657D01*
X118903628Y-64048228D01*
X118872200Y-64016800D01*
X118840771Y-63953942D01*
X120338971Y-61251257D02*
X120338971Y-61628400D01*
X120338971Y-61439828D02*
X119678971Y-61439828D01*
X119773257Y-61502685D01*
X119836114Y-61565542D01*
X119867542Y-61628400D01*
X119898971Y-60685542D02*
X120338971Y-60685542D01*
X119898971Y-60968400D02*
X120244685Y-60968400D01*
X120307542Y-60936971D01*
X120338971Y-60874114D01*
X120338971Y-60779828D01*
X120307542Y-60716971D01*
X120276114Y-60685542D01*
X119993257Y-60151257D02*
X119993257Y-60371257D01*
X120338971Y-60371257D02*
X119678971Y-60371257D01*
X119678971Y-60056971D01*
G04 #@! TO.C,D1*
D14*
X102429621Y-84260330D02*
X102109445Y-84260330D01*
X102109445Y-84184098D01*
X102124692Y-84138358D01*
X102155184Y-84107865D01*
X102185677Y-84092619D01*
X102246663Y-84077372D01*
X102292403Y-84077372D01*
X102353389Y-84092619D01*
X102383882Y-84107865D01*
X102414375Y-84138358D01*
X102429621Y-84184098D01*
X102429621Y-84260330D01*
X102429621Y-83772443D02*
X102429621Y-83955400D01*
X102429621Y-83863922D02*
X102109445Y-83863922D01*
X102155184Y-83894414D01*
X102185677Y-83924907D01*
X102200924Y-83955400D01*
X102429206Y-82300759D02*
X102108953Y-82300759D01*
X102337705Y-82194008D01*
X102108953Y-82087257D01*
X102429206Y-82087257D01*
X102261454Y-81828005D02*
X102276704Y-81782254D01*
X102291955Y-81767004D01*
X102322455Y-81751754D01*
X102368205Y-81751754D01*
X102398706Y-81767004D01*
X102413956Y-81782254D01*
X102429206Y-81812755D01*
X102429206Y-81934756D01*
X102108953Y-81934756D01*
X102108953Y-81828005D01*
X102124203Y-81797504D01*
X102139453Y-81782254D01*
X102169953Y-81767004D01*
X102200454Y-81767004D01*
X102230954Y-81782254D01*
X102246204Y-81797504D01*
X102261454Y-81828005D01*
X102261454Y-81934756D01*
X102429206Y-81431501D02*
X102276704Y-81538252D01*
X102429206Y-81614503D02*
X102108953Y-81614503D01*
X102108953Y-81492502D01*
X102124203Y-81462001D01*
X102139453Y-81446751D01*
X102169953Y-81431501D01*
X102215704Y-81431501D01*
X102246204Y-81446751D01*
X102261454Y-81462001D01*
X102276704Y-81492502D01*
X102276704Y-81614503D01*
X102337705Y-81309500D02*
X102337705Y-81156998D01*
X102429206Y-81340000D02*
X102108953Y-81233249D01*
X102429206Y-81126498D01*
X102429206Y-80851996D02*
X102429206Y-81034997D01*
X102429206Y-80943496D02*
X102108953Y-80943496D01*
X102154703Y-80973997D01*
X102185204Y-81004497D01*
X102200454Y-81034997D01*
X102215704Y-80577493D02*
X102429206Y-80577493D01*
X102093703Y-80653744D02*
X102322455Y-80729994D01*
X102322455Y-80531743D01*
X102108953Y-80348741D02*
X102108953Y-80318241D01*
X102124203Y-80287740D01*
X102139453Y-80272490D01*
X102169953Y-80257240D01*
X102230954Y-80241990D01*
X102307205Y-80241990D01*
X102368205Y-80257240D01*
X102398706Y-80272490D01*
X102413956Y-80287740D01*
X102429206Y-80318241D01*
X102429206Y-80348741D01*
X102413956Y-80379241D01*
X102398706Y-80394491D01*
X102368205Y-80409741D01*
X102307205Y-80424992D01*
X102230954Y-80424992D01*
X102169953Y-80409741D01*
X102139453Y-80394491D01*
X102124203Y-80379241D01*
X102108953Y-80348741D01*
G04 #@! TO.C,R4*
D16*
X123842000Y-76752571D02*
X123622000Y-76438285D01*
X123464857Y-76752571D02*
X123464857Y-76092571D01*
X123716285Y-76092571D01*
X123779142Y-76124000D01*
X123810571Y-76155428D01*
X123842000Y-76218285D01*
X123842000Y-76312571D01*
X123810571Y-76375428D01*
X123779142Y-76406857D01*
X123716285Y-76438285D01*
X123464857Y-76438285D01*
X124407714Y-76312571D02*
X124407714Y-76752571D01*
X124250571Y-76061142D02*
X124093428Y-76532571D01*
X124502000Y-76532571D01*
X128639142Y-76574771D02*
X128262000Y-76574771D01*
X128450571Y-76574771D02*
X128450571Y-75914771D01*
X128387714Y-76009057D01*
X128324857Y-76071914D01*
X128262000Y-76103342D01*
X129047714Y-75914771D02*
X129110571Y-75914771D01*
X129173428Y-75946200D01*
X129204857Y-75977628D01*
X129236285Y-76040485D01*
X129267714Y-76166200D01*
X129267714Y-76323342D01*
X129236285Y-76449057D01*
X129204857Y-76511914D01*
X129173428Y-76543342D01*
X129110571Y-76574771D01*
X129047714Y-76574771D01*
X128984857Y-76543342D01*
X128953428Y-76511914D01*
X128922000Y-76449057D01*
X128890571Y-76323342D01*
X128890571Y-76166200D01*
X128922000Y-76040485D01*
X128953428Y-75977628D01*
X128984857Y-75946200D01*
X129047714Y-75914771D01*
X129550571Y-76574771D02*
X129550571Y-75914771D01*
X129613428Y-76323342D02*
X129802000Y-76574771D01*
X129802000Y-76134771D02*
X129550571Y-76386200D01*
G04 #@! TO.C,R5*
D13*
X105429171Y-64702200D02*
X105114885Y-64922200D01*
X105429171Y-65079342D02*
X104769171Y-65079342D01*
X104769171Y-64827914D01*
X104800600Y-64765057D01*
X104832028Y-64733628D01*
X104894885Y-64702200D01*
X104989171Y-64702200D01*
X105052028Y-64733628D01*
X105083457Y-64765057D01*
X105114885Y-64827914D01*
X105114885Y-65079342D01*
X104769171Y-64105057D02*
X104769171Y-64419342D01*
X105083457Y-64450771D01*
X105052028Y-64419342D01*
X105020600Y-64356485D01*
X105020600Y-64199342D01*
X105052028Y-64136485D01*
X105083457Y-64105057D01*
X105146314Y-64073628D01*
X105303457Y-64073628D01*
X105366314Y-64105057D01*
X105397742Y-64136485D01*
X105429171Y-64199342D01*
X105429171Y-64356485D01*
X105397742Y-64419342D01*
X105366314Y-64450771D01*
X102977828Y-62787314D02*
X102946400Y-62755885D01*
X102914971Y-62693028D01*
X102914971Y-62535885D01*
X102946400Y-62473028D01*
X102977828Y-62441600D01*
X103040685Y-62410171D01*
X103103542Y-62410171D01*
X103197828Y-62441600D01*
X103574971Y-62818742D01*
X103574971Y-62410171D01*
X103574971Y-62127314D02*
X102914971Y-62127314D01*
X103323542Y-62064457D02*
X103574971Y-61875885D01*
X103134971Y-61875885D02*
X103386400Y-62127314D01*
G04 #@! TO.C,R6*
D10*
X122627380Y-52236666D02*
X122151190Y-52570000D01*
X122627380Y-52808095D02*
X121627380Y-52808095D01*
X121627380Y-52427142D01*
X121675000Y-52331904D01*
X121722619Y-52284285D01*
X121817857Y-52236666D01*
X121960714Y-52236666D01*
X122055952Y-52284285D01*
X122103571Y-52331904D01*
X122151190Y-52427142D01*
X122151190Y-52808095D01*
X121627380Y-51379523D02*
X121627380Y-51570000D01*
X121675000Y-51665238D01*
X121722619Y-51712857D01*
X121865476Y-51808095D01*
X122055952Y-51855714D01*
X122436904Y-51855714D01*
X122532142Y-51808095D01*
X122579761Y-51760476D01*
X122627380Y-51665238D01*
X122627380Y-51474761D01*
X122579761Y-51379523D01*
X122532142Y-51331904D01*
X122436904Y-51284285D01*
X122198809Y-51284285D01*
X122103571Y-51331904D01*
X122055952Y-51379523D01*
X122008333Y-51474761D01*
X122008333Y-51665238D01*
X122055952Y-51760476D01*
X122103571Y-51808095D01*
X122198809Y-51855714D01*
D13*
X125596771Y-50980171D02*
X125596771Y-51357314D01*
X125596771Y-51168742D02*
X124936771Y-51168742D01*
X125031057Y-51231600D01*
X125093914Y-51294457D01*
X125125342Y-51357314D01*
X125596771Y-50697314D02*
X124936771Y-50697314D01*
X125345342Y-50634457D02*
X125596771Y-50445885D01*
X125156771Y-50445885D02*
X125408200Y-50697314D01*
G04 #@! TO.C,R7*
X121278771Y-43899600D02*
X120964485Y-44119600D01*
X121278771Y-44276742D02*
X120618771Y-44276742D01*
X120618771Y-44025314D01*
X120650200Y-43962457D01*
X120681628Y-43931028D01*
X120744485Y-43899600D01*
X120838771Y-43899600D01*
X120901628Y-43931028D01*
X120933057Y-43962457D01*
X120964485Y-44025314D01*
X120964485Y-44276742D01*
X120618771Y-43679600D02*
X120618771Y-43239600D01*
X121278771Y-43522457D01*
X122802771Y-47967057D02*
X122802771Y-48344200D01*
X122802771Y-48155628D02*
X122142771Y-48155628D01*
X122237057Y-48218485D01*
X122299914Y-48281342D01*
X122331342Y-48344200D01*
X122142771Y-47558485D02*
X122142771Y-47495628D01*
X122174200Y-47432771D01*
X122205628Y-47401342D01*
X122268485Y-47369914D01*
X122394200Y-47338485D01*
X122551342Y-47338485D01*
X122677057Y-47369914D01*
X122739914Y-47401342D01*
X122771342Y-47432771D01*
X122802771Y-47495628D01*
X122802771Y-47558485D01*
X122771342Y-47621342D01*
X122739914Y-47652771D01*
X122677057Y-47684200D01*
X122551342Y-47715628D01*
X122394200Y-47715628D01*
X122268485Y-47684200D01*
X122205628Y-47652771D01*
X122174200Y-47621342D01*
X122142771Y-47558485D01*
X122802771Y-47055628D02*
X122142771Y-47055628D01*
X122551342Y-46992771D02*
X122802771Y-46804200D01*
X122362771Y-46804200D02*
X122614200Y-47055628D01*
G04 #@! TO.C,R8*
X123082171Y-72982600D02*
X122767885Y-73202600D01*
X123082171Y-73359742D02*
X122422171Y-73359742D01*
X122422171Y-73108314D01*
X122453600Y-73045457D01*
X122485028Y-73014028D01*
X122547885Y-72982600D01*
X122642171Y-72982600D01*
X122705028Y-73014028D01*
X122736457Y-73045457D01*
X122767885Y-73108314D01*
X122767885Y-73359742D01*
X122705028Y-72605457D02*
X122673600Y-72668314D01*
X122642171Y-72699742D01*
X122579314Y-72731171D01*
X122547885Y-72731171D01*
X122485028Y-72699742D01*
X122453600Y-72668314D01*
X122422171Y-72605457D01*
X122422171Y-72479742D01*
X122453600Y-72416885D01*
X122485028Y-72385457D01*
X122547885Y-72354028D01*
X122579314Y-72354028D01*
X122642171Y-72385457D01*
X122673600Y-72416885D01*
X122705028Y-72479742D01*
X122705028Y-72605457D01*
X122736457Y-72668314D01*
X122767885Y-72699742D01*
X122830742Y-72731171D01*
X122956457Y-72731171D01*
X123019314Y-72699742D01*
X123050742Y-72668314D01*
X123082171Y-72605457D01*
X123082171Y-72479742D01*
X123050742Y-72416885D01*
X123019314Y-72385457D01*
X122956457Y-72354028D01*
X122830742Y-72354028D01*
X122767885Y-72385457D01*
X122736457Y-72416885D01*
X122705028Y-72479742D01*
X122472971Y-71714571D02*
X122472971Y-71306000D01*
X122724400Y-71526000D01*
X122724400Y-71431714D01*
X122755828Y-71368857D01*
X122787257Y-71337428D01*
X122850114Y-71306000D01*
X123007257Y-71306000D01*
X123070114Y-71337428D01*
X123101542Y-71368857D01*
X123132971Y-71431714D01*
X123132971Y-71620285D01*
X123101542Y-71683142D01*
X123070114Y-71714571D01*
X122472971Y-71086000D02*
X122472971Y-70677428D01*
X122724400Y-70897428D01*
X122724400Y-70803142D01*
X122755828Y-70740285D01*
X122787257Y-70708857D01*
X122850114Y-70677428D01*
X123007257Y-70677428D01*
X123070114Y-70708857D01*
X123101542Y-70740285D01*
X123132971Y-70803142D01*
X123132971Y-70991714D01*
X123101542Y-71054571D01*
X123070114Y-71086000D01*
X122472971Y-70268857D02*
X122472971Y-70206000D01*
X122504400Y-70143142D01*
X122535828Y-70111714D01*
X122598685Y-70080285D01*
X122724400Y-70048857D01*
X122881542Y-70048857D01*
X123007257Y-70080285D01*
X123070114Y-70111714D01*
X123101542Y-70143142D01*
X123132971Y-70206000D01*
X123132971Y-70268857D01*
X123101542Y-70331714D01*
X123070114Y-70363142D01*
X123007257Y-70394571D01*
X122881542Y-70426000D01*
X122724400Y-70426000D01*
X122598685Y-70394571D01*
X122535828Y-70363142D01*
X122504400Y-70331714D01*
X122472971Y-70268857D01*
G04 #@! TO.C,R9*
X124707771Y-47455600D02*
X124393485Y-47675600D01*
X124707771Y-47832742D02*
X124047771Y-47832742D01*
X124047771Y-47581314D01*
X124079200Y-47518457D01*
X124110628Y-47487028D01*
X124173485Y-47455600D01*
X124267771Y-47455600D01*
X124330628Y-47487028D01*
X124362057Y-47518457D01*
X124393485Y-47581314D01*
X124393485Y-47832742D01*
X124707771Y-47141314D02*
X124707771Y-47015600D01*
X124676342Y-46952742D01*
X124644914Y-46921314D01*
X124550628Y-46858457D01*
X124424914Y-46827028D01*
X124173485Y-46827028D01*
X124110628Y-46858457D01*
X124079200Y-46889885D01*
X124047771Y-46952742D01*
X124047771Y-47078457D01*
X124079200Y-47141314D01*
X124110628Y-47172742D01*
X124173485Y-47204171D01*
X124330628Y-47204171D01*
X124393485Y-47172742D01*
X124424914Y-47141314D01*
X124456342Y-47078457D01*
X124456342Y-46952742D01*
X124424914Y-46889885D01*
X124393485Y-46858457D01*
X124330628Y-46827028D01*
X124168742Y-43402371D02*
X123791600Y-43402371D01*
X123980171Y-43402371D02*
X123980171Y-42742371D01*
X123917314Y-42836657D01*
X123854457Y-42899514D01*
X123791600Y-42930942D01*
X124577314Y-42742371D02*
X124640171Y-42742371D01*
X124703028Y-42773800D01*
X124734457Y-42805228D01*
X124765885Y-42868085D01*
X124797314Y-42993800D01*
X124797314Y-43150942D01*
X124765885Y-43276657D01*
X124734457Y-43339514D01*
X124703028Y-43370942D01*
X124640171Y-43402371D01*
X124577314Y-43402371D01*
X124514457Y-43370942D01*
X124483028Y-43339514D01*
X124451600Y-43276657D01*
X124420171Y-43150942D01*
X124420171Y-42993800D01*
X124451600Y-42868085D01*
X124483028Y-42805228D01*
X124514457Y-42773800D01*
X124577314Y-42742371D01*
X125080171Y-43402371D02*
X125080171Y-42742371D01*
X125143028Y-43150942D02*
X125331600Y-43402371D01*
X125331600Y-42962371D02*
X125080171Y-43213800D01*
G04 #@! TO.C,R10*
X126753514Y-65779771D02*
X126533514Y-65465485D01*
X126376371Y-65779771D02*
X126376371Y-65119771D01*
X126627800Y-65119771D01*
X126690657Y-65151200D01*
X126722085Y-65182628D01*
X126753514Y-65245485D01*
X126753514Y-65339771D01*
X126722085Y-65402628D01*
X126690657Y-65434057D01*
X126627800Y-65465485D01*
X126376371Y-65465485D01*
X127382085Y-65779771D02*
X127004942Y-65779771D01*
X127193514Y-65779771D02*
X127193514Y-65119771D01*
X127130657Y-65214057D01*
X127067800Y-65276914D01*
X127004942Y-65308342D01*
X127790657Y-65119771D02*
X127853514Y-65119771D01*
X127916371Y-65151200D01*
X127947800Y-65182628D01*
X127979228Y-65245485D01*
X128010657Y-65371200D01*
X128010657Y-65528342D01*
X127979228Y-65654057D01*
X127947800Y-65716914D01*
X127916371Y-65748342D01*
X127853514Y-65779771D01*
X127790657Y-65779771D01*
X127727800Y-65748342D01*
X127696371Y-65716914D01*
X127664942Y-65654057D01*
X127633514Y-65528342D01*
X127633514Y-65371200D01*
X127664942Y-65245485D01*
X127696371Y-65182628D01*
X127727800Y-65151200D01*
X127790657Y-65119771D01*
X126769028Y-66719571D02*
X126391885Y-66719571D01*
X126580457Y-66719571D02*
X126580457Y-66059571D01*
X126517600Y-66153857D01*
X126454742Y-66216714D01*
X126391885Y-66248142D01*
X127051885Y-66719571D02*
X127051885Y-66059571D01*
X127114742Y-66468142D02*
X127303314Y-66719571D01*
X127303314Y-66279571D02*
X127051885Y-66531000D01*
G04 #@! TO.C,R11*
X127196971Y-47896885D02*
X126882685Y-48116885D01*
X127196971Y-48274028D02*
X126536971Y-48274028D01*
X126536971Y-48022600D01*
X126568400Y-47959742D01*
X126599828Y-47928314D01*
X126662685Y-47896885D01*
X126756971Y-47896885D01*
X126819828Y-47928314D01*
X126851257Y-47959742D01*
X126882685Y-48022600D01*
X126882685Y-48274028D01*
X127196971Y-47268314D02*
X127196971Y-47645457D01*
X127196971Y-47456885D02*
X126536971Y-47456885D01*
X126631257Y-47519742D01*
X126694114Y-47582600D01*
X126725542Y-47645457D01*
X127196971Y-46639742D02*
X127196971Y-47016885D01*
X127196971Y-46828314D02*
X126536971Y-46828314D01*
X126631257Y-46891171D01*
X126694114Y-46954028D01*
X126725542Y-47016885D01*
X128162571Y-47025771D02*
X128162571Y-46617200D01*
X128414000Y-46837200D01*
X128414000Y-46742914D01*
X128445428Y-46680057D01*
X128476857Y-46648628D01*
X128539714Y-46617200D01*
X128696857Y-46617200D01*
X128759714Y-46648628D01*
X128791142Y-46680057D01*
X128822571Y-46742914D01*
X128822571Y-46931485D01*
X128791142Y-46994342D01*
X128759714Y-47025771D01*
X128162571Y-46397200D02*
X128162571Y-45988628D01*
X128414000Y-46208628D01*
X128414000Y-46114342D01*
X128445428Y-46051485D01*
X128476857Y-46020057D01*
X128539714Y-45988628D01*
X128696857Y-45988628D01*
X128759714Y-46020057D01*
X128791142Y-46051485D01*
X128822571Y-46114342D01*
X128822571Y-46302914D01*
X128791142Y-46365771D01*
X128759714Y-46397200D01*
X128162571Y-45580057D02*
X128162571Y-45517200D01*
X128194000Y-45454342D01*
X128225428Y-45422914D01*
X128288285Y-45391485D01*
X128414000Y-45360057D01*
X128571142Y-45360057D01*
X128696857Y-45391485D01*
X128759714Y-45422914D01*
X128791142Y-45454342D01*
X128822571Y-45517200D01*
X128822571Y-45580057D01*
X128791142Y-45642914D01*
X128759714Y-45674342D01*
X128696857Y-45705771D01*
X128571142Y-45737200D01*
X128414000Y-45737200D01*
X128288285Y-45705771D01*
X128225428Y-45674342D01*
X128194000Y-45642914D01*
X128162571Y-45580057D01*
G04 #@! TO.C,U2*
D16*
X108328590Y-74297942D02*
X107828590Y-74297942D01*
X108185733Y-74131276D01*
X107828590Y-73964609D01*
X108328590Y-73964609D01*
X108280971Y-73440800D02*
X108304780Y-73464609D01*
X108328590Y-73536038D01*
X108328590Y-73583657D01*
X108304780Y-73655085D01*
X108257161Y-73702704D01*
X108209542Y-73726514D01*
X108114304Y-73750323D01*
X108042876Y-73750323D01*
X107947638Y-73726514D01*
X107900019Y-73702704D01*
X107852400Y-73655085D01*
X107828590Y-73583657D01*
X107828590Y-73536038D01*
X107852400Y-73464609D01*
X107876209Y-73440800D01*
X108328590Y-73226514D02*
X107828590Y-73226514D01*
X107828590Y-73036038D01*
X107852400Y-72988419D01*
X107876209Y-72964609D01*
X107923828Y-72940800D01*
X107995257Y-72940800D01*
X108042876Y-72964609D01*
X108066685Y-72988419D01*
X108090495Y-73036038D01*
X108090495Y-73226514D01*
X107828590Y-72774133D02*
X107828590Y-72440800D01*
X108328590Y-72655085D01*
X107828590Y-72297942D02*
X107828590Y-71988419D01*
X108019066Y-72155085D01*
X108019066Y-72083657D01*
X108042876Y-72036038D01*
X108066685Y-72012228D01*
X108114304Y-71988419D01*
X108233352Y-71988419D01*
X108280971Y-72012228D01*
X108304780Y-72036038D01*
X108328590Y-72083657D01*
X108328590Y-72226514D01*
X108304780Y-72274133D01*
X108280971Y-72297942D01*
X108042876Y-71702704D02*
X108019066Y-71750323D01*
X107995257Y-71774133D01*
X107947638Y-71797942D01*
X107923828Y-71797942D01*
X107876209Y-71774133D01*
X107852400Y-71750323D01*
X107828590Y-71702704D01*
X107828590Y-71607466D01*
X107852400Y-71559847D01*
X107876209Y-71536038D01*
X107923828Y-71512228D01*
X107947638Y-71512228D01*
X107995257Y-71536038D01*
X108019066Y-71559847D01*
X108042876Y-71607466D01*
X108042876Y-71702704D01*
X108066685Y-71750323D01*
X108090495Y-71774133D01*
X108138114Y-71797942D01*
X108233352Y-71797942D01*
X108280971Y-71774133D01*
X108304780Y-71750323D01*
X108328590Y-71702704D01*
X108328590Y-71607466D01*
X108304780Y-71559847D01*
X108280971Y-71536038D01*
X108233352Y-71512228D01*
X108138114Y-71512228D01*
X108090495Y-71536038D01*
X108066685Y-71559847D01*
X108042876Y-71607466D01*
X107828590Y-71345561D02*
X107828590Y-71036038D01*
X108019066Y-71202704D01*
X108019066Y-71131276D01*
X108042876Y-71083657D01*
X108066685Y-71059847D01*
X108114304Y-71036038D01*
X108233352Y-71036038D01*
X108280971Y-71059847D01*
X108304780Y-71083657D01*
X108328590Y-71131276D01*
X108328590Y-71274133D01*
X108304780Y-71321752D01*
X108280971Y-71345561D01*
X108328590Y-70559847D02*
X108328590Y-70845561D01*
X108328590Y-70702704D02*
X107828590Y-70702704D01*
X107900019Y-70750323D01*
X107947638Y-70797942D01*
X107971447Y-70845561D01*
G04 #@! TO.C,U3*
D13*
X122833428Y-61004571D02*
X122833428Y-60344571D01*
X123053428Y-60816000D01*
X123273428Y-60344571D01*
X123273428Y-61004571D01*
X123556285Y-60816000D02*
X123870571Y-60816000D01*
X123493428Y-61004571D02*
X123713428Y-60344571D01*
X123933428Y-61004571D01*
X124090571Y-60344571D02*
X124530571Y-61004571D01*
X124530571Y-60344571D02*
X124090571Y-61004571D01*
X125127714Y-61004571D02*
X124750571Y-61004571D01*
X124939142Y-61004571D02*
X124939142Y-60344571D01*
X124876285Y-60438857D01*
X124813428Y-60501714D01*
X124750571Y-60533142D01*
X125347714Y-60344571D02*
X125787714Y-60344571D01*
X125504857Y-61004571D01*
X126164857Y-60344571D02*
X126227714Y-60344571D01*
X126290571Y-60376000D01*
X126322000Y-60407428D01*
X126353428Y-60470285D01*
X126384857Y-60596000D01*
X126384857Y-60753142D01*
X126353428Y-60878857D01*
X126322000Y-60941714D01*
X126290571Y-60973142D01*
X126227714Y-61004571D01*
X126164857Y-61004571D01*
X126102000Y-60973142D01*
X126070571Y-60941714D01*
X126039142Y-60878857D01*
X126007714Y-60753142D01*
X126007714Y-60596000D01*
X126039142Y-60470285D01*
X126070571Y-60407428D01*
X126102000Y-60376000D01*
X126164857Y-60344571D01*
X126950571Y-60564571D02*
X126950571Y-61004571D01*
X126793428Y-60313142D02*
X126636285Y-60784571D01*
X127044857Y-60784571D01*
X127233428Y-60344571D02*
X127673428Y-61004571D01*
X127673428Y-60344571D02*
X127233428Y-61004571D01*
G04 #@! TO.C,D2*
X118308657Y-69792971D02*
X118308657Y-69132971D01*
X118465800Y-69132971D01*
X118560085Y-69164400D01*
X118622942Y-69227257D01*
X118654371Y-69290114D01*
X118685800Y-69415828D01*
X118685800Y-69510114D01*
X118654371Y-69635828D01*
X118622942Y-69698685D01*
X118560085Y-69761542D01*
X118465800Y-69792971D01*
X118308657Y-69792971D01*
X118937228Y-69195828D02*
X118968657Y-69164400D01*
X119031514Y-69132971D01*
X119188657Y-69132971D01*
X119251514Y-69164400D01*
X119282942Y-69195828D01*
X119314371Y-69258685D01*
X119314371Y-69321542D01*
X119282942Y-69415828D01*
X118905800Y-69792971D01*
X119314371Y-69792971D01*
G04 #@! TO.C,D3*
D15*
X124382980Y-41919304D02*
X124406790Y-41847876D01*
X124406790Y-41728828D01*
X124382980Y-41681209D01*
X124359171Y-41657400D01*
X124311552Y-41633590D01*
X124263933Y-41633590D01*
X124216314Y-41657400D01*
X124192504Y-41681209D01*
X124168695Y-41728828D01*
X124144885Y-41824066D01*
X124121076Y-41871685D01*
X124097266Y-41895495D01*
X124049647Y-41919304D01*
X124002028Y-41919304D01*
X123954409Y-41895495D01*
X123930600Y-41871685D01*
X123906790Y-41824066D01*
X123906790Y-41705019D01*
X123930600Y-41633590D01*
X124263933Y-41443114D02*
X124263933Y-41205019D01*
X124406790Y-41490733D02*
X123906790Y-41324066D01*
X124406790Y-41157400D01*
X124406790Y-40990733D02*
X123906790Y-40990733D01*
X124263933Y-40824066D01*
X123906790Y-40657400D01*
X124406790Y-40657400D01*
X124406790Y-40419304D02*
X123906790Y-40419304D01*
X123906790Y-40300257D01*
X123930600Y-40228828D01*
X123978219Y-40181209D01*
X124025838Y-40157400D01*
X124121076Y-40133590D01*
X124192504Y-40133590D01*
X124287742Y-40157400D01*
X124335361Y-40181209D01*
X124382980Y-40228828D01*
X124406790Y-40300257D01*
X124406790Y-40419304D01*
X124454409Y-40038352D02*
X124454409Y-39657400D01*
X124406790Y-39300257D02*
X124406790Y-39538352D01*
X123906790Y-39538352D01*
X124144885Y-39133590D02*
X124144885Y-38966923D01*
X124406790Y-38895495D02*
X124406790Y-39133590D01*
X123906790Y-39133590D01*
X123906790Y-38895495D01*
X124406790Y-38681209D02*
X123906790Y-38681209D01*
X123906790Y-38562161D01*
X123930600Y-38490733D01*
X123978219Y-38443114D01*
X124025838Y-38419304D01*
X124121076Y-38395495D01*
X124192504Y-38395495D01*
X124287742Y-38419304D01*
X124335361Y-38443114D01*
X124382980Y-38490733D01*
X124406790Y-38562161D01*
X124406790Y-38681209D01*
G04 #@! TO.C,IC1*
X127062666Y-81963333D02*
X126362666Y-81963333D01*
X126996000Y-81230000D02*
X127029333Y-81263333D01*
X127062666Y-81363333D01*
X127062666Y-81430000D01*
X127029333Y-81530000D01*
X126962666Y-81596666D01*
X126896000Y-81630000D01*
X126762666Y-81663333D01*
X126662666Y-81663333D01*
X126529333Y-81630000D01*
X126462666Y-81596666D01*
X126396000Y-81530000D01*
X126362666Y-81430000D01*
X126362666Y-81363333D01*
X126396000Y-81263333D01*
X126429333Y-81230000D01*
X127062666Y-80563333D02*
X127062666Y-80963333D01*
X127062666Y-80763333D02*
X126362666Y-80763333D01*
X126462666Y-80830000D01*
X126529333Y-80896666D01*
X126562666Y-80963333D01*
X129250266Y-84048333D02*
X129250266Y-83715000D01*
X129450266Y-84115000D02*
X128750266Y-83881666D01*
X129450266Y-83648333D01*
X129450266Y-83415000D02*
X128750266Y-83415000D01*
X128750266Y-83248333D01*
X128783600Y-83148333D01*
X128850266Y-83081666D01*
X128916933Y-83048333D01*
X129050266Y-83015000D01*
X129150266Y-83015000D01*
X129283600Y-83048333D01*
X129350266Y-83081666D01*
X129416933Y-83148333D01*
X129450266Y-83248333D01*
X129450266Y-83415000D01*
X128750266Y-82781666D02*
X129450266Y-82315000D01*
X128750266Y-82315000D02*
X129450266Y-82781666D01*
X129450266Y-81715000D02*
X129450266Y-82048333D01*
X128750266Y-82048333D01*
X128750266Y-81548333D02*
X128750266Y-81115000D01*
X129016933Y-81348333D01*
X129016933Y-81248333D01*
X129050266Y-81181666D01*
X129083600Y-81148333D01*
X129150266Y-81115000D01*
X129316933Y-81115000D01*
X129383600Y-81148333D01*
X129416933Y-81181666D01*
X129450266Y-81248333D01*
X129450266Y-81448333D01*
X129416933Y-81515000D01*
X129383600Y-81548333D01*
X128983600Y-80515000D02*
X129450266Y-80515000D01*
X128716933Y-80681666D02*
X129216933Y-80848333D01*
X129216933Y-80415000D01*
X128750266Y-79815000D02*
X128750266Y-80148333D01*
X129083600Y-80181666D01*
X129050266Y-80148333D01*
X129016933Y-80081666D01*
X129016933Y-79915000D01*
X129050266Y-79848333D01*
X129083600Y-79815000D01*
X129150266Y-79781666D01*
X129316933Y-79781666D01*
X129383600Y-79815000D01*
X129416933Y-79848333D01*
X129450266Y-79915000D01*
X129450266Y-80081666D01*
X129416933Y-80148333D01*
X129383600Y-80181666D01*
G04 #@! TD*
M02*
