G04 #@! TF.GenerationSoftware,KiCad,Pcbnew,(5.0.1)-4*
G04 #@! TF.CreationDate,2019-11-10T23:47:17+01:00*
G04 #@! TF.ProjectId,rak4260,72616B343236302E6B696361645F7063,0.3*
G04 #@! TF.SameCoordinates,Original*
G04 #@! TF.FileFunction,Copper,L2,Bot,Signal*
G04 #@! TF.FilePolarity,Positive*
%FSLAX46Y46*%
G04 Gerber Fmt 4.6, Leading zero omitted, Abs format (unit mm)*
G04 Created by KiCad (PCBNEW (5.0.1)-4) date 10/11/2019 23:47:17*
%MOMM*%
%LPD*%
G01*
G04 APERTURE LIST*
G04 #@! TA.AperFunction,ComponentPad*
%ADD10R,1.700000X1.700000*%
G04 #@! TD*
G04 #@! TA.AperFunction,ComponentPad*
%ADD11C,1.450000*%
G04 #@! TD*
G04 #@! TA.AperFunction,ComponentPad*
%ADD12O,1.900000X1.200000*%
G04 #@! TD*
G04 #@! TA.AperFunction,ComponentPad*
%ADD13C,1.524000*%
G04 #@! TD*
G04 #@! TA.AperFunction,ComponentPad*
%ADD14C,2.000000*%
G04 #@! TD*
G04 #@! TA.AperFunction,Conductor*
%ADD15C,0.100000*%
G04 #@! TD*
G04 #@! TA.AperFunction,SMDPad,CuDef*
%ADD16C,1.000000*%
G04 #@! TD*
G04 #@! TA.AperFunction,SMDPad,CuDef*
%ADD17C,1.600000*%
G04 #@! TD*
G04 #@! TA.AperFunction,SMDPad,CuDef*
%ADD18C,0.500000*%
G04 #@! TD*
G04 #@! TA.AperFunction,SMDPad,CuDef*
%ADD19R,1.270000X1.470000*%
G04 #@! TD*
G04 #@! TA.AperFunction,SMDPad,CuDef*
%ADD20R,0.800000X0.900000*%
G04 #@! TD*
G04 #@! TA.AperFunction,SMDPad,CuDef*
%ADD21C,0.975000*%
G04 #@! TD*
G04 #@! TA.AperFunction,SMDPad,CuDef*
%ADD22R,1.700000X1.700000*%
G04 #@! TD*
G04 #@! TA.AperFunction,SMDPad,CuDef*
%ADD23O,1.700000X1.700000*%
G04 #@! TD*
G04 #@! TA.AperFunction,SMDPad,CuDef*
%ADD24C,1.150000*%
G04 #@! TD*
G04 #@! TA.AperFunction,SMDPad,CuDef*
%ADD25R,1.000000X2.510000*%
G04 #@! TD*
G04 #@! TA.AperFunction,ViaPad*
%ADD26C,0.800000*%
G04 #@! TD*
G04 #@! TA.AperFunction,Conductor*
%ADD27C,0.250000*%
G04 #@! TD*
G04 #@! TA.AperFunction,Conductor*
%ADD28C,0.254000*%
G04 #@! TD*
G04 APERTURE END LIST*
D10*
G04 #@! TO.P,AE1,1*
G04 #@! TO.N,Net-(AE1-Pad1)*
X103505000Y-39370000D03*
G04 #@! TD*
D11*
G04 #@! TO.P,J1,6*
G04 #@! TO.N,GND*
X105856500Y-71795000D03*
X105856500Y-76795000D03*
D12*
X103156500Y-70795000D03*
X103156500Y-77795000D03*
G04 #@! TD*
D13*
G04 #@! TO.P,LCD1,1*
G04 #@! TO.N,/SDA*
X119253000Y-44196000D03*
G04 #@! TO.P,LCD1,2*
G04 #@! TO.N,/SCL*
X116713000Y-44196000D03*
G04 #@! TO.P,LCD1,3*
G04 #@! TO.N,+3V3*
X114173000Y-44196000D03*
G04 #@! TO.P,LCD1,4*
G04 #@! TO.N,GND*
X111633000Y-44196000D03*
D14*
G04 #@! TO.P,LCD1,*
G04 #@! TO.N,*
X103481000Y-68096000D03*
X127381000Y-68096000D03*
G04 #@! TD*
D15*
G04 #@! TO.N,GND*
G04 #@! TO.C,J2*
G36*
X122464504Y-43995204D02*
X122488773Y-43998804D01*
X122512571Y-44004765D01*
X122535671Y-44013030D01*
X122557849Y-44023520D01*
X122578893Y-44036133D01*
X122598598Y-44050747D01*
X122616777Y-44067223D01*
X122633253Y-44085402D01*
X122647867Y-44105107D01*
X122660480Y-44126151D01*
X122670970Y-44148329D01*
X122679235Y-44171429D01*
X122685196Y-44195227D01*
X122688796Y-44219496D01*
X122690000Y-44244000D01*
X122690000Y-49244000D01*
X122688796Y-49268504D01*
X122685196Y-49292773D01*
X122679235Y-49316571D01*
X122670970Y-49339671D01*
X122660480Y-49361849D01*
X122647867Y-49382893D01*
X122633253Y-49402598D01*
X122616777Y-49420777D01*
X122598598Y-49437253D01*
X122578893Y-49451867D01*
X122557849Y-49464480D01*
X122535671Y-49474970D01*
X122512571Y-49483235D01*
X122488773Y-49489196D01*
X122464504Y-49492796D01*
X122440000Y-49494000D01*
X121940000Y-49494000D01*
X121915496Y-49492796D01*
X121891227Y-49489196D01*
X121867429Y-49483235D01*
X121844329Y-49474970D01*
X121822151Y-49464480D01*
X121801107Y-49451867D01*
X121781402Y-49437253D01*
X121763223Y-49420777D01*
X121746747Y-49402598D01*
X121732133Y-49382893D01*
X121719520Y-49361849D01*
X121709030Y-49339671D01*
X121700765Y-49316571D01*
X121694804Y-49292773D01*
X121691204Y-49268504D01*
X121690000Y-49244000D01*
X121690000Y-44244000D01*
X121691204Y-44219496D01*
X121694804Y-44195227D01*
X121700765Y-44171429D01*
X121709030Y-44148329D01*
X121719520Y-44126151D01*
X121732133Y-44105107D01*
X121746747Y-44085402D01*
X121763223Y-44067223D01*
X121781402Y-44050747D01*
X121801107Y-44036133D01*
X121822151Y-44023520D01*
X121844329Y-44013030D01*
X121867429Y-44004765D01*
X121891227Y-43998804D01*
X121915496Y-43995204D01*
X121940000Y-43994000D01*
X122440000Y-43994000D01*
X122464504Y-43995204D01*
X122464504Y-43995204D01*
G37*
D16*
G04 #@! TD*
G04 #@! TO.P,J2,1*
G04 #@! TO.N,GND*
X122190000Y-46744000D03*
D15*
G04 #@! TO.N,VBAT*
G04 #@! TO.C,J2*
G36*
X124464504Y-43995204D02*
X124488773Y-43998804D01*
X124512571Y-44004765D01*
X124535671Y-44013030D01*
X124557849Y-44023520D01*
X124578893Y-44036133D01*
X124598598Y-44050747D01*
X124616777Y-44067223D01*
X124633253Y-44085402D01*
X124647867Y-44105107D01*
X124660480Y-44126151D01*
X124670970Y-44148329D01*
X124679235Y-44171429D01*
X124685196Y-44195227D01*
X124688796Y-44219496D01*
X124690000Y-44244000D01*
X124690000Y-49244000D01*
X124688796Y-49268504D01*
X124685196Y-49292773D01*
X124679235Y-49316571D01*
X124670970Y-49339671D01*
X124660480Y-49361849D01*
X124647867Y-49382893D01*
X124633253Y-49402598D01*
X124616777Y-49420777D01*
X124598598Y-49437253D01*
X124578893Y-49451867D01*
X124557849Y-49464480D01*
X124535671Y-49474970D01*
X124512571Y-49483235D01*
X124488773Y-49489196D01*
X124464504Y-49492796D01*
X124440000Y-49494000D01*
X123940000Y-49494000D01*
X123915496Y-49492796D01*
X123891227Y-49489196D01*
X123867429Y-49483235D01*
X123844329Y-49474970D01*
X123822151Y-49464480D01*
X123801107Y-49451867D01*
X123781402Y-49437253D01*
X123763223Y-49420777D01*
X123746747Y-49402598D01*
X123732133Y-49382893D01*
X123719520Y-49361849D01*
X123709030Y-49339671D01*
X123700765Y-49316571D01*
X123694804Y-49292773D01*
X123691204Y-49268504D01*
X123690000Y-49244000D01*
X123690000Y-44244000D01*
X123691204Y-44219496D01*
X123694804Y-44195227D01*
X123700765Y-44171429D01*
X123709030Y-44148329D01*
X123719520Y-44126151D01*
X123732133Y-44105107D01*
X123746747Y-44085402D01*
X123763223Y-44067223D01*
X123781402Y-44050747D01*
X123801107Y-44036133D01*
X123822151Y-44023520D01*
X123844329Y-44013030D01*
X123867429Y-44004765D01*
X123891227Y-43998804D01*
X123915496Y-43995204D01*
X123940000Y-43994000D01*
X124440000Y-43994000D01*
X124464504Y-43995204D01*
X124464504Y-43995204D01*
G37*
D16*
G04 #@! TD*
G04 #@! TO.P,J2,2*
G04 #@! TO.N,VBAT*
X124190000Y-46744000D03*
D15*
G04 #@! TO.N,N/C*
G04 #@! TO.C,J2*
G36*
X120364504Y-47495204D02*
X120388773Y-47498804D01*
X120412571Y-47504765D01*
X120435671Y-47513030D01*
X120457849Y-47523520D01*
X120478893Y-47536133D01*
X120498598Y-47550747D01*
X120516777Y-47567223D01*
X120533253Y-47585402D01*
X120547867Y-47605107D01*
X120560480Y-47626151D01*
X120570970Y-47648329D01*
X120579235Y-47671429D01*
X120585196Y-47695227D01*
X120588796Y-47719496D01*
X120590000Y-47744000D01*
X120590000Y-50244000D01*
X120588796Y-50268504D01*
X120585196Y-50292773D01*
X120579235Y-50316571D01*
X120570970Y-50339671D01*
X120560480Y-50361849D01*
X120547867Y-50382893D01*
X120533253Y-50402598D01*
X120516777Y-50420777D01*
X120498598Y-50437253D01*
X120478893Y-50451867D01*
X120457849Y-50464480D01*
X120435671Y-50474970D01*
X120412571Y-50483235D01*
X120388773Y-50489196D01*
X120364504Y-50492796D01*
X120340000Y-50494000D01*
X119240000Y-50494000D01*
X119215496Y-50492796D01*
X119191227Y-50489196D01*
X119167429Y-50483235D01*
X119144329Y-50474970D01*
X119122151Y-50464480D01*
X119101107Y-50451867D01*
X119081402Y-50437253D01*
X119063223Y-50420777D01*
X119046747Y-50402598D01*
X119032133Y-50382893D01*
X119019520Y-50361849D01*
X119009030Y-50339671D01*
X119000765Y-50316571D01*
X118994804Y-50292773D01*
X118991204Y-50268504D01*
X118990000Y-50244000D01*
X118990000Y-47744000D01*
X118991204Y-47719496D01*
X118994804Y-47695227D01*
X119000765Y-47671429D01*
X119009030Y-47648329D01*
X119019520Y-47626151D01*
X119032133Y-47605107D01*
X119046747Y-47585402D01*
X119063223Y-47567223D01*
X119081402Y-47550747D01*
X119101107Y-47536133D01*
X119122151Y-47523520D01*
X119144329Y-47513030D01*
X119167429Y-47504765D01*
X119191227Y-47498804D01*
X119215496Y-47495204D01*
X119240000Y-47494000D01*
X120340000Y-47494000D01*
X120364504Y-47495204D01*
X120364504Y-47495204D01*
G37*
D17*
G04 #@! TD*
G04 #@! TO.P,J2,MP*
G04 #@! TO.N,N/C*
X119790000Y-48994000D03*
D15*
G04 #@! TO.N,N/C*
G04 #@! TO.C,J2*
G36*
X127164504Y-47495204D02*
X127188773Y-47498804D01*
X127212571Y-47504765D01*
X127235671Y-47513030D01*
X127257849Y-47523520D01*
X127278893Y-47536133D01*
X127298598Y-47550747D01*
X127316777Y-47567223D01*
X127333253Y-47585402D01*
X127347867Y-47605107D01*
X127360480Y-47626151D01*
X127370970Y-47648329D01*
X127379235Y-47671429D01*
X127385196Y-47695227D01*
X127388796Y-47719496D01*
X127390000Y-47744000D01*
X127390000Y-50244000D01*
X127388796Y-50268504D01*
X127385196Y-50292773D01*
X127379235Y-50316571D01*
X127370970Y-50339671D01*
X127360480Y-50361849D01*
X127347867Y-50382893D01*
X127333253Y-50402598D01*
X127316777Y-50420777D01*
X127298598Y-50437253D01*
X127278893Y-50451867D01*
X127257849Y-50464480D01*
X127235671Y-50474970D01*
X127212571Y-50483235D01*
X127188773Y-50489196D01*
X127164504Y-50492796D01*
X127140000Y-50494000D01*
X126040000Y-50494000D01*
X126015496Y-50492796D01*
X125991227Y-50489196D01*
X125967429Y-50483235D01*
X125944329Y-50474970D01*
X125922151Y-50464480D01*
X125901107Y-50451867D01*
X125881402Y-50437253D01*
X125863223Y-50420777D01*
X125846747Y-50402598D01*
X125832133Y-50382893D01*
X125819520Y-50361849D01*
X125809030Y-50339671D01*
X125800765Y-50316571D01*
X125794804Y-50292773D01*
X125791204Y-50268504D01*
X125790000Y-50244000D01*
X125790000Y-47744000D01*
X125791204Y-47719496D01*
X125794804Y-47695227D01*
X125800765Y-47671429D01*
X125809030Y-47648329D01*
X125819520Y-47626151D01*
X125832133Y-47605107D01*
X125846747Y-47585402D01*
X125863223Y-47567223D01*
X125881402Y-47550747D01*
X125901107Y-47536133D01*
X125922151Y-47523520D01*
X125944329Y-47513030D01*
X125967429Y-47504765D01*
X125991227Y-47498804D01*
X126015496Y-47495204D01*
X126040000Y-47494000D01*
X127140000Y-47494000D01*
X127164504Y-47495204D01*
X127164504Y-47495204D01*
G37*
D17*
G04 #@! TD*
G04 #@! TO.P,J2,MP*
G04 #@! TO.N,N/C*
X126590000Y-48994000D03*
D18*
G04 #@! TO.P,JP1,1*
G04 #@! TO.N,Net-(JP1-Pad1)*
X126365000Y-55260000D03*
D15*
G04 #@! TD*
G04 #@! TO.N,Net-(JP1-Pad1)*
G04 #@! TO.C,JP1*
G36*
X127115000Y-54760000D02*
X127115000Y-55260000D01*
X127114398Y-55260000D01*
X127114398Y-55284534D01*
X127109588Y-55333365D01*
X127100016Y-55381490D01*
X127085772Y-55428445D01*
X127066995Y-55473778D01*
X127043864Y-55517051D01*
X127016604Y-55557850D01*
X126985476Y-55595779D01*
X126950779Y-55630476D01*
X126912850Y-55661604D01*
X126872051Y-55688864D01*
X126828778Y-55711995D01*
X126783445Y-55730772D01*
X126736490Y-55745016D01*
X126688365Y-55754588D01*
X126639534Y-55759398D01*
X126615000Y-55759398D01*
X126615000Y-55760000D01*
X126115000Y-55760000D01*
X126115000Y-55759398D01*
X126090466Y-55759398D01*
X126041635Y-55754588D01*
X125993510Y-55745016D01*
X125946555Y-55730772D01*
X125901222Y-55711995D01*
X125857949Y-55688864D01*
X125817150Y-55661604D01*
X125779221Y-55630476D01*
X125744524Y-55595779D01*
X125713396Y-55557850D01*
X125686136Y-55517051D01*
X125663005Y-55473778D01*
X125644228Y-55428445D01*
X125629984Y-55381490D01*
X125620412Y-55333365D01*
X125615602Y-55284534D01*
X125615602Y-55260000D01*
X125615000Y-55260000D01*
X125615000Y-54760000D01*
X127115000Y-54760000D01*
X127115000Y-54760000D01*
G37*
D18*
G04 #@! TO.P,JP1,2*
G04 #@! TO.N,/AlertB*
X126365000Y-53960000D03*
D15*
G04 #@! TD*
G04 #@! TO.N,/AlertB*
G04 #@! TO.C,JP1*
G36*
X125615602Y-53960000D02*
X125615602Y-53935466D01*
X125620412Y-53886635D01*
X125629984Y-53838510D01*
X125644228Y-53791555D01*
X125663005Y-53746222D01*
X125686136Y-53702949D01*
X125713396Y-53662150D01*
X125744524Y-53624221D01*
X125779221Y-53589524D01*
X125817150Y-53558396D01*
X125857949Y-53531136D01*
X125901222Y-53508005D01*
X125946555Y-53489228D01*
X125993510Y-53474984D01*
X126041635Y-53465412D01*
X126090466Y-53460602D01*
X126115000Y-53460602D01*
X126115000Y-53460000D01*
X126615000Y-53460000D01*
X126615000Y-53460602D01*
X126639534Y-53460602D01*
X126688365Y-53465412D01*
X126736490Y-53474984D01*
X126783445Y-53489228D01*
X126828778Y-53508005D01*
X126872051Y-53531136D01*
X126912850Y-53558396D01*
X126950779Y-53589524D01*
X126985476Y-53624221D01*
X127016604Y-53662150D01*
X127043864Y-53702949D01*
X127066995Y-53746222D01*
X127085772Y-53791555D01*
X127100016Y-53838510D01*
X127109588Y-53886635D01*
X127114398Y-53935466D01*
X127114398Y-53960000D01*
X127115000Y-53960000D01*
X127115000Y-54460000D01*
X125615000Y-54460000D01*
X125615000Y-53960000D01*
X125615602Y-53960000D01*
X125615602Y-53960000D01*
G37*
D19*
G04 #@! TO.P,D4,A*
G04 #@! TO.N,V_Solar*
X108848000Y-70866000D03*
G04 #@! TO.P,D4,C*
G04 #@! TO.N,V_BUS*
X113148000Y-70866000D03*
G04 #@! TD*
D20*
G04 #@! TO.P,Q1,1*
G04 #@! TO.N,Net-(Q1-Pad1)*
X115758000Y-59166000D03*
G04 #@! TO.P,Q1,2*
G04 #@! TO.N,GND*
X113858000Y-59166000D03*
G04 #@! TO.P,Q1,3*
G04 #@! TO.N,Net-(D5-Pad2)*
X114808000Y-57166000D03*
G04 #@! TD*
D15*
G04 #@! TO.N,/PinMotor*
G04 #@! TO.C,R12*
G36*
X114138142Y-60261174D02*
X114161803Y-60264684D01*
X114185007Y-60270496D01*
X114207529Y-60278554D01*
X114229153Y-60288782D01*
X114249670Y-60301079D01*
X114268883Y-60315329D01*
X114286607Y-60331393D01*
X114302671Y-60349117D01*
X114316921Y-60368330D01*
X114329218Y-60388847D01*
X114339446Y-60410471D01*
X114347504Y-60432993D01*
X114353316Y-60456197D01*
X114356826Y-60479858D01*
X114358000Y-60503750D01*
X114358000Y-61416250D01*
X114356826Y-61440142D01*
X114353316Y-61463803D01*
X114347504Y-61487007D01*
X114339446Y-61509529D01*
X114329218Y-61531153D01*
X114316921Y-61551670D01*
X114302671Y-61570883D01*
X114286607Y-61588607D01*
X114268883Y-61604671D01*
X114249670Y-61618921D01*
X114229153Y-61631218D01*
X114207529Y-61641446D01*
X114185007Y-61649504D01*
X114161803Y-61655316D01*
X114138142Y-61658826D01*
X114114250Y-61660000D01*
X113626750Y-61660000D01*
X113602858Y-61658826D01*
X113579197Y-61655316D01*
X113555993Y-61649504D01*
X113533471Y-61641446D01*
X113511847Y-61631218D01*
X113491330Y-61618921D01*
X113472117Y-61604671D01*
X113454393Y-61588607D01*
X113438329Y-61570883D01*
X113424079Y-61551670D01*
X113411782Y-61531153D01*
X113401554Y-61509529D01*
X113393496Y-61487007D01*
X113387684Y-61463803D01*
X113384174Y-61440142D01*
X113383000Y-61416250D01*
X113383000Y-60503750D01*
X113384174Y-60479858D01*
X113387684Y-60456197D01*
X113393496Y-60432993D01*
X113401554Y-60410471D01*
X113411782Y-60388847D01*
X113424079Y-60368330D01*
X113438329Y-60349117D01*
X113454393Y-60331393D01*
X113472117Y-60315329D01*
X113491330Y-60301079D01*
X113511847Y-60288782D01*
X113533471Y-60278554D01*
X113555993Y-60270496D01*
X113579197Y-60264684D01*
X113602858Y-60261174D01*
X113626750Y-60260000D01*
X114114250Y-60260000D01*
X114138142Y-60261174D01*
X114138142Y-60261174D01*
G37*
D21*
G04 #@! TD*
G04 #@! TO.P,R12,1*
G04 #@! TO.N,/PinMotor*
X113870500Y-60960000D03*
D15*
G04 #@! TO.N,Net-(Q1-Pad1)*
G04 #@! TO.C,R12*
G36*
X116013142Y-60261174D02*
X116036803Y-60264684D01*
X116060007Y-60270496D01*
X116082529Y-60278554D01*
X116104153Y-60288782D01*
X116124670Y-60301079D01*
X116143883Y-60315329D01*
X116161607Y-60331393D01*
X116177671Y-60349117D01*
X116191921Y-60368330D01*
X116204218Y-60388847D01*
X116214446Y-60410471D01*
X116222504Y-60432993D01*
X116228316Y-60456197D01*
X116231826Y-60479858D01*
X116233000Y-60503750D01*
X116233000Y-61416250D01*
X116231826Y-61440142D01*
X116228316Y-61463803D01*
X116222504Y-61487007D01*
X116214446Y-61509529D01*
X116204218Y-61531153D01*
X116191921Y-61551670D01*
X116177671Y-61570883D01*
X116161607Y-61588607D01*
X116143883Y-61604671D01*
X116124670Y-61618921D01*
X116104153Y-61631218D01*
X116082529Y-61641446D01*
X116060007Y-61649504D01*
X116036803Y-61655316D01*
X116013142Y-61658826D01*
X115989250Y-61660000D01*
X115501750Y-61660000D01*
X115477858Y-61658826D01*
X115454197Y-61655316D01*
X115430993Y-61649504D01*
X115408471Y-61641446D01*
X115386847Y-61631218D01*
X115366330Y-61618921D01*
X115347117Y-61604671D01*
X115329393Y-61588607D01*
X115313329Y-61570883D01*
X115299079Y-61551670D01*
X115286782Y-61531153D01*
X115276554Y-61509529D01*
X115268496Y-61487007D01*
X115262684Y-61463803D01*
X115259174Y-61440142D01*
X115258000Y-61416250D01*
X115258000Y-60503750D01*
X115259174Y-60479858D01*
X115262684Y-60456197D01*
X115268496Y-60432993D01*
X115276554Y-60410471D01*
X115286782Y-60388847D01*
X115299079Y-60368330D01*
X115313329Y-60349117D01*
X115329393Y-60331393D01*
X115347117Y-60315329D01*
X115366330Y-60301079D01*
X115386847Y-60288782D01*
X115408471Y-60278554D01*
X115430993Y-60270496D01*
X115454197Y-60264684D01*
X115477858Y-60261174D01*
X115501750Y-60260000D01*
X115989250Y-60260000D01*
X116013142Y-60261174D01*
X116013142Y-60261174D01*
G37*
D21*
G04 #@! TD*
G04 #@! TO.P,R12,2*
G04 #@! TO.N,Net-(Q1-Pad1)*
X115745500Y-60960000D03*
D15*
G04 #@! TO.N,Net-(IC1-Pad7)*
G04 #@! TO.C,R13*
G36*
X127189142Y-77025174D02*
X127212803Y-77028684D01*
X127236007Y-77034496D01*
X127258529Y-77042554D01*
X127280153Y-77052782D01*
X127300670Y-77065079D01*
X127319883Y-77079329D01*
X127337607Y-77095393D01*
X127353671Y-77113117D01*
X127367921Y-77132330D01*
X127380218Y-77152847D01*
X127390446Y-77174471D01*
X127398504Y-77196993D01*
X127404316Y-77220197D01*
X127407826Y-77243858D01*
X127409000Y-77267750D01*
X127409000Y-78180250D01*
X127407826Y-78204142D01*
X127404316Y-78227803D01*
X127398504Y-78251007D01*
X127390446Y-78273529D01*
X127380218Y-78295153D01*
X127367921Y-78315670D01*
X127353671Y-78334883D01*
X127337607Y-78352607D01*
X127319883Y-78368671D01*
X127300670Y-78382921D01*
X127280153Y-78395218D01*
X127258529Y-78405446D01*
X127236007Y-78413504D01*
X127212803Y-78419316D01*
X127189142Y-78422826D01*
X127165250Y-78424000D01*
X126677750Y-78424000D01*
X126653858Y-78422826D01*
X126630197Y-78419316D01*
X126606993Y-78413504D01*
X126584471Y-78405446D01*
X126562847Y-78395218D01*
X126542330Y-78382921D01*
X126523117Y-78368671D01*
X126505393Y-78352607D01*
X126489329Y-78334883D01*
X126475079Y-78315670D01*
X126462782Y-78295153D01*
X126452554Y-78273529D01*
X126444496Y-78251007D01*
X126438684Y-78227803D01*
X126435174Y-78204142D01*
X126434000Y-78180250D01*
X126434000Y-77267750D01*
X126435174Y-77243858D01*
X126438684Y-77220197D01*
X126444496Y-77196993D01*
X126452554Y-77174471D01*
X126462782Y-77152847D01*
X126475079Y-77132330D01*
X126489329Y-77113117D01*
X126505393Y-77095393D01*
X126523117Y-77079329D01*
X126542330Y-77065079D01*
X126562847Y-77052782D01*
X126584471Y-77042554D01*
X126606993Y-77034496D01*
X126630197Y-77028684D01*
X126653858Y-77025174D01*
X126677750Y-77024000D01*
X127165250Y-77024000D01*
X127189142Y-77025174D01*
X127189142Y-77025174D01*
G37*
D21*
G04 #@! TD*
G04 #@! TO.P,R13,1*
G04 #@! TO.N,Net-(IC1-Pad7)*
X126921500Y-77724000D03*
D15*
G04 #@! TO.N,+3V3*
G04 #@! TO.C,R13*
G36*
X125314142Y-77025174D02*
X125337803Y-77028684D01*
X125361007Y-77034496D01*
X125383529Y-77042554D01*
X125405153Y-77052782D01*
X125425670Y-77065079D01*
X125444883Y-77079329D01*
X125462607Y-77095393D01*
X125478671Y-77113117D01*
X125492921Y-77132330D01*
X125505218Y-77152847D01*
X125515446Y-77174471D01*
X125523504Y-77196993D01*
X125529316Y-77220197D01*
X125532826Y-77243858D01*
X125534000Y-77267750D01*
X125534000Y-78180250D01*
X125532826Y-78204142D01*
X125529316Y-78227803D01*
X125523504Y-78251007D01*
X125515446Y-78273529D01*
X125505218Y-78295153D01*
X125492921Y-78315670D01*
X125478671Y-78334883D01*
X125462607Y-78352607D01*
X125444883Y-78368671D01*
X125425670Y-78382921D01*
X125405153Y-78395218D01*
X125383529Y-78405446D01*
X125361007Y-78413504D01*
X125337803Y-78419316D01*
X125314142Y-78422826D01*
X125290250Y-78424000D01*
X124802750Y-78424000D01*
X124778858Y-78422826D01*
X124755197Y-78419316D01*
X124731993Y-78413504D01*
X124709471Y-78405446D01*
X124687847Y-78395218D01*
X124667330Y-78382921D01*
X124648117Y-78368671D01*
X124630393Y-78352607D01*
X124614329Y-78334883D01*
X124600079Y-78315670D01*
X124587782Y-78295153D01*
X124577554Y-78273529D01*
X124569496Y-78251007D01*
X124563684Y-78227803D01*
X124560174Y-78204142D01*
X124559000Y-78180250D01*
X124559000Y-77267750D01*
X124560174Y-77243858D01*
X124563684Y-77220197D01*
X124569496Y-77196993D01*
X124577554Y-77174471D01*
X124587782Y-77152847D01*
X124600079Y-77132330D01*
X124614329Y-77113117D01*
X124630393Y-77095393D01*
X124648117Y-77079329D01*
X124667330Y-77065079D01*
X124687847Y-77052782D01*
X124709471Y-77042554D01*
X124731993Y-77034496D01*
X124755197Y-77028684D01*
X124778858Y-77025174D01*
X124802750Y-77024000D01*
X125290250Y-77024000D01*
X125314142Y-77025174D01*
X125314142Y-77025174D01*
G37*
D21*
G04 #@! TD*
G04 #@! TO.P,R13,2*
G04 #@! TO.N,+3V3*
X125046500Y-77724000D03*
D15*
G04 #@! TO.N,GND*
G04 #@! TO.C,R14*
G36*
X127189142Y-74485174D02*
X127212803Y-74488684D01*
X127236007Y-74494496D01*
X127258529Y-74502554D01*
X127280153Y-74512782D01*
X127300670Y-74525079D01*
X127319883Y-74539329D01*
X127337607Y-74555393D01*
X127353671Y-74573117D01*
X127367921Y-74592330D01*
X127380218Y-74612847D01*
X127390446Y-74634471D01*
X127398504Y-74656993D01*
X127404316Y-74680197D01*
X127407826Y-74703858D01*
X127409000Y-74727750D01*
X127409000Y-75640250D01*
X127407826Y-75664142D01*
X127404316Y-75687803D01*
X127398504Y-75711007D01*
X127390446Y-75733529D01*
X127380218Y-75755153D01*
X127367921Y-75775670D01*
X127353671Y-75794883D01*
X127337607Y-75812607D01*
X127319883Y-75828671D01*
X127300670Y-75842921D01*
X127280153Y-75855218D01*
X127258529Y-75865446D01*
X127236007Y-75873504D01*
X127212803Y-75879316D01*
X127189142Y-75882826D01*
X127165250Y-75884000D01*
X126677750Y-75884000D01*
X126653858Y-75882826D01*
X126630197Y-75879316D01*
X126606993Y-75873504D01*
X126584471Y-75865446D01*
X126562847Y-75855218D01*
X126542330Y-75842921D01*
X126523117Y-75828671D01*
X126505393Y-75812607D01*
X126489329Y-75794883D01*
X126475079Y-75775670D01*
X126462782Y-75755153D01*
X126452554Y-75733529D01*
X126444496Y-75711007D01*
X126438684Y-75687803D01*
X126435174Y-75664142D01*
X126434000Y-75640250D01*
X126434000Y-74727750D01*
X126435174Y-74703858D01*
X126438684Y-74680197D01*
X126444496Y-74656993D01*
X126452554Y-74634471D01*
X126462782Y-74612847D01*
X126475079Y-74592330D01*
X126489329Y-74573117D01*
X126505393Y-74555393D01*
X126523117Y-74539329D01*
X126542330Y-74525079D01*
X126562847Y-74512782D01*
X126584471Y-74502554D01*
X126606993Y-74494496D01*
X126630197Y-74488684D01*
X126653858Y-74485174D01*
X126677750Y-74484000D01*
X127165250Y-74484000D01*
X127189142Y-74485174D01*
X127189142Y-74485174D01*
G37*
D21*
G04 #@! TD*
G04 #@! TO.P,R14,2*
G04 #@! TO.N,GND*
X126921500Y-75184000D03*
D15*
G04 #@! TO.N,Net-(IC1-Pad12)*
G04 #@! TO.C,R14*
G36*
X125314142Y-74485174D02*
X125337803Y-74488684D01*
X125361007Y-74494496D01*
X125383529Y-74502554D01*
X125405153Y-74512782D01*
X125425670Y-74525079D01*
X125444883Y-74539329D01*
X125462607Y-74555393D01*
X125478671Y-74573117D01*
X125492921Y-74592330D01*
X125505218Y-74612847D01*
X125515446Y-74634471D01*
X125523504Y-74656993D01*
X125529316Y-74680197D01*
X125532826Y-74703858D01*
X125534000Y-74727750D01*
X125534000Y-75640250D01*
X125532826Y-75664142D01*
X125529316Y-75687803D01*
X125523504Y-75711007D01*
X125515446Y-75733529D01*
X125505218Y-75755153D01*
X125492921Y-75775670D01*
X125478671Y-75794883D01*
X125462607Y-75812607D01*
X125444883Y-75828671D01*
X125425670Y-75842921D01*
X125405153Y-75855218D01*
X125383529Y-75865446D01*
X125361007Y-75873504D01*
X125337803Y-75879316D01*
X125314142Y-75882826D01*
X125290250Y-75884000D01*
X124802750Y-75884000D01*
X124778858Y-75882826D01*
X124755197Y-75879316D01*
X124731993Y-75873504D01*
X124709471Y-75865446D01*
X124687847Y-75855218D01*
X124667330Y-75842921D01*
X124648117Y-75828671D01*
X124630393Y-75812607D01*
X124614329Y-75794883D01*
X124600079Y-75775670D01*
X124587782Y-75755153D01*
X124577554Y-75733529D01*
X124569496Y-75711007D01*
X124563684Y-75687803D01*
X124560174Y-75664142D01*
X124559000Y-75640250D01*
X124559000Y-74727750D01*
X124560174Y-74703858D01*
X124563684Y-74680197D01*
X124569496Y-74656993D01*
X124577554Y-74634471D01*
X124587782Y-74612847D01*
X124600079Y-74592330D01*
X124614329Y-74573117D01*
X124630393Y-74555393D01*
X124648117Y-74539329D01*
X124667330Y-74525079D01*
X124687847Y-74512782D01*
X124709471Y-74502554D01*
X124731993Y-74494496D01*
X124755197Y-74488684D01*
X124778858Y-74485174D01*
X124802750Y-74484000D01*
X125290250Y-74484000D01*
X125314142Y-74485174D01*
X125314142Y-74485174D01*
G37*
D21*
G04 #@! TD*
G04 #@! TO.P,R14,1*
G04 #@! TO.N,Net-(IC1-Pad12)*
X125046500Y-75184000D03*
D15*
G04 #@! TO.N,V_Solar*
G04 #@! TO.C,SC1*
G36*
X105954504Y-43995204D02*
X105978773Y-43998804D01*
X106002571Y-44004765D01*
X106025671Y-44013030D01*
X106047849Y-44023520D01*
X106068893Y-44036133D01*
X106088598Y-44050747D01*
X106106777Y-44067223D01*
X106123253Y-44085402D01*
X106137867Y-44105107D01*
X106150480Y-44126151D01*
X106160970Y-44148329D01*
X106169235Y-44171429D01*
X106175196Y-44195227D01*
X106178796Y-44219496D01*
X106180000Y-44244000D01*
X106180000Y-49244000D01*
X106178796Y-49268504D01*
X106175196Y-49292773D01*
X106169235Y-49316571D01*
X106160970Y-49339671D01*
X106150480Y-49361849D01*
X106137867Y-49382893D01*
X106123253Y-49402598D01*
X106106777Y-49420777D01*
X106088598Y-49437253D01*
X106068893Y-49451867D01*
X106047849Y-49464480D01*
X106025671Y-49474970D01*
X106002571Y-49483235D01*
X105978773Y-49489196D01*
X105954504Y-49492796D01*
X105930000Y-49494000D01*
X105430000Y-49494000D01*
X105405496Y-49492796D01*
X105381227Y-49489196D01*
X105357429Y-49483235D01*
X105334329Y-49474970D01*
X105312151Y-49464480D01*
X105291107Y-49451867D01*
X105271402Y-49437253D01*
X105253223Y-49420777D01*
X105236747Y-49402598D01*
X105222133Y-49382893D01*
X105209520Y-49361849D01*
X105199030Y-49339671D01*
X105190765Y-49316571D01*
X105184804Y-49292773D01*
X105181204Y-49268504D01*
X105180000Y-49244000D01*
X105180000Y-44244000D01*
X105181204Y-44219496D01*
X105184804Y-44195227D01*
X105190765Y-44171429D01*
X105199030Y-44148329D01*
X105209520Y-44126151D01*
X105222133Y-44105107D01*
X105236747Y-44085402D01*
X105253223Y-44067223D01*
X105271402Y-44050747D01*
X105291107Y-44036133D01*
X105312151Y-44023520D01*
X105334329Y-44013030D01*
X105357429Y-44004765D01*
X105381227Y-43998804D01*
X105405496Y-43995204D01*
X105430000Y-43994000D01*
X105930000Y-43994000D01*
X105954504Y-43995204D01*
X105954504Y-43995204D01*
G37*
D16*
G04 #@! TD*
G04 #@! TO.P,SC1,1*
G04 #@! TO.N,V_Solar*
X105680000Y-46744000D03*
D15*
G04 #@! TO.N,GND*
G04 #@! TO.C,SC1*
G36*
X107954504Y-43995204D02*
X107978773Y-43998804D01*
X108002571Y-44004765D01*
X108025671Y-44013030D01*
X108047849Y-44023520D01*
X108068893Y-44036133D01*
X108088598Y-44050747D01*
X108106777Y-44067223D01*
X108123253Y-44085402D01*
X108137867Y-44105107D01*
X108150480Y-44126151D01*
X108160970Y-44148329D01*
X108169235Y-44171429D01*
X108175196Y-44195227D01*
X108178796Y-44219496D01*
X108180000Y-44244000D01*
X108180000Y-49244000D01*
X108178796Y-49268504D01*
X108175196Y-49292773D01*
X108169235Y-49316571D01*
X108160970Y-49339671D01*
X108150480Y-49361849D01*
X108137867Y-49382893D01*
X108123253Y-49402598D01*
X108106777Y-49420777D01*
X108088598Y-49437253D01*
X108068893Y-49451867D01*
X108047849Y-49464480D01*
X108025671Y-49474970D01*
X108002571Y-49483235D01*
X107978773Y-49489196D01*
X107954504Y-49492796D01*
X107930000Y-49494000D01*
X107430000Y-49494000D01*
X107405496Y-49492796D01*
X107381227Y-49489196D01*
X107357429Y-49483235D01*
X107334329Y-49474970D01*
X107312151Y-49464480D01*
X107291107Y-49451867D01*
X107271402Y-49437253D01*
X107253223Y-49420777D01*
X107236747Y-49402598D01*
X107222133Y-49382893D01*
X107209520Y-49361849D01*
X107199030Y-49339671D01*
X107190765Y-49316571D01*
X107184804Y-49292773D01*
X107181204Y-49268504D01*
X107180000Y-49244000D01*
X107180000Y-44244000D01*
X107181204Y-44219496D01*
X107184804Y-44195227D01*
X107190765Y-44171429D01*
X107199030Y-44148329D01*
X107209520Y-44126151D01*
X107222133Y-44105107D01*
X107236747Y-44085402D01*
X107253223Y-44067223D01*
X107271402Y-44050747D01*
X107291107Y-44036133D01*
X107312151Y-44023520D01*
X107334329Y-44013030D01*
X107357429Y-44004765D01*
X107381227Y-43998804D01*
X107405496Y-43995204D01*
X107430000Y-43994000D01*
X107930000Y-43994000D01*
X107954504Y-43995204D01*
X107954504Y-43995204D01*
G37*
D16*
G04 #@! TD*
G04 #@! TO.P,SC1,2*
G04 #@! TO.N,GND*
X107680000Y-46744000D03*
D15*
G04 #@! TO.N,N/C*
G04 #@! TO.C,SC1*
G36*
X103854504Y-47495204D02*
X103878773Y-47498804D01*
X103902571Y-47504765D01*
X103925671Y-47513030D01*
X103947849Y-47523520D01*
X103968893Y-47536133D01*
X103988598Y-47550747D01*
X104006777Y-47567223D01*
X104023253Y-47585402D01*
X104037867Y-47605107D01*
X104050480Y-47626151D01*
X104060970Y-47648329D01*
X104069235Y-47671429D01*
X104075196Y-47695227D01*
X104078796Y-47719496D01*
X104080000Y-47744000D01*
X104080000Y-50244000D01*
X104078796Y-50268504D01*
X104075196Y-50292773D01*
X104069235Y-50316571D01*
X104060970Y-50339671D01*
X104050480Y-50361849D01*
X104037867Y-50382893D01*
X104023253Y-50402598D01*
X104006777Y-50420777D01*
X103988598Y-50437253D01*
X103968893Y-50451867D01*
X103947849Y-50464480D01*
X103925671Y-50474970D01*
X103902571Y-50483235D01*
X103878773Y-50489196D01*
X103854504Y-50492796D01*
X103830000Y-50494000D01*
X102730000Y-50494000D01*
X102705496Y-50492796D01*
X102681227Y-50489196D01*
X102657429Y-50483235D01*
X102634329Y-50474970D01*
X102612151Y-50464480D01*
X102591107Y-50451867D01*
X102571402Y-50437253D01*
X102553223Y-50420777D01*
X102536747Y-50402598D01*
X102522133Y-50382893D01*
X102509520Y-50361849D01*
X102499030Y-50339671D01*
X102490765Y-50316571D01*
X102484804Y-50292773D01*
X102481204Y-50268504D01*
X102480000Y-50244000D01*
X102480000Y-47744000D01*
X102481204Y-47719496D01*
X102484804Y-47695227D01*
X102490765Y-47671429D01*
X102499030Y-47648329D01*
X102509520Y-47626151D01*
X102522133Y-47605107D01*
X102536747Y-47585402D01*
X102553223Y-47567223D01*
X102571402Y-47550747D01*
X102591107Y-47536133D01*
X102612151Y-47523520D01*
X102634329Y-47513030D01*
X102657429Y-47504765D01*
X102681227Y-47498804D01*
X102705496Y-47495204D01*
X102730000Y-47494000D01*
X103830000Y-47494000D01*
X103854504Y-47495204D01*
X103854504Y-47495204D01*
G37*
D17*
G04 #@! TD*
G04 #@! TO.P,SC1,MP*
G04 #@! TO.N,N/C*
X103280000Y-48994000D03*
D15*
G04 #@! TO.N,N/C*
G04 #@! TO.C,SC1*
G36*
X110654504Y-47495204D02*
X110678773Y-47498804D01*
X110702571Y-47504765D01*
X110725671Y-47513030D01*
X110747849Y-47523520D01*
X110768893Y-47536133D01*
X110788598Y-47550747D01*
X110806777Y-47567223D01*
X110823253Y-47585402D01*
X110837867Y-47605107D01*
X110850480Y-47626151D01*
X110860970Y-47648329D01*
X110869235Y-47671429D01*
X110875196Y-47695227D01*
X110878796Y-47719496D01*
X110880000Y-47744000D01*
X110880000Y-50244000D01*
X110878796Y-50268504D01*
X110875196Y-50292773D01*
X110869235Y-50316571D01*
X110860970Y-50339671D01*
X110850480Y-50361849D01*
X110837867Y-50382893D01*
X110823253Y-50402598D01*
X110806777Y-50420777D01*
X110788598Y-50437253D01*
X110768893Y-50451867D01*
X110747849Y-50464480D01*
X110725671Y-50474970D01*
X110702571Y-50483235D01*
X110678773Y-50489196D01*
X110654504Y-50492796D01*
X110630000Y-50494000D01*
X109530000Y-50494000D01*
X109505496Y-50492796D01*
X109481227Y-50489196D01*
X109457429Y-50483235D01*
X109434329Y-50474970D01*
X109412151Y-50464480D01*
X109391107Y-50451867D01*
X109371402Y-50437253D01*
X109353223Y-50420777D01*
X109336747Y-50402598D01*
X109322133Y-50382893D01*
X109309520Y-50361849D01*
X109299030Y-50339671D01*
X109290765Y-50316571D01*
X109284804Y-50292773D01*
X109281204Y-50268504D01*
X109280000Y-50244000D01*
X109280000Y-47744000D01*
X109281204Y-47719496D01*
X109284804Y-47695227D01*
X109290765Y-47671429D01*
X109299030Y-47648329D01*
X109309520Y-47626151D01*
X109322133Y-47605107D01*
X109336747Y-47585402D01*
X109353223Y-47567223D01*
X109371402Y-47550747D01*
X109391107Y-47536133D01*
X109412151Y-47523520D01*
X109434329Y-47513030D01*
X109457429Y-47504765D01*
X109481227Y-47498804D01*
X109505496Y-47495204D01*
X109530000Y-47494000D01*
X110630000Y-47494000D01*
X110654504Y-47495204D01*
X110654504Y-47495204D01*
G37*
D17*
G04 #@! TD*
G04 #@! TO.P,SC1,MP*
G04 #@! TO.N,N/C*
X110080000Y-48994000D03*
D22*
G04 #@! TO.P,J4,1*
G04 #@! TO.N,Net-(D5-Pad2)*
X116078000Y-48006000D03*
D23*
G04 #@! TO.P,J4,2*
G04 #@! TO.N,+3V3*
X113538000Y-48006000D03*
G04 #@! TD*
D15*
G04 #@! TO.N,+3V3*
G04 #@! TO.C,D5*
G36*
X114123505Y-53403204D02*
X114147773Y-53406804D01*
X114171572Y-53412765D01*
X114194671Y-53421030D01*
X114216850Y-53431520D01*
X114237893Y-53444132D01*
X114257599Y-53458747D01*
X114275777Y-53475223D01*
X114292253Y-53493401D01*
X114306868Y-53513107D01*
X114319480Y-53534150D01*
X114329970Y-53556329D01*
X114338235Y-53579428D01*
X114344196Y-53603227D01*
X114347796Y-53627495D01*
X114349000Y-53651999D01*
X114349000Y-54552001D01*
X114347796Y-54576505D01*
X114344196Y-54600773D01*
X114338235Y-54624572D01*
X114329970Y-54647671D01*
X114319480Y-54669850D01*
X114306868Y-54690893D01*
X114292253Y-54710599D01*
X114275777Y-54728777D01*
X114257599Y-54745253D01*
X114237893Y-54759868D01*
X114216850Y-54772480D01*
X114194671Y-54782970D01*
X114171572Y-54791235D01*
X114147773Y-54797196D01*
X114123505Y-54800796D01*
X114099001Y-54802000D01*
X113448999Y-54802000D01*
X113424495Y-54800796D01*
X113400227Y-54797196D01*
X113376428Y-54791235D01*
X113353329Y-54782970D01*
X113331150Y-54772480D01*
X113310107Y-54759868D01*
X113290401Y-54745253D01*
X113272223Y-54728777D01*
X113255747Y-54710599D01*
X113241132Y-54690893D01*
X113228520Y-54669850D01*
X113218030Y-54647671D01*
X113209765Y-54624572D01*
X113203804Y-54600773D01*
X113200204Y-54576505D01*
X113199000Y-54552001D01*
X113199000Y-53651999D01*
X113200204Y-53627495D01*
X113203804Y-53603227D01*
X113209765Y-53579428D01*
X113218030Y-53556329D01*
X113228520Y-53534150D01*
X113241132Y-53513107D01*
X113255747Y-53493401D01*
X113272223Y-53475223D01*
X113290401Y-53458747D01*
X113310107Y-53444132D01*
X113331150Y-53431520D01*
X113353329Y-53421030D01*
X113376428Y-53412765D01*
X113400227Y-53406804D01*
X113424495Y-53403204D01*
X113448999Y-53402000D01*
X114099001Y-53402000D01*
X114123505Y-53403204D01*
X114123505Y-53403204D01*
G37*
D24*
G04 #@! TD*
G04 #@! TO.P,D5,1*
G04 #@! TO.N,+3V3*
X113774000Y-54102000D03*
D15*
G04 #@! TO.N,Net-(D5-Pad2)*
G04 #@! TO.C,D5*
G36*
X116173505Y-53403204D02*
X116197773Y-53406804D01*
X116221572Y-53412765D01*
X116244671Y-53421030D01*
X116266850Y-53431520D01*
X116287893Y-53444132D01*
X116307599Y-53458747D01*
X116325777Y-53475223D01*
X116342253Y-53493401D01*
X116356868Y-53513107D01*
X116369480Y-53534150D01*
X116379970Y-53556329D01*
X116388235Y-53579428D01*
X116394196Y-53603227D01*
X116397796Y-53627495D01*
X116399000Y-53651999D01*
X116399000Y-54552001D01*
X116397796Y-54576505D01*
X116394196Y-54600773D01*
X116388235Y-54624572D01*
X116379970Y-54647671D01*
X116369480Y-54669850D01*
X116356868Y-54690893D01*
X116342253Y-54710599D01*
X116325777Y-54728777D01*
X116307599Y-54745253D01*
X116287893Y-54759868D01*
X116266850Y-54772480D01*
X116244671Y-54782970D01*
X116221572Y-54791235D01*
X116197773Y-54797196D01*
X116173505Y-54800796D01*
X116149001Y-54802000D01*
X115498999Y-54802000D01*
X115474495Y-54800796D01*
X115450227Y-54797196D01*
X115426428Y-54791235D01*
X115403329Y-54782970D01*
X115381150Y-54772480D01*
X115360107Y-54759868D01*
X115340401Y-54745253D01*
X115322223Y-54728777D01*
X115305747Y-54710599D01*
X115291132Y-54690893D01*
X115278520Y-54669850D01*
X115268030Y-54647671D01*
X115259765Y-54624572D01*
X115253804Y-54600773D01*
X115250204Y-54576505D01*
X115249000Y-54552001D01*
X115249000Y-53651999D01*
X115250204Y-53627495D01*
X115253804Y-53603227D01*
X115259765Y-53579428D01*
X115268030Y-53556329D01*
X115278520Y-53534150D01*
X115291132Y-53513107D01*
X115305747Y-53493401D01*
X115322223Y-53475223D01*
X115340401Y-53458747D01*
X115360107Y-53444132D01*
X115381150Y-53431520D01*
X115403329Y-53421030D01*
X115426428Y-53412765D01*
X115450227Y-53406804D01*
X115474495Y-53403204D01*
X115498999Y-53402000D01*
X116149001Y-53402000D01*
X116173505Y-53403204D01*
X116173505Y-53403204D01*
G37*
D24*
G04 #@! TD*
G04 #@! TO.P,D5,2*
G04 #@! TO.N,Net-(D5-Pad2)*
X115824000Y-54102000D03*
D25*
G04 #@! TO.P,J3,2*
G04 #@! TO.N,GND*
X113284000Y-85975000D03*
G04 #@! TO.P,J3,4*
G04 #@! TO.N,/RXD*
X118364000Y-85975000D03*
G04 #@! TO.P,J3,1*
G04 #@! TO.N,+3V3*
X110744000Y-89285000D03*
G04 #@! TO.P,J3,3*
G04 #@! TO.N,/TXD*
X115824000Y-89285000D03*
G04 #@! TO.P,J3,5*
G04 #@! TO.N,N/C*
X120904000Y-89285000D03*
G04 #@! TD*
D22*
G04 #@! TO.P,SW3,1*
G04 #@! TO.N,Net-(R10-Pad1)*
X103886000Y-81280000D03*
D23*
G04 #@! TO.P,SW3,2*
G04 #@! TO.N,VBAT*
X103886000Y-83820000D03*
G04 #@! TD*
D26*
G04 #@! TO.N,GND*
X109347000Y-72390000D03*
X113347500Y-85661500D03*
X104076500Y-44831000D03*
X122618500Y-42608500D03*
X126555500Y-73660000D03*
X108966000Y-60769500D03*
X127635000Y-66103500D03*
X125666500Y-72326500D03*
X110680500Y-83375500D03*
X108267500Y-74041000D03*
X126682500Y-70739000D03*
X116967000Y-70167500D03*
X115225000Y-51371500D03*
X113347500Y-50165000D03*
X115379500Y-45339000D03*
X118808500Y-45767000D03*
X122165000Y-67945000D03*
X120650000Y-64525000D03*
X118808500Y-63182500D03*
X114483879Y-70492888D03*
X120015000Y-70154800D03*
X122123200Y-62738000D03*
X120015000Y-70154800D03*
X117703600Y-74523600D03*
X121040000Y-74930000D03*
X126673498Y-82692946D03*
X124002800Y-75920600D03*
X123494800Y-88188800D03*
X113858000Y-59166000D03*
X124993400Y-49961800D03*
X126466600Y-51739800D03*
X115694697Y-83949303D03*
X116941600Y-80797400D03*
X128270000Y-70154800D03*
G04 #@! TO.N,/RST*
X117223500Y-58268800D03*
X122497200Y-64866300D03*
G04 #@! TO.N,+3V3*
X125259300Y-61627500D03*
X110481600Y-66012200D03*
X120296500Y-67118900D03*
X111354500Y-57063000D03*
X122388900Y-50942500D03*
X123275500Y-82654900D03*
X125831600Y-78384400D03*
X122503053Y-78217053D03*
G04 #@! TO.N,/USB_P*
X118060900Y-59678600D03*
X115887500Y-67539200D03*
G04 #@! TO.N,/USB_N*
X116894900Y-57164800D03*
X111608500Y-67379400D03*
G04 #@! TO.N,/SDA*
X128241000Y-78231600D03*
X125454495Y-47104262D03*
X123190000Y-49720500D03*
X121376560Y-51176292D03*
G04 #@! TO.N,/SCL*
X119112800Y-66022100D03*
X123566700Y-61425800D03*
X124474053Y-60082347D03*
G04 #@! TO.N,/RE+*
X107541100Y-74750100D03*
X105563000Y-55914400D03*
X107149000Y-72243997D03*
X106418947Y-70492053D03*
G04 #@! TO.N,/RE-*
X103153000Y-62557000D03*
X107402900Y-76312300D03*
G04 #@! TO.N,/RPressed*
X125773400Y-69785100D03*
X122801400Y-56568600D03*
X122388900Y-53112500D03*
X118103100Y-47546000D03*
X111809300Y-46084000D03*
X107856100Y-50942500D03*
X122021600Y-82448400D03*
X122950000Y-80010000D03*
G04 #@! TO.N,V_BUS*
X104828900Y-85948100D03*
X122656000Y-72862000D03*
X112800300Y-74618000D03*
G04 #@! TO.N,VBAT*
X105854300Y-82059300D03*
X110340000Y-74320200D03*
X118730900Y-77837500D03*
X127046500Y-59751600D03*
X103519700Y-86480000D03*
X121869200Y-54685000D03*
X125259000Y-52854471D03*
G04 #@! TO.N,Net-(JP1-Pad1)*
X127000000Y-56970000D03*
G04 #@! TO.N,/AlertB*
X108020200Y-59255700D03*
G04 #@! TO.N,Net-(R5-Pad1)*
X107042700Y-69064800D03*
X110134200Y-70192500D03*
G04 #@! TO.N,Net-(D2-Pad2)*
X121285000Y-72692500D03*
X118745000Y-72780000D03*
G04 #@! TO.N,/SAMLED*
X106485000Y-59657500D03*
X125444800Y-43103700D03*
G04 #@! TO.N,Net-(IC1-Pad12)*
X128809181Y-80911621D03*
G04 #@! TO.N,/INT2*
X113440000Y-64100000D03*
X113601500Y-66865500D03*
X115619396Y-69416796D03*
X124129800Y-81991200D03*
X128571000Y-85572600D03*
X122161357Y-75676522D03*
G04 #@! TO.N,/INT1*
X107050100Y-67298300D03*
X109772300Y-77622000D03*
X106680000Y-60960000D03*
G04 #@! TO.N,Net-(IC1-Pad7)*
X126985400Y-86169700D03*
X126133837Y-86145200D03*
G04 #@! TO.N,/TXD*
X110113900Y-61254700D03*
G04 #@! TO.N,/RXD*
X112440000Y-62206000D03*
X112535800Y-76717200D03*
X119922000Y-84932000D03*
G04 #@! TO.N,Net-(R10-Pad1)*
X123068700Y-69865400D03*
X111463700Y-79718800D03*
X108274600Y-77646400D03*
G04 #@! TO.N,/PinMotor*
X115702000Y-62380400D03*
G04 #@! TD*
D27*
G04 #@! TO.N,GND*
X104476499Y-44384311D02*
X105617310Y-43243500D01*
X104076500Y-44831000D02*
X104476499Y-44431001D01*
X104476499Y-44431001D02*
X104476499Y-44384311D01*
X105617310Y-43243500D02*
X106997500Y-43243500D01*
X106997500Y-46061500D02*
X107680000Y-46744000D01*
X106997500Y-43243500D02*
X106997500Y-46061500D01*
X110680500Y-43243500D02*
X111633000Y-44196000D01*
X106997500Y-43243500D02*
X110680500Y-43243500D01*
X122190000Y-43037000D02*
X122190000Y-46744000D01*
X122618500Y-42608500D02*
X122190000Y-43037000D01*
X104856500Y-77795000D02*
X105856500Y-76795000D01*
X103156500Y-77795000D02*
X104856500Y-77795000D01*
X126555500Y-74818000D02*
X126921500Y-75184000D01*
X126555500Y-73660000D02*
X126555500Y-74818000D01*
X108416998Y-72390000D02*
X107886500Y-71859502D01*
X109347000Y-72390000D02*
X108416998Y-72390000D01*
X107886500Y-71859502D02*
X107886500Y-71570710D01*
X105856500Y-71795000D02*
X105878000Y-71795000D01*
X105878000Y-71795000D02*
X106299000Y-71374000D01*
X107689790Y-71374000D02*
X107886500Y-71570710D01*
X106299000Y-71374000D02*
X107689790Y-71374000D01*
X108267500Y-73469500D02*
X109347000Y-72390000D01*
X108267500Y-74041000D02*
X108267500Y-73469500D01*
X126555500Y-73215500D02*
X125666500Y-72326500D01*
X126555500Y-73660000D02*
X126555500Y-73215500D01*
X115225000Y-51371500D02*
X114554000Y-51371500D01*
X114554000Y-51371500D02*
X113347500Y-50165000D01*
X121619290Y-46173290D02*
X120658790Y-46173290D01*
X122190000Y-46744000D02*
X121619290Y-46173290D01*
X119768501Y-45283001D02*
X117657999Y-45283001D01*
X120658790Y-46173290D02*
X119768501Y-45283001D01*
X117657999Y-45283001D02*
X117538500Y-45402500D01*
X117538500Y-45402500D02*
X115443000Y-45402500D01*
X115443000Y-45402500D02*
X115379500Y-45339000D01*
X122190000Y-46744000D02*
X121213000Y-45767000D01*
X121213000Y-45767000D02*
X118808500Y-45767000D01*
X123701820Y-43668990D02*
X124937088Y-43668990D01*
X122190000Y-46744000D02*
X122190000Y-45180810D01*
X122190000Y-45180810D02*
X123701820Y-43668990D01*
X124937088Y-43668990D02*
X124937088Y-43847588D01*
X127358290Y-46268790D02*
X128183790Y-46268790D01*
X124937088Y-43847588D02*
X127358290Y-46268790D01*
X128034999Y-65703501D02*
X127635000Y-66103500D01*
X128221810Y-65516690D02*
X128034999Y-65703501D01*
X128183790Y-46268790D02*
X128221810Y-46306810D01*
X120650000Y-64525000D02*
X120151000Y-64525000D01*
X120151000Y-64525000D02*
X118808500Y-63182500D01*
X116641612Y-70492888D02*
X116967000Y-70167500D01*
X114483879Y-70492888D02*
X116641612Y-70492888D01*
X117532685Y-70167500D02*
X118231185Y-70866000D01*
X116967000Y-70167500D02*
X117532685Y-70167500D01*
X118231185Y-70866000D02*
X119303800Y-70866000D01*
X119303800Y-70866000D02*
X120015000Y-70154800D01*
X120650000Y-65200000D02*
X120650000Y-64525000D01*
X120650000Y-65630000D02*
X120650000Y-65200000D01*
X122165000Y-67145000D02*
X120650000Y-65630000D01*
X122165000Y-67945000D02*
X122165000Y-67145000D01*
X119253000Y-62738000D02*
X118808500Y-63182500D01*
X122123200Y-62738000D02*
X119253000Y-62738000D01*
X117703600Y-74523600D02*
X120633600Y-74523600D01*
X120633600Y-74523600D02*
X121040000Y-74930000D01*
X127107500Y-75920290D02*
X127312990Y-75714800D01*
X126921500Y-75734290D02*
X127107500Y-75920290D01*
X126921500Y-75184000D02*
X126921500Y-75734290D01*
X126107813Y-82692946D02*
X124612400Y-81197533D01*
X126673498Y-82692946D02*
X126107813Y-82692946D01*
X124612400Y-81197533D02*
X124612400Y-79578200D01*
X124612400Y-79578200D02*
X123621800Y-78587600D01*
X123228054Y-78041454D02*
X123228054Y-77889054D01*
X123621800Y-78587600D02*
X123621800Y-78435200D01*
X123621800Y-78435200D02*
X123228054Y-78041454D01*
X123228054Y-77889054D02*
X122809000Y-77470000D01*
X122809000Y-77470000D02*
X122809000Y-77374701D01*
X122809000Y-77374701D02*
X122882159Y-77301542D01*
X124002800Y-76486285D02*
X124002800Y-75920600D01*
X123187543Y-77301542D02*
X124002800Y-76486285D01*
X122882159Y-77301542D02*
X123187543Y-77301542D01*
X110569500Y-59166000D02*
X113858000Y-59166000D01*
X108966000Y-60769500D02*
X110569500Y-59166000D01*
X127330200Y-52603400D02*
X126466600Y-51739800D01*
X128221810Y-52603400D02*
X127330200Y-52603400D01*
X128221810Y-52603400D02*
X128221810Y-65516690D01*
X128221810Y-46306810D02*
X128221810Y-52603400D01*
X115694697Y-83949303D02*
X116941600Y-82702400D01*
X116941600Y-82702400D02*
X116941600Y-80797400D01*
X128706001Y-69718799D02*
X128270000Y-70154800D01*
X127635000Y-66103500D02*
X128706001Y-67174501D01*
X128706001Y-67174501D02*
X128706001Y-69718799D01*
G04 #@! TO.N,/RST*
X117676900Y-58268800D02*
X117223500Y-58268800D01*
X123113800Y-64249700D02*
X122497200Y-64866300D01*
X123113800Y-62103000D02*
X123113800Y-64249700D01*
X122834400Y-61823600D02*
X123113800Y-62103000D01*
X122834400Y-60248800D02*
X122834400Y-61823600D01*
X117789185Y-58268800D02*
X118016585Y-58496200D01*
X118016585Y-58496200D02*
X121226190Y-58496200D01*
X117223500Y-58268800D02*
X117789185Y-58268800D01*
X121226190Y-58496200D02*
X122809000Y-60079010D01*
X122809000Y-60079010D02*
X122809000Y-60223400D01*
X122809000Y-60223400D02*
X122834400Y-60248800D01*
G04 #@! TO.N,+3V3*
X120296500Y-67118900D02*
X119101600Y-68313800D01*
X119101600Y-68313800D02*
X111496300Y-68313800D01*
X111496300Y-68313800D02*
X110481600Y-67299100D01*
X110481600Y-67299100D02*
X110481600Y-66012200D01*
X126400200Y-76370300D02*
X127293900Y-76370300D01*
X127293900Y-76370300D02*
X127763000Y-75901200D01*
X127763000Y-75901200D02*
X127763000Y-72861900D01*
X127763000Y-72861900D02*
X125023200Y-70122100D01*
X125023200Y-70122100D02*
X125023200Y-61863600D01*
X125023200Y-61863600D02*
X125259300Y-61627500D01*
X114173000Y-46492000D02*
X120004700Y-46492000D01*
X120004700Y-46492000D02*
X121266800Y-47754100D01*
X121266800Y-47754100D02*
X121266800Y-49820400D01*
X121266800Y-49820400D02*
X122388900Y-50942500D01*
X113538000Y-46830700D02*
X113876700Y-46492000D01*
X113876700Y-46492000D02*
X114173000Y-46492000D01*
X114173000Y-44196000D02*
X114173000Y-46492000D01*
X116076400Y-85987800D02*
X117644000Y-87555400D01*
X117644000Y-87555400D02*
X119018100Y-87555400D01*
X123275500Y-83298000D02*
X123275500Y-82654900D01*
X113774000Y-54102000D02*
X111354500Y-56521500D01*
X111354500Y-56521500D02*
X111354500Y-57063000D01*
X113538000Y-48006000D02*
X113538000Y-49181300D01*
X113538000Y-53866000D02*
X113774000Y-54102000D01*
X113538000Y-48006000D02*
X113538000Y-46830700D01*
X110744000Y-87704700D02*
X114359500Y-87704700D01*
X114359500Y-87704700D02*
X116076400Y-85987800D01*
X110744000Y-89285000D02*
X110744000Y-87704700D01*
X113538000Y-49181300D02*
X113188200Y-49181300D01*
X113188200Y-49181300D02*
X112522000Y-49847500D01*
X112522000Y-49847500D02*
X112522000Y-54483000D01*
X111354500Y-55650500D02*
X111354500Y-57063000D01*
X112522000Y-54483000D02*
X111354500Y-55650500D01*
X125859300Y-77791015D02*
X125859300Y-76911200D01*
X125831600Y-77818715D02*
X125859300Y-77791015D01*
X125831600Y-78384400D02*
X125831600Y-77818715D01*
X125046500Y-77724000D02*
X125859300Y-76911200D01*
X125859300Y-76911200D02*
X126400200Y-76370300D01*
X119705500Y-83637500D02*
X122936000Y-83637500D01*
X117779800Y-79861602D02*
X117779800Y-81711800D01*
X122936000Y-83637500D02*
X123275500Y-83298000D01*
X117779800Y-81711800D02*
X119705500Y-83637500D01*
X119018100Y-87555400D02*
X122936000Y-83637500D01*
X119353892Y-78287510D02*
X117779800Y-79861602D01*
X121866911Y-78287510D02*
X119353892Y-78287510D01*
X121937368Y-78217053D02*
X121866911Y-78287510D01*
X122503053Y-78217053D02*
X121937368Y-78217053D01*
G04 #@! TO.N,/USB_P*
X115887500Y-67539200D02*
X118060900Y-65365800D01*
X118060900Y-65365800D02*
X118060900Y-59678600D01*
G04 #@! TO.N,/USB_N*
X111608500Y-67379400D02*
X111815800Y-67379400D01*
X116498100Y-57561600D02*
X116894900Y-57164800D01*
X116498100Y-58615900D02*
X116498100Y-57561600D01*
X116592100Y-58709900D02*
X116498100Y-58615900D01*
X116218599Y-63105401D02*
X116592100Y-62731900D01*
X115175401Y-63105401D02*
X116218599Y-63105401D01*
X111608500Y-64936000D02*
X112077500Y-64467000D01*
X111608500Y-67379400D02*
X111608500Y-64936000D01*
X112077500Y-64467000D02*
X112077500Y-63627000D01*
X112077500Y-63627000D02*
X112839500Y-62865000D01*
X116592100Y-62731900D02*
X116592100Y-58709900D01*
X112839500Y-62865000D02*
X114935000Y-62865000D01*
X114935000Y-62865000D02*
X115175401Y-63105401D01*
G04 #@! TO.N,/SDA*
X119814700Y-43634300D02*
X119253000Y-44196000D01*
X121867769Y-51667501D02*
X121376560Y-51176292D01*
X122736901Y-51667501D02*
X121867769Y-51667501D01*
X123190000Y-49720500D02*
X123190000Y-51214402D01*
X123190000Y-51214402D02*
X122736901Y-51667501D01*
X128241000Y-71226900D02*
X128241000Y-78231600D01*
X126018200Y-69004100D02*
X128241000Y-71226900D01*
X126018200Y-62531300D02*
X126018200Y-69004100D01*
X127771800Y-60777700D02*
X126018200Y-62531300D01*
X127771501Y-59403599D02*
X127771501Y-60777401D01*
X127635000Y-59267098D02*
X127771501Y-59403599D01*
X127635000Y-59182000D02*
X127635000Y-59267098D01*
X127348001Y-58895001D02*
X127635000Y-59182000D01*
X127348001Y-57695001D02*
X127348001Y-58895001D01*
X127715010Y-50482180D02*
X127378180Y-50819010D01*
X127771501Y-60777401D02*
X127771800Y-60777700D01*
X127715010Y-46775590D02*
X127715010Y-50482180D01*
X127771800Y-46718800D02*
X127715010Y-46775590D01*
X126252010Y-46718800D02*
X127771800Y-46718800D01*
X125476000Y-46990000D02*
X125980810Y-46990000D01*
X125980810Y-46990000D02*
X126252010Y-46718800D01*
X127725001Y-56621999D02*
X127725001Y-57318001D01*
X125291810Y-50819010D02*
X124637800Y-51473020D01*
X127378180Y-50819010D02*
X125291810Y-50819010D01*
X124929820Y-51473020D02*
X125984000Y-52527200D01*
X126345538Y-52527200D02*
X127533400Y-53715062D01*
X127725001Y-57318001D02*
X127348001Y-57695001D01*
X124637800Y-51473020D02*
X124929820Y-51473020D01*
X127533400Y-53715062D02*
X127533400Y-56430398D01*
X125984000Y-52527200D02*
X126345538Y-52527200D01*
X127533400Y-56430398D02*
X127725001Y-56621999D01*
G04 #@! TO.N,/SCL*
X120272702Y-66022100D02*
X119112800Y-66022100D01*
X121183400Y-68656200D02*
X121183400Y-66932798D01*
X123566700Y-64866600D02*
X122411200Y-66022100D01*
X122411200Y-66022100D02*
X122890001Y-66500901D01*
X121031000Y-68808600D02*
X121183400Y-68656200D01*
X123566700Y-61425800D02*
X123566700Y-64866600D01*
X122890001Y-66500901D02*
X122890001Y-68473599D01*
X122890001Y-68473599D02*
X122555000Y-68808600D01*
X121183400Y-66932798D02*
X120272702Y-66022100D01*
X122555000Y-68808600D02*
X121031000Y-68808600D01*
G04 #@! TO.N,/RE+*
X105563000Y-55914400D02*
X105271400Y-56206000D01*
X105271400Y-56206000D02*
X105271400Y-69517700D01*
X107541100Y-74184415D02*
X107251500Y-73894815D01*
X107541100Y-74750100D02*
X107541100Y-74184415D01*
X107251500Y-73894815D02*
X107251500Y-72346497D01*
X107251500Y-72346497D02*
X107149000Y-72243997D01*
X105845754Y-70092054D02*
X105271400Y-69517700D01*
X106018948Y-70092054D02*
X105845754Y-70092054D01*
X106418947Y-70492053D02*
X106018948Y-70092054D01*
G04 #@! TO.N,/RE-*
X107402900Y-76312300D02*
X104768400Y-73677800D01*
X104768400Y-70841800D02*
X104820900Y-70789300D01*
X104820900Y-70789300D02*
X104820900Y-64224900D01*
X104820900Y-64224900D02*
X103153000Y-62557000D01*
X104768400Y-73677800D02*
X104475300Y-73677800D01*
X104475300Y-73677800D02*
X103759000Y-72961500D01*
X104767861Y-70841800D02*
X104768400Y-70841800D01*
X103759000Y-72961500D02*
X103759000Y-71850661D01*
X103759000Y-71850661D02*
X104767861Y-70841800D01*
G04 #@! TO.N,/RPressed*
X125773400Y-69785100D02*
X125567800Y-69579500D01*
X125567800Y-69579500D02*
X125567800Y-62344800D01*
X125567800Y-62344800D02*
X125984600Y-61928000D01*
X125984600Y-61928000D02*
X125984600Y-59751800D01*
X125984600Y-59751800D02*
X122801400Y-56568600D01*
X118103100Y-47546000D02*
X118103100Y-49946900D01*
X118103100Y-49946900D02*
X121268700Y-53112500D01*
X121268700Y-53112500D02*
X122388900Y-53112500D01*
X107856100Y-50942500D02*
X108506400Y-50292200D01*
X108506400Y-50292200D02*
X108506400Y-47897100D01*
X108506400Y-47897100D02*
X110319500Y-46084000D01*
X110319500Y-46084000D02*
X111809300Y-46084000D01*
X122021600Y-82448400D02*
X122021600Y-80938400D01*
X122021600Y-80938400D02*
X122950000Y-80010000D01*
G04 #@! TO.N,V_BUS*
X104828900Y-85948100D02*
X104828900Y-85327900D01*
X104828900Y-85327900D02*
X112714300Y-77442500D01*
X112714300Y-77442500D02*
X112836300Y-77442500D01*
X113148000Y-71396100D02*
X113148000Y-71926300D01*
X113148000Y-70866000D02*
X113148000Y-71396100D01*
X113148000Y-71926300D02*
X112800300Y-72274000D01*
X112800300Y-72274000D02*
X112800300Y-74618000D01*
X113148000Y-70966000D02*
X113148000Y-70866000D01*
X116593400Y-73685400D02*
X118897400Y-73685400D01*
X116230400Y-74048400D02*
X116593400Y-73685400D01*
X119285590Y-74073590D02*
X120566610Y-74073590D01*
X118897400Y-73685400D02*
X119285590Y-74073590D01*
X120566610Y-74073590D02*
X120650000Y-73990200D01*
X120650000Y-73990200D02*
X122275600Y-73990200D01*
X122656000Y-73609800D02*
X122656000Y-72862000D01*
X122275600Y-73990200D02*
X122656000Y-73609800D01*
X113792000Y-75609700D02*
X112800300Y-74618000D01*
X113792000Y-76486800D02*
X113792000Y-75609700D01*
X113792000Y-76486800D02*
X116230400Y-74048400D01*
X112836300Y-77442500D02*
X113792000Y-76486800D01*
G04 #@! TO.N,VBAT*
X110340000Y-74320200D02*
X109046900Y-75613300D01*
X109046900Y-75613300D02*
X109046900Y-78866700D01*
X109046900Y-78866700D02*
X105854300Y-82059300D01*
X118730900Y-77837500D02*
X109845900Y-86722500D01*
X109845900Y-86722500D02*
X103762200Y-86722500D01*
X103762200Y-86722500D02*
X103519700Y-86480000D01*
X124190000Y-46744000D02*
X124190000Y-49270200D01*
X103886000Y-83820000D02*
X103886000Y-84995300D01*
X103886000Y-84995300D02*
X103519700Y-85361600D01*
X103519700Y-85361600D02*
X103519700Y-86480000D01*
X124190000Y-46744000D02*
X124760710Y-47314710D01*
X127046500Y-59751600D02*
X123138200Y-55843300D01*
X123138200Y-55843300D02*
X122490100Y-55843300D01*
X122275600Y-55091400D02*
X121869200Y-54685000D01*
X122275600Y-56057800D02*
X122275600Y-55091400D01*
X122490100Y-55843300D02*
X122275600Y-56057800D01*
X124190000Y-49793502D02*
X124190000Y-46744000D01*
X123915001Y-50068501D02*
X124190000Y-49793502D01*
X125259000Y-52854471D02*
X124859001Y-52454472D01*
X124859001Y-52454472D02*
X124613674Y-52454472D01*
X124613674Y-52454472D02*
X123647200Y-51487998D01*
X123647200Y-51487998D02*
X123647200Y-50520600D01*
X123647200Y-50520600D02*
X123915001Y-50252799D01*
X123915001Y-50252799D02*
X123915001Y-50068501D01*
X122021000Y-56312400D02*
X122275600Y-56057800D01*
X122021000Y-58654600D02*
X122021000Y-56312400D01*
X124510800Y-70535800D02*
X124510800Y-62382400D01*
X124587000Y-70612000D02*
X124510800Y-70535800D01*
X123523020Y-74803000D02*
X123597810Y-74803000D01*
X119862600Y-76225400D02*
X120243600Y-76225400D01*
X120869733Y-76851533D02*
X122695758Y-76851533D01*
X120243600Y-76225400D02*
X120869733Y-76851533D01*
X119405400Y-75768200D02*
X119862600Y-76225400D01*
X118730900Y-77837500D02*
X118730900Y-76468100D01*
X124325100Y-62196700D02*
X124325100Y-60958700D01*
X119405400Y-75793600D02*
X119405400Y-75768200D01*
X123260133Y-75065886D02*
X123523020Y-74803000D01*
X118730900Y-76468100D02*
X119405400Y-75793600D01*
X122695758Y-76851533D02*
X123336367Y-76210924D01*
X124510800Y-62382400D02*
X124325100Y-62196700D01*
X123336367Y-76210924D02*
X123336368Y-75142121D01*
X124325100Y-60958700D02*
X122021000Y-58654600D01*
X124478209Y-73235391D02*
X124587000Y-73126600D01*
X123336368Y-75142121D02*
X123260133Y-75065886D01*
X123597810Y-74803000D02*
X124478209Y-73922601D01*
X124478209Y-73922601D02*
X124478209Y-73235391D01*
X124587000Y-73126600D02*
X124587000Y-70612000D01*
G04 #@! TO.N,Net-(JP1-Pad1)*
X127000000Y-56970000D02*
X126365000Y-56335000D01*
X126365000Y-56335000D02*
X126365000Y-55260000D01*
G04 #@! TO.N,/AlertB*
X126365000Y-53960000D02*
X119074000Y-53960000D01*
X119074000Y-53960000D02*
X116169600Y-56864400D01*
X116169600Y-56864400D02*
X116169600Y-57188400D01*
X116169600Y-57188400D02*
X115411900Y-57946100D01*
X115411900Y-57946100D02*
X109329800Y-57946100D01*
X109329800Y-57946100D02*
X108020200Y-59255700D01*
G04 #@! TO.N,Net-(R5-Pad1)*
X107042700Y-69064800D02*
X109006500Y-69064800D01*
X109006500Y-69064800D02*
X110134200Y-70192500D01*
G04 #@! TO.N,Net-(D2-Pad2)*
X121285000Y-72692500D02*
X118832500Y-72692500D01*
X118832500Y-72692500D02*
X118745000Y-72780000D01*
G04 #@! TO.N,/SAMLED*
X112043500Y-46875600D02*
X112043500Y-54099000D01*
X112966100Y-43816200D02*
X112966100Y-45953000D01*
X113678600Y-43102900D02*
X113678600Y-43103700D01*
X121685010Y-42308114D02*
X121048114Y-42945010D01*
X113836490Y-42945010D02*
X113678600Y-43102900D01*
X125044801Y-42703701D02*
X125044801Y-41923301D01*
X112043500Y-54099000D02*
X106485000Y-59657500D01*
X125444800Y-43103700D02*
X125044801Y-42703701D01*
X125044801Y-41923301D02*
X123253500Y-40132000D01*
X121048114Y-42945010D02*
X113836490Y-42945010D01*
X123253500Y-40132000D02*
X122428000Y-40132000D01*
X112966100Y-45953000D02*
X112043500Y-46875600D01*
X122428000Y-40132000D02*
X121685010Y-40874990D01*
X113678600Y-43103700D02*
X112966100Y-43816200D01*
X121685010Y-40874990D02*
X121685010Y-42308114D01*
G04 #@! TO.N,V_Solar*
X105680000Y-46744000D02*
X106308200Y-47372200D01*
X106308200Y-47372200D02*
X106308200Y-56195000D01*
X106308200Y-56195000D02*
X105740600Y-56762600D01*
X105740600Y-56762600D02*
X105740600Y-68788400D01*
X105740600Y-68788400D02*
X107818200Y-70866000D01*
X107818200Y-70866000D02*
X107887700Y-70866000D01*
X108848000Y-70866000D02*
X107887700Y-70866000D01*
G04 #@! TO.N,Net-(D5-Pad2)*
X115824000Y-54102000D02*
X115533300Y-54392700D01*
X115533300Y-54392700D02*
X115533300Y-57166000D01*
X115824000Y-54102000D02*
X116078000Y-53848000D01*
X116078000Y-53848000D02*
X116078000Y-49181300D01*
X116078000Y-48006000D02*
X116078000Y-49181300D01*
X114808000Y-57166000D02*
X115533300Y-57166000D01*
G04 #@! TO.N,Net-(IC1-Pad12)*
X125046500Y-76078995D02*
X124053600Y-77071895D01*
X125046500Y-75184000D02*
X125046500Y-76078995D01*
X124071810Y-77090105D02*
X124071810Y-78275610D01*
X124053600Y-77071895D02*
X124071810Y-77090105D01*
X128243496Y-80911621D02*
X127849875Y-80518000D01*
X128809181Y-80911621D02*
X128243496Y-80911621D01*
X127849875Y-80518000D02*
X126263400Y-80518000D01*
X124485400Y-78689200D02*
X124071810Y-78275610D01*
X124485400Y-78740000D02*
X124485400Y-78689200D01*
X126263400Y-80518000D02*
X124485400Y-78740000D01*
G04 #@! TO.N,/INT2*
X113440000Y-64100000D02*
X113440000Y-66704000D01*
X113440000Y-66704000D02*
X113601500Y-66865500D01*
X116202192Y-68834000D02*
X115619396Y-69416796D01*
X119786400Y-68834000D02*
X116202192Y-68834000D01*
X120369196Y-69416796D02*
X119786400Y-68834000D01*
X121004196Y-69416796D02*
X120369196Y-69416796D01*
X122758200Y-74295000D02*
X123469400Y-73583800D01*
X123469400Y-73583800D02*
X123469400Y-71755000D01*
X123469400Y-71755000D02*
X122809000Y-71094600D01*
X122809000Y-71094600D02*
X122682000Y-71094600D01*
X122682000Y-71094600D02*
X121004196Y-69416796D01*
X125730000Y-85394800D02*
X126466600Y-85394800D01*
X128005315Y-85572600D02*
X128571000Y-85572600D01*
X126466600Y-85394800D02*
X126492000Y-85420200D01*
X127852915Y-85420200D02*
X128005315Y-85572600D01*
X126492000Y-85420200D02*
X127852915Y-85420200D01*
X122758200Y-74295000D02*
X122047000Y-75006200D01*
X122047000Y-75006200D02*
X122047000Y-75412600D01*
X125730000Y-85394800D02*
X125730000Y-83972400D01*
X125730000Y-83972400D02*
X125552200Y-83794600D01*
X125552200Y-83413600D02*
X124129800Y-81991200D01*
X125552200Y-83794600D02*
X125552200Y-83413600D01*
G04 #@! TO.N,/INT1*
X109772300Y-77622000D02*
X111065300Y-76329000D01*
X111065300Y-76329000D02*
X111065300Y-70089600D01*
X111065300Y-70089600D02*
X108274000Y-67298300D01*
X108274000Y-67298300D02*
X107050100Y-67298300D01*
X107050100Y-67298300D02*
X107050100Y-61330100D01*
X107050100Y-61330100D02*
X106680000Y-60960000D01*
G04 #@! TO.N,Net-(IC1-Pad7)*
X126985400Y-86169700D02*
X126921500Y-86105800D01*
X127477737Y-78280237D02*
X126921500Y-77724000D01*
X127406400Y-78460600D02*
X127477737Y-78389263D01*
X128589001Y-78956601D02*
X127902401Y-78956601D01*
X127477737Y-78389263D02*
X127477737Y-78280237D01*
X128805602Y-78740000D02*
X128589001Y-78956601D01*
X126133837Y-86145200D02*
X126286238Y-86297601D01*
X127902401Y-78956601D02*
X127406400Y-78460600D01*
X128919001Y-86297601D02*
X129296001Y-85920601D01*
X129296001Y-78851601D02*
X129184400Y-78740000D01*
X126286238Y-86297601D02*
X128919001Y-86297601D01*
X129184400Y-78740000D02*
X128805602Y-78740000D01*
X129534182Y-81259622D02*
X129534182Y-80308982D01*
X129296001Y-85920601D02*
X129296001Y-81497803D01*
X129296001Y-81497803D02*
X129534182Y-81259622D01*
X129296001Y-80070801D02*
X129296001Y-78851601D01*
X129534182Y-80308982D02*
X129296001Y-80070801D01*
G04 #@! TO.N,/TXD*
X115824000Y-89285000D02*
X115824000Y-90865300D01*
X115824000Y-90865300D02*
X110063600Y-90865300D01*
X110063600Y-90865300D02*
X106672900Y-87474600D01*
X106672900Y-87474600D02*
X103485700Y-87474600D01*
X103485700Y-87474600D02*
X102710100Y-86699000D01*
X102710100Y-86699000D02*
X102710100Y-83317100D01*
X102710100Y-83317100D02*
X103431600Y-82595600D01*
X103431600Y-82595600D02*
X105354300Y-82595600D01*
X105354300Y-82595600D02*
X105548100Y-82789400D01*
X105548100Y-82789400D02*
X106211400Y-82789400D01*
X106211400Y-82789400D02*
X111515800Y-77485000D01*
X111515800Y-77485000D02*
X111515800Y-69903200D01*
X111515800Y-69903200D02*
X109263200Y-67650600D01*
X109263200Y-67650600D02*
X109263200Y-62105400D01*
X109263200Y-62105400D02*
X110113900Y-61254700D01*
G04 #@! TO.N,/RXD*
X118364000Y-85975000D02*
X118364000Y-84394700D01*
X112535800Y-76717200D02*
X112021500Y-76202900D01*
X112021500Y-76202900D02*
X112021500Y-69623900D01*
X112021500Y-69623900D02*
X109748200Y-67350600D01*
X109748200Y-67350600D02*
X109748200Y-64897800D01*
X109748200Y-64897800D02*
X112440000Y-62206000D01*
X118364000Y-84394700D02*
X119384700Y-84394700D01*
X119384700Y-84394700D02*
X119922000Y-84932000D01*
G04 #@! TO.N,Net-(Q1-Pad1)*
X115758000Y-59166000D02*
X115758000Y-59941300D01*
X115758000Y-59941300D02*
X115745500Y-59953800D01*
X115745500Y-59953800D02*
X115745500Y-60960000D01*
G04 #@! TO.N,Net-(R10-Pad1)*
X103886000Y-81280000D02*
X105061300Y-81280000D01*
X105061300Y-81280000D02*
X105061300Y-80859700D01*
X105061300Y-80859700D02*
X108274600Y-77646400D01*
X115531000Y-79718800D02*
X111463700Y-79718800D01*
X117354100Y-77895700D02*
X115531000Y-79718800D01*
X117354100Y-75190100D02*
X117354100Y-77895700D01*
X124028200Y-70824900D02*
X124028200Y-73736200D01*
X123068700Y-69865400D02*
X124028200Y-70824900D01*
X124028200Y-73736200D02*
X123621800Y-74142600D01*
X123547010Y-74142600D02*
X122732800Y-74956810D01*
X123621800Y-74142600D02*
X123547010Y-74142600D01*
X122732800Y-75174963D02*
X122886358Y-75328521D01*
X122732800Y-74956810D02*
X122732800Y-75174963D01*
X122886358Y-76024523D02*
X122509358Y-76401523D01*
X122886358Y-75328521D02*
X122886358Y-76024523D01*
X122509358Y-76401523D02*
X121080123Y-76401523D01*
X121080123Y-76401523D02*
X119862600Y-75184000D01*
X119862600Y-75184000D02*
X118116202Y-75184000D01*
X118116202Y-75184000D02*
X117354100Y-75190100D01*
G04 #@! TO.N,/PinMotor*
X113870500Y-60960000D02*
X115290900Y-62380400D01*
X115290900Y-62380400D02*
X115702000Y-62380400D01*
G04 #@! TD*
D28*
G04 #@! TO.N,GND*
G36*
X124790765Y-83726968D02*
X124777312Y-83794600D01*
X124792200Y-83869447D01*
X124792200Y-83869451D01*
X124836296Y-84091136D01*
X124970001Y-84291240D01*
X124970000Y-85319948D01*
X124955111Y-85394800D01*
X125014096Y-85691337D01*
X125129819Y-85864529D01*
X125098837Y-85939326D01*
X125098837Y-86351074D01*
X125256406Y-86731480D01*
X125547557Y-87022631D01*
X125927963Y-87180200D01*
X126339711Y-87180200D01*
X126530044Y-87101362D01*
X126779526Y-87204700D01*
X127191274Y-87204700D01*
X127546403Y-87057601D01*
X128844154Y-87057601D01*
X128919001Y-87072489D01*
X128993848Y-87057601D01*
X128993853Y-87057601D01*
X129215538Y-87013505D01*
X129413000Y-86881565D01*
X129413000Y-90371531D01*
X129325596Y-90522919D01*
X129179524Y-90645488D01*
X128970532Y-90721555D01*
X128874004Y-90730000D01*
X122013647Y-90730000D01*
X122051440Y-90540000D01*
X122051440Y-88554887D01*
X125900000Y-88554887D01*
X125900000Y-89245113D01*
X126164138Y-89882799D01*
X126652201Y-90370862D01*
X127289887Y-90635000D01*
X127980113Y-90635000D01*
X128617799Y-90370862D01*
X129105862Y-89882799D01*
X129370000Y-89245113D01*
X129370000Y-88554887D01*
X129105862Y-87917201D01*
X128617799Y-87429138D01*
X127980113Y-87165000D01*
X127289887Y-87165000D01*
X126652201Y-87429138D01*
X126164138Y-87917201D01*
X125900000Y-88554887D01*
X122051440Y-88554887D01*
X122051440Y-88030000D01*
X122002157Y-87782235D01*
X121861809Y-87572191D01*
X121651765Y-87431843D01*
X121404000Y-87382560D01*
X120404000Y-87382560D01*
X120231412Y-87416890D01*
X123420476Y-84227827D01*
X123483929Y-84185429D01*
X123526327Y-84121976D01*
X123526329Y-84121974D01*
X123526333Y-84121968D01*
X123759970Y-83888331D01*
X123823429Y-83845929D01*
X123991404Y-83594537D01*
X124035500Y-83372852D01*
X124035500Y-83372848D01*
X124039035Y-83355076D01*
X124152931Y-83241180D01*
X124197465Y-83133666D01*
X124790765Y-83726968D01*
X124790765Y-83726968D01*
G37*
X124790765Y-83726968D02*
X124777312Y-83794600D01*
X124792200Y-83869447D01*
X124792200Y-83869451D01*
X124836296Y-84091136D01*
X124970001Y-84291240D01*
X124970000Y-85319948D01*
X124955111Y-85394800D01*
X125014096Y-85691337D01*
X125129819Y-85864529D01*
X125098837Y-85939326D01*
X125098837Y-86351074D01*
X125256406Y-86731480D01*
X125547557Y-87022631D01*
X125927963Y-87180200D01*
X126339711Y-87180200D01*
X126530044Y-87101362D01*
X126779526Y-87204700D01*
X127191274Y-87204700D01*
X127546403Y-87057601D01*
X128844154Y-87057601D01*
X128919001Y-87072489D01*
X128993848Y-87057601D01*
X128993853Y-87057601D01*
X129215538Y-87013505D01*
X129413000Y-86881565D01*
X129413000Y-90371531D01*
X129325596Y-90522919D01*
X129179524Y-90645488D01*
X128970532Y-90721555D01*
X128874004Y-90730000D01*
X122013647Y-90730000D01*
X122051440Y-90540000D01*
X122051440Y-88554887D01*
X125900000Y-88554887D01*
X125900000Y-89245113D01*
X126164138Y-89882799D01*
X126652201Y-90370862D01*
X127289887Y-90635000D01*
X127980113Y-90635000D01*
X128617799Y-90370862D01*
X129105862Y-89882799D01*
X129370000Y-89245113D01*
X129370000Y-88554887D01*
X129105862Y-87917201D01*
X128617799Y-87429138D01*
X127980113Y-87165000D01*
X127289887Y-87165000D01*
X126652201Y-87429138D01*
X126164138Y-87917201D01*
X125900000Y-88554887D01*
X122051440Y-88554887D01*
X122051440Y-88030000D01*
X122002157Y-87782235D01*
X121861809Y-87572191D01*
X121651765Y-87431843D01*
X121404000Y-87382560D01*
X120404000Y-87382560D01*
X120231412Y-87416890D01*
X123420476Y-84227827D01*
X123483929Y-84185429D01*
X123526327Y-84121976D01*
X123526329Y-84121974D01*
X123526333Y-84121968D01*
X123759970Y-83888331D01*
X123823429Y-83845929D01*
X123991404Y-83594537D01*
X124035500Y-83372852D01*
X124035500Y-83372848D01*
X124039035Y-83355076D01*
X124152931Y-83241180D01*
X124197465Y-83133666D01*
X124790765Y-83726968D01*
G36*
X117019801Y-81636948D02*
X117004912Y-81711800D01*
X117019801Y-81786652D01*
X117063897Y-82008337D01*
X117231872Y-82259729D01*
X117295328Y-82302129D01*
X118627898Y-83634700D01*
X118438852Y-83634700D01*
X118364000Y-83619811D01*
X118289148Y-83634700D01*
X118067463Y-83678796D01*
X117816071Y-83846771D01*
X117648096Y-84098163D01*
X117644504Y-84116220D01*
X117616235Y-84121843D01*
X117406191Y-84262191D01*
X117265843Y-84472235D01*
X117216560Y-84720000D01*
X117216560Y-86053159D01*
X116666730Y-85503329D01*
X116624329Y-85439871D01*
X116372937Y-85271897D01*
X116278177Y-85253048D01*
X116076400Y-85212912D01*
X116076399Y-85212912D01*
X115779862Y-85271897D01*
X115591927Y-85397471D01*
X115528471Y-85439871D01*
X115486072Y-85503326D01*
X114419000Y-86570399D01*
X114419000Y-86260750D01*
X114260250Y-86102000D01*
X113411000Y-86102000D01*
X113411000Y-86122000D01*
X113157000Y-86122000D01*
X113157000Y-86102000D01*
X112307750Y-86102000D01*
X112149000Y-86260750D01*
X112149000Y-86944700D01*
X110818852Y-86944700D01*
X110744000Y-86929811D01*
X110705789Y-86937412D01*
X112149000Y-85494201D01*
X112149000Y-85689250D01*
X112307750Y-85848000D01*
X113157000Y-85848000D01*
X113157000Y-85828000D01*
X113411000Y-85828000D01*
X113411000Y-85848000D01*
X114260250Y-85848000D01*
X114419000Y-85689250D01*
X114419000Y-84593691D01*
X114322327Y-84360302D01*
X114143699Y-84181673D01*
X113910310Y-84085000D01*
X113569750Y-84085000D01*
X113411002Y-84243748D01*
X113411002Y-84232199D01*
X117019800Y-80623401D01*
X117019801Y-81636948D01*
X117019801Y-81636948D01*
G37*
X117019801Y-81636948D02*
X117004912Y-81711800D01*
X117019801Y-81786652D01*
X117063897Y-82008337D01*
X117231872Y-82259729D01*
X117295328Y-82302129D01*
X118627898Y-83634700D01*
X118438852Y-83634700D01*
X118364000Y-83619811D01*
X118289148Y-83634700D01*
X118067463Y-83678796D01*
X117816071Y-83846771D01*
X117648096Y-84098163D01*
X117644504Y-84116220D01*
X117616235Y-84121843D01*
X117406191Y-84262191D01*
X117265843Y-84472235D01*
X117216560Y-84720000D01*
X117216560Y-86053159D01*
X116666730Y-85503329D01*
X116624329Y-85439871D01*
X116372937Y-85271897D01*
X116278177Y-85253048D01*
X116076400Y-85212912D01*
X116076399Y-85212912D01*
X115779862Y-85271897D01*
X115591927Y-85397471D01*
X115528471Y-85439871D01*
X115486072Y-85503326D01*
X114419000Y-86570399D01*
X114419000Y-86260750D01*
X114260250Y-86102000D01*
X113411000Y-86102000D01*
X113411000Y-86122000D01*
X113157000Y-86122000D01*
X113157000Y-86102000D01*
X112307750Y-86102000D01*
X112149000Y-86260750D01*
X112149000Y-86944700D01*
X110818852Y-86944700D01*
X110744000Y-86929811D01*
X110705789Y-86937412D01*
X112149000Y-85494201D01*
X112149000Y-85689250D01*
X112307750Y-85848000D01*
X113157000Y-85848000D01*
X113157000Y-85828000D01*
X113411000Y-85828000D01*
X113411000Y-85848000D01*
X114260250Y-85848000D01*
X114419000Y-85689250D01*
X114419000Y-84593691D01*
X114322327Y-84360302D01*
X114143699Y-84181673D01*
X113910310Y-84085000D01*
X113569750Y-84085000D01*
X113411002Y-84243748D01*
X113411002Y-84232199D01*
X117019800Y-80623401D01*
X117019801Y-81636948D01*
G36*
X110877420Y-80596231D02*
X111257826Y-80753800D01*
X111669574Y-80753800D01*
X112049980Y-80596231D01*
X112167411Y-80478800D01*
X115014798Y-80478800D01*
X109531099Y-85962500D01*
X105863900Y-85962500D01*
X105863900Y-85742226D01*
X105754204Y-85477397D01*
X110756395Y-80475206D01*
X110877420Y-80596231D01*
X110877420Y-80596231D01*
G37*
X110877420Y-80596231D02*
X111257826Y-80753800D01*
X111669574Y-80753800D01*
X112049980Y-80596231D01*
X112167411Y-80478800D01*
X115014798Y-80478800D01*
X109531099Y-85962500D01*
X105863900Y-85962500D01*
X105863900Y-85742226D01*
X105754204Y-85477397D01*
X110756395Y-80475206D01*
X110877420Y-80596231D01*
G36*
X123479514Y-78757137D02*
X123523882Y-78823539D01*
X123587338Y-78865939D01*
X123792776Y-79071377D01*
X123937471Y-79287929D01*
X124000930Y-79330331D01*
X125673070Y-81002472D01*
X125715471Y-81065929D01*
X125778927Y-81108329D01*
X125966862Y-81233904D01*
X126015005Y-81243480D01*
X126188548Y-81278000D01*
X126188552Y-81278000D01*
X126263400Y-81292888D01*
X126338248Y-81278000D01*
X127535074Y-81278000D01*
X127653165Y-81396091D01*
X127695567Y-81459550D01*
X127946959Y-81627525D01*
X128089784Y-81655935D01*
X128222901Y-81789052D01*
X128536002Y-81918742D01*
X128536001Y-84537600D01*
X128365126Y-84537600D01*
X128023277Y-84679198D01*
X127927767Y-84660200D01*
X127927762Y-84660200D01*
X127852915Y-84645312D01*
X127778068Y-84660200D01*
X126669146Y-84660200D01*
X126541452Y-84634800D01*
X126541447Y-84634800D01*
X126490000Y-84624567D01*
X126490000Y-84047246D01*
X126504888Y-83972399D01*
X126490000Y-83897552D01*
X126490000Y-83897548D01*
X126445904Y-83675863D01*
X126314144Y-83478671D01*
X126327088Y-83413599D01*
X126312200Y-83338752D01*
X126312200Y-83338749D01*
X126268104Y-83117063D01*
X126203056Y-83019712D01*
X126142529Y-82929126D01*
X126142527Y-82929124D01*
X126100129Y-82865671D01*
X126036676Y-82823273D01*
X125164800Y-81951398D01*
X125164800Y-81785326D01*
X125007231Y-81404920D01*
X124716080Y-81113769D01*
X124335674Y-80956200D01*
X123923926Y-80956200D01*
X123543520Y-81113769D01*
X123252369Y-81404920D01*
X123163322Y-81619900D01*
X123069626Y-81619900D01*
X122781600Y-81739204D01*
X122781600Y-81253201D01*
X122989801Y-81045000D01*
X123155874Y-81045000D01*
X123536280Y-80887431D01*
X123827431Y-80596280D01*
X123985000Y-80215874D01*
X123985000Y-79804126D01*
X123827431Y-79423720D01*
X123536280Y-79132569D01*
X123193310Y-78990507D01*
X123380484Y-78803333D01*
X123430193Y-78683324D01*
X123479514Y-78757137D01*
X123479514Y-78757137D01*
G37*
X123479514Y-78757137D02*
X123523882Y-78823539D01*
X123587338Y-78865939D01*
X123792776Y-79071377D01*
X123937471Y-79287929D01*
X124000930Y-79330331D01*
X125673070Y-81002472D01*
X125715471Y-81065929D01*
X125778927Y-81108329D01*
X125966862Y-81233904D01*
X126015005Y-81243480D01*
X126188548Y-81278000D01*
X126188552Y-81278000D01*
X126263400Y-81292888D01*
X126338248Y-81278000D01*
X127535074Y-81278000D01*
X127653165Y-81396091D01*
X127695567Y-81459550D01*
X127946959Y-81627525D01*
X128089784Y-81655935D01*
X128222901Y-81789052D01*
X128536002Y-81918742D01*
X128536001Y-84537600D01*
X128365126Y-84537600D01*
X128023277Y-84679198D01*
X127927767Y-84660200D01*
X127927762Y-84660200D01*
X127852915Y-84645312D01*
X127778068Y-84660200D01*
X126669146Y-84660200D01*
X126541452Y-84634800D01*
X126541447Y-84634800D01*
X126490000Y-84624567D01*
X126490000Y-84047246D01*
X126504888Y-83972399D01*
X126490000Y-83897552D01*
X126490000Y-83897548D01*
X126445904Y-83675863D01*
X126314144Y-83478671D01*
X126327088Y-83413599D01*
X126312200Y-83338752D01*
X126312200Y-83338749D01*
X126268104Y-83117063D01*
X126203056Y-83019712D01*
X126142529Y-82929126D01*
X126142527Y-82929124D01*
X126100129Y-82865671D01*
X126036676Y-82823273D01*
X125164800Y-81951398D01*
X125164800Y-81785326D01*
X125007231Y-81404920D01*
X124716080Y-81113769D01*
X124335674Y-80956200D01*
X123923926Y-80956200D01*
X123543520Y-81113769D01*
X123252369Y-81404920D01*
X123163322Y-81619900D01*
X123069626Y-81619900D01*
X122781600Y-81739204D01*
X122781600Y-81253201D01*
X122989801Y-81045000D01*
X123155874Y-81045000D01*
X123536280Y-80887431D01*
X123827431Y-80596280D01*
X123985000Y-80215874D01*
X123985000Y-79804126D01*
X123827431Y-79423720D01*
X123536280Y-79132569D01*
X123193310Y-78990507D01*
X123380484Y-78803333D01*
X123430193Y-78683324D01*
X123479514Y-78757137D01*
G36*
X102679500Y-72030000D02*
X102999001Y-72030000D01*
X102999000Y-72886653D01*
X102984112Y-72961500D01*
X102999000Y-73036347D01*
X102999000Y-73036351D01*
X103043096Y-73258036D01*
X103211071Y-73509429D01*
X103274530Y-73551831D01*
X103884970Y-74162272D01*
X103927371Y-74225729D01*
X104178763Y-74393704D01*
X104400448Y-74437800D01*
X104400452Y-74437800D01*
X104466795Y-74450997D01*
X105480969Y-75465170D01*
X105147622Y-75603247D01*
X105082707Y-75841602D01*
X105856500Y-76615395D01*
X105870643Y-76601253D01*
X106050248Y-76780858D01*
X106036105Y-76795000D01*
X106809898Y-77568793D01*
X107048253Y-77503878D01*
X107115622Y-77313581D01*
X107197026Y-77347300D01*
X107278215Y-77347300D01*
X107239600Y-77440526D01*
X107239600Y-77606597D01*
X105002103Y-79844096D01*
X104983765Y-79831843D01*
X104736000Y-79782560D01*
X103036000Y-79782560D01*
X102788235Y-79831843D01*
X102578191Y-79972191D01*
X102437843Y-80182235D01*
X102388560Y-80430000D01*
X102388560Y-82130000D01*
X102437843Y-82377765D01*
X102492634Y-82459765D01*
X102310000Y-82642399D01*
X102310000Y-78916176D01*
X102679500Y-79030000D01*
X103029500Y-79030000D01*
X103029500Y-77922000D01*
X103283500Y-77922000D01*
X103283500Y-79030000D01*
X103633500Y-79030000D01*
X104096447Y-78887390D01*
X104469580Y-78578474D01*
X104696092Y-78150281D01*
X104699962Y-78112609D01*
X104575231Y-77922000D01*
X103283500Y-77922000D01*
X103029500Y-77922000D01*
X103009500Y-77922000D01*
X103009500Y-77748398D01*
X105082707Y-77748398D01*
X105147622Y-77986753D01*
X105657646Y-78167312D01*
X106197944Y-78138949D01*
X106565378Y-77986753D01*
X106630293Y-77748398D01*
X105856500Y-76974605D01*
X105082707Y-77748398D01*
X103009500Y-77748398D01*
X103009500Y-77668000D01*
X103029500Y-77668000D01*
X103029500Y-76560000D01*
X103283500Y-76560000D01*
X103283500Y-77668000D01*
X104575231Y-77668000D01*
X104679924Y-77508012D01*
X104903102Y-77568793D01*
X105676895Y-76795000D01*
X104903102Y-76021207D01*
X104664747Y-76086122D01*
X104484188Y-76596146D01*
X104510005Y-77087945D01*
X104469580Y-77011526D01*
X104096447Y-76702610D01*
X103633500Y-76560000D01*
X103283500Y-76560000D01*
X103029500Y-76560000D01*
X102679500Y-76560000D01*
X102310000Y-76673824D01*
X102310000Y-71916176D01*
X102679500Y-72030000D01*
X102679500Y-72030000D01*
G37*
X102679500Y-72030000D02*
X102999001Y-72030000D01*
X102999000Y-72886653D01*
X102984112Y-72961500D01*
X102999000Y-73036347D01*
X102999000Y-73036351D01*
X103043096Y-73258036D01*
X103211071Y-73509429D01*
X103274530Y-73551831D01*
X103884970Y-74162272D01*
X103927371Y-74225729D01*
X104178763Y-74393704D01*
X104400448Y-74437800D01*
X104400452Y-74437800D01*
X104466795Y-74450997D01*
X105480969Y-75465170D01*
X105147622Y-75603247D01*
X105082707Y-75841602D01*
X105856500Y-76615395D01*
X105870643Y-76601253D01*
X106050248Y-76780858D01*
X106036105Y-76795000D01*
X106809898Y-77568793D01*
X107048253Y-77503878D01*
X107115622Y-77313581D01*
X107197026Y-77347300D01*
X107278215Y-77347300D01*
X107239600Y-77440526D01*
X107239600Y-77606597D01*
X105002103Y-79844096D01*
X104983765Y-79831843D01*
X104736000Y-79782560D01*
X103036000Y-79782560D01*
X102788235Y-79831843D01*
X102578191Y-79972191D01*
X102437843Y-80182235D01*
X102388560Y-80430000D01*
X102388560Y-82130000D01*
X102437843Y-82377765D01*
X102492634Y-82459765D01*
X102310000Y-82642399D01*
X102310000Y-78916176D01*
X102679500Y-79030000D01*
X103029500Y-79030000D01*
X103029500Y-77922000D01*
X103283500Y-77922000D01*
X103283500Y-79030000D01*
X103633500Y-79030000D01*
X104096447Y-78887390D01*
X104469580Y-78578474D01*
X104696092Y-78150281D01*
X104699962Y-78112609D01*
X104575231Y-77922000D01*
X103283500Y-77922000D01*
X103029500Y-77922000D01*
X103009500Y-77922000D01*
X103009500Y-77748398D01*
X105082707Y-77748398D01*
X105147622Y-77986753D01*
X105657646Y-78167312D01*
X106197944Y-78138949D01*
X106565378Y-77986753D01*
X106630293Y-77748398D01*
X105856500Y-76974605D01*
X105082707Y-77748398D01*
X103009500Y-77748398D01*
X103009500Y-77668000D01*
X103029500Y-77668000D01*
X103029500Y-76560000D01*
X103283500Y-76560000D01*
X103283500Y-77668000D01*
X104575231Y-77668000D01*
X104679924Y-77508012D01*
X104903102Y-77568793D01*
X105676895Y-76795000D01*
X104903102Y-76021207D01*
X104664747Y-76086122D01*
X104484188Y-76596146D01*
X104510005Y-77087945D01*
X104469580Y-77011526D01*
X104096447Y-76702610D01*
X103633500Y-76560000D01*
X103283500Y-76560000D01*
X103029500Y-76560000D01*
X102679500Y-76560000D01*
X102310000Y-76673824D01*
X102310000Y-71916176D01*
X102679500Y-72030000D01*
G36*
X129092787Y-38219065D02*
X129257920Y-38314405D01*
X129380488Y-38460477D01*
X129413000Y-38549801D01*
X129413000Y-78010582D01*
X129259252Y-77980000D01*
X129259247Y-77980000D01*
X129256863Y-77979526D01*
X129118431Y-77645320D01*
X129001000Y-77527889D01*
X129001000Y-71301747D01*
X129015888Y-71226900D01*
X129001000Y-71152053D01*
X129001000Y-71152048D01*
X128956904Y-70930363D01*
X128788929Y-70678971D01*
X128725473Y-70636571D01*
X127786606Y-69697704D01*
X128307153Y-69482086D01*
X128767086Y-69022153D01*
X129016000Y-68421222D01*
X129016000Y-67770778D01*
X128767086Y-67169847D01*
X128307153Y-66709914D01*
X127706222Y-66461000D01*
X127055778Y-66461000D01*
X126778200Y-66575977D01*
X126778200Y-62846101D01*
X128256273Y-61368029D01*
X128319729Y-61325629D01*
X128487704Y-61074237D01*
X128546688Y-60777700D01*
X128531501Y-60701349D01*
X128531501Y-59478447D01*
X128546389Y-59403599D01*
X128531501Y-59328751D01*
X128531501Y-59328747D01*
X128487405Y-59107062D01*
X128355807Y-58910112D01*
X128350904Y-58885463D01*
X128182929Y-58634071D01*
X128119470Y-58591669D01*
X128108001Y-58580200D01*
X128108001Y-58009802D01*
X128209471Y-57908332D01*
X128272930Y-57865930D01*
X128440905Y-57614538D01*
X128485001Y-57392853D01*
X128485001Y-57392849D01*
X128499889Y-57318001D01*
X128485001Y-57243153D01*
X128485001Y-56696847D01*
X128499889Y-56621999D01*
X128485001Y-56547151D01*
X128485001Y-56547147D01*
X128440905Y-56325462D01*
X128293400Y-56104705D01*
X128293400Y-53789910D01*
X128308288Y-53715062D01*
X128293400Y-53640214D01*
X128293400Y-53640210D01*
X128249304Y-53418525D01*
X128081329Y-53167133D01*
X128017873Y-53124733D01*
X126935869Y-52042730D01*
X126893467Y-51979271D01*
X126642075Y-51811296D01*
X126420390Y-51767200D01*
X126420385Y-51767200D01*
X126345538Y-51752312D01*
X126294138Y-51762536D01*
X126110612Y-51579010D01*
X127303333Y-51579010D01*
X127378180Y-51593898D01*
X127453027Y-51579010D01*
X127453032Y-51579010D01*
X127674717Y-51534914D01*
X127926109Y-51366939D01*
X127968511Y-51303480D01*
X128199480Y-51072511D01*
X128262939Y-51030109D01*
X128430914Y-50778717D01*
X128475010Y-50557032D01*
X128475010Y-50557028D01*
X128489898Y-50482180D01*
X128475010Y-50407332D01*
X128475010Y-47034335D01*
X128487704Y-47015337D01*
X128546689Y-46718800D01*
X128487704Y-46422263D01*
X128319729Y-46170871D01*
X128068337Y-46002896D01*
X127846652Y-45958800D01*
X127846646Y-45958800D01*
X127771799Y-45943912D01*
X127696952Y-45958800D01*
X126326858Y-45958800D01*
X126252010Y-45943912D01*
X126177162Y-45958800D01*
X126177158Y-45958800D01*
X125955473Y-46002896D01*
X125781228Y-46119323D01*
X125660369Y-46069262D01*
X125337440Y-46069262D01*
X125337440Y-44244000D01*
X125316494Y-44138700D01*
X125650674Y-44138700D01*
X126031080Y-43981131D01*
X126322231Y-43689980D01*
X126479800Y-43309574D01*
X126479800Y-42897826D01*
X126322231Y-42517420D01*
X126031080Y-42226269D01*
X125804801Y-42132541D01*
X125804801Y-41998147D01*
X125819689Y-41923300D01*
X125804801Y-41848453D01*
X125804801Y-41848449D01*
X125760705Y-41626764D01*
X125592730Y-41375372D01*
X125529274Y-41332972D01*
X123856189Y-39659887D01*
X125900000Y-39659887D01*
X125900000Y-40350113D01*
X126164138Y-40987799D01*
X126652201Y-41475862D01*
X127289887Y-41740000D01*
X127980113Y-41740000D01*
X128617799Y-41475862D01*
X129105862Y-40987799D01*
X129370000Y-40350113D01*
X129370000Y-39659887D01*
X129105862Y-39022201D01*
X128617799Y-38534138D01*
X127980113Y-38270000D01*
X127289887Y-38270000D01*
X126652201Y-38534138D01*
X126164138Y-39022201D01*
X125900000Y-39659887D01*
X123856189Y-39659887D01*
X123843831Y-39647530D01*
X123801429Y-39584071D01*
X123550037Y-39416096D01*
X123328352Y-39372000D01*
X123328347Y-39372000D01*
X123253500Y-39357112D01*
X123178653Y-39372000D01*
X122502848Y-39372000D01*
X122428000Y-39357112D01*
X122353152Y-39372000D01*
X122353148Y-39372000D01*
X122131463Y-39416096D01*
X121995000Y-39507278D01*
X121995000Y-38175000D01*
X128842881Y-38175000D01*
X129092787Y-38219065D01*
X129092787Y-38219065D01*
G37*
X129092787Y-38219065D02*
X129257920Y-38314405D01*
X129380488Y-38460477D01*
X129413000Y-38549801D01*
X129413000Y-78010582D01*
X129259252Y-77980000D01*
X129259247Y-77980000D01*
X129256863Y-77979526D01*
X129118431Y-77645320D01*
X129001000Y-77527889D01*
X129001000Y-71301747D01*
X129015888Y-71226900D01*
X129001000Y-71152053D01*
X129001000Y-71152048D01*
X128956904Y-70930363D01*
X128788929Y-70678971D01*
X128725473Y-70636571D01*
X127786606Y-69697704D01*
X128307153Y-69482086D01*
X128767086Y-69022153D01*
X129016000Y-68421222D01*
X129016000Y-67770778D01*
X128767086Y-67169847D01*
X128307153Y-66709914D01*
X127706222Y-66461000D01*
X127055778Y-66461000D01*
X126778200Y-66575977D01*
X126778200Y-62846101D01*
X128256273Y-61368029D01*
X128319729Y-61325629D01*
X128487704Y-61074237D01*
X128546688Y-60777700D01*
X128531501Y-60701349D01*
X128531501Y-59478447D01*
X128546389Y-59403599D01*
X128531501Y-59328751D01*
X128531501Y-59328747D01*
X128487405Y-59107062D01*
X128355807Y-58910112D01*
X128350904Y-58885463D01*
X128182929Y-58634071D01*
X128119470Y-58591669D01*
X128108001Y-58580200D01*
X128108001Y-58009802D01*
X128209471Y-57908332D01*
X128272930Y-57865930D01*
X128440905Y-57614538D01*
X128485001Y-57392853D01*
X128485001Y-57392849D01*
X128499889Y-57318001D01*
X128485001Y-57243153D01*
X128485001Y-56696847D01*
X128499889Y-56621999D01*
X128485001Y-56547151D01*
X128485001Y-56547147D01*
X128440905Y-56325462D01*
X128293400Y-56104705D01*
X128293400Y-53789910D01*
X128308288Y-53715062D01*
X128293400Y-53640214D01*
X128293400Y-53640210D01*
X128249304Y-53418525D01*
X128081329Y-53167133D01*
X128017873Y-53124733D01*
X126935869Y-52042730D01*
X126893467Y-51979271D01*
X126642075Y-51811296D01*
X126420390Y-51767200D01*
X126420385Y-51767200D01*
X126345538Y-51752312D01*
X126294138Y-51762536D01*
X126110612Y-51579010D01*
X127303333Y-51579010D01*
X127378180Y-51593898D01*
X127453027Y-51579010D01*
X127453032Y-51579010D01*
X127674717Y-51534914D01*
X127926109Y-51366939D01*
X127968511Y-51303480D01*
X128199480Y-51072511D01*
X128262939Y-51030109D01*
X128430914Y-50778717D01*
X128475010Y-50557032D01*
X128475010Y-50557028D01*
X128489898Y-50482180D01*
X128475010Y-50407332D01*
X128475010Y-47034335D01*
X128487704Y-47015337D01*
X128546689Y-46718800D01*
X128487704Y-46422263D01*
X128319729Y-46170871D01*
X128068337Y-46002896D01*
X127846652Y-45958800D01*
X127846646Y-45958800D01*
X127771799Y-45943912D01*
X127696952Y-45958800D01*
X126326858Y-45958800D01*
X126252010Y-45943912D01*
X126177162Y-45958800D01*
X126177158Y-45958800D01*
X125955473Y-46002896D01*
X125781228Y-46119323D01*
X125660369Y-46069262D01*
X125337440Y-46069262D01*
X125337440Y-44244000D01*
X125316494Y-44138700D01*
X125650674Y-44138700D01*
X126031080Y-43981131D01*
X126322231Y-43689980D01*
X126479800Y-43309574D01*
X126479800Y-42897826D01*
X126322231Y-42517420D01*
X126031080Y-42226269D01*
X125804801Y-42132541D01*
X125804801Y-41998147D01*
X125819689Y-41923300D01*
X125804801Y-41848453D01*
X125804801Y-41848449D01*
X125760705Y-41626764D01*
X125592730Y-41375372D01*
X125529274Y-41332972D01*
X123856189Y-39659887D01*
X125900000Y-39659887D01*
X125900000Y-40350113D01*
X126164138Y-40987799D01*
X126652201Y-41475862D01*
X127289887Y-41740000D01*
X127980113Y-41740000D01*
X128617799Y-41475862D01*
X129105862Y-40987799D01*
X129370000Y-40350113D01*
X129370000Y-39659887D01*
X129105862Y-39022201D01*
X128617799Y-38534138D01*
X127980113Y-38270000D01*
X127289887Y-38270000D01*
X126652201Y-38534138D01*
X126164138Y-39022201D01*
X125900000Y-39659887D01*
X123856189Y-39659887D01*
X123843831Y-39647530D01*
X123801429Y-39584071D01*
X123550037Y-39416096D01*
X123328352Y-39372000D01*
X123328347Y-39372000D01*
X123253500Y-39357112D01*
X123178653Y-39372000D01*
X122502848Y-39372000D01*
X122428000Y-39357112D01*
X122353152Y-39372000D01*
X122353148Y-39372000D01*
X122131463Y-39416096D01*
X121995000Y-39507278D01*
X121995000Y-38175000D01*
X128842881Y-38175000D01*
X129092787Y-38219065D01*
G36*
X123311810Y-77562099D02*
X123187030Y-77437319D01*
X123243687Y-77399462D01*
X123286089Y-77336003D01*
X123311810Y-77310282D01*
X123311810Y-77562099D01*
X123311810Y-77562099D01*
G37*
X123311810Y-77562099D02*
X123187030Y-77437319D01*
X123243687Y-77399462D01*
X123286089Y-77336003D01*
X123311810Y-77310282D01*
X123311810Y-77562099D01*
G36*
X121287000Y-74931349D02*
X121287000Y-74931353D01*
X121272112Y-75006200D01*
X121287000Y-75081047D01*
X121287000Y-75087168D01*
X121283926Y-75090242D01*
X121154970Y-75401569D01*
X120596028Y-74842626D01*
X120641457Y-74833590D01*
X120641462Y-74833590D01*
X120863147Y-74789494D01*
X120921955Y-74750200D01*
X121323033Y-74750200D01*
X121287000Y-74931349D01*
X121287000Y-74931349D01*
G37*
X121287000Y-74931349D02*
X121287000Y-74931353D01*
X121272112Y-75006200D01*
X121287000Y-75081047D01*
X121287000Y-75087168D01*
X121283926Y-75090242D01*
X121154970Y-75401569D01*
X120596028Y-74842626D01*
X120641457Y-74833590D01*
X120641462Y-74833590D01*
X120863147Y-74789494D01*
X120921955Y-74750200D01*
X121323033Y-74750200D01*
X121287000Y-74931349D01*
G36*
X127003001Y-73176704D02*
X127003000Y-75331000D01*
X126794500Y-75331000D01*
X126794500Y-75311000D01*
X126774500Y-75311000D01*
X126774500Y-75057000D01*
X126794500Y-75057000D01*
X126794500Y-74007750D01*
X126635750Y-73849000D01*
X126307691Y-73849000D01*
X126074302Y-73945673D01*
X125921207Y-74098767D01*
X125920416Y-74097584D01*
X125631294Y-73904398D01*
X125290250Y-73836560D01*
X125238209Y-73836560D01*
X125238209Y-73519960D01*
X125302904Y-73423137D01*
X125347000Y-73201452D01*
X125347000Y-73201448D01*
X125361888Y-73126600D01*
X125347000Y-73051752D01*
X125347000Y-71520702D01*
X127003001Y-73176704D01*
X127003001Y-73176704D01*
G37*
X127003001Y-73176704D02*
X127003000Y-75331000D01*
X126794500Y-75331000D01*
X126794500Y-75311000D01*
X126774500Y-75311000D01*
X126774500Y-75057000D01*
X126794500Y-75057000D01*
X126794500Y-74007750D01*
X126635750Y-73849000D01*
X126307691Y-73849000D01*
X126074302Y-73945673D01*
X125921207Y-74098767D01*
X125920416Y-74097584D01*
X125631294Y-73904398D01*
X125290250Y-73836560D01*
X125238209Y-73836560D01*
X125238209Y-73519960D01*
X125302904Y-73423137D01*
X125347000Y-73201452D01*
X125347000Y-73201448D01*
X125361888Y-73126600D01*
X125347000Y-73051752D01*
X125347000Y-71520702D01*
X127003001Y-73176704D01*
G36*
X110305300Y-73285200D02*
X110134126Y-73285200D01*
X109753720Y-73442769D01*
X109462569Y-73733920D01*
X109305000Y-74114326D01*
X109305000Y-74280398D01*
X108562430Y-75022969D01*
X108542962Y-75035977D01*
X108576100Y-74955974D01*
X108576100Y-74544226D01*
X108418531Y-74163820D01*
X108285414Y-74030703D01*
X108257004Y-73887878D01*
X108089029Y-73636486D01*
X108025570Y-73594084D01*
X108011500Y-73580014D01*
X108011500Y-72845208D01*
X108026431Y-72830277D01*
X108184000Y-72449871D01*
X108184000Y-72242672D01*
X108213000Y-72248440D01*
X109483000Y-72248440D01*
X109730765Y-72199157D01*
X109940809Y-72058809D01*
X110081157Y-71848765D01*
X110130440Y-71601000D01*
X110130440Y-71227500D01*
X110305301Y-71227500D01*
X110305300Y-73285200D01*
X110305300Y-73285200D01*
G37*
X110305300Y-73285200D02*
X110134126Y-73285200D01*
X109753720Y-73442769D01*
X109462569Y-73733920D01*
X109305000Y-74114326D01*
X109305000Y-74280398D01*
X108562430Y-75022969D01*
X108542962Y-75035977D01*
X108576100Y-74955974D01*
X108576100Y-74544226D01*
X108418531Y-74163820D01*
X108285414Y-74030703D01*
X108257004Y-73887878D01*
X108089029Y-73636486D01*
X108025570Y-73594084D01*
X108011500Y-73580014D01*
X108011500Y-72845208D01*
X108026431Y-72830277D01*
X108184000Y-72449871D01*
X108184000Y-72242672D01*
X108213000Y-72248440D01*
X109483000Y-72248440D01*
X109730765Y-72199157D01*
X109940809Y-72058809D01*
X110081157Y-71848765D01*
X110130440Y-71601000D01*
X110130440Y-71227500D01*
X110305301Y-71227500D01*
X110305300Y-73285200D01*
G36*
X114584396Y-69210922D02*
X114584396Y-69622670D01*
X114741965Y-70003076D01*
X115033116Y-70294227D01*
X115413522Y-70451796D01*
X115825270Y-70451796D01*
X116205676Y-70294227D01*
X116496827Y-70003076D01*
X116654396Y-69622670D01*
X116654396Y-69594000D01*
X119471599Y-69594000D01*
X119778866Y-69901268D01*
X119821267Y-69964725D01*
X120072659Y-70132700D01*
X120294344Y-70176796D01*
X120294348Y-70176796D01*
X120369195Y-70191684D01*
X120444042Y-70176796D01*
X120689395Y-70176796D01*
X122091670Y-71579072D01*
X122134071Y-71642529D01*
X122385463Y-71810504D01*
X122466153Y-71826554D01*
X122466599Y-71827000D01*
X122450126Y-71827000D01*
X122069720Y-71984569D01*
X122055250Y-71999039D01*
X121871280Y-71815069D01*
X121490874Y-71657500D01*
X121079126Y-71657500D01*
X120698720Y-71815069D01*
X120581289Y-71932500D01*
X119361211Y-71932500D01*
X119331280Y-71902569D01*
X118950874Y-71745000D01*
X118539126Y-71745000D01*
X118158720Y-71902569D01*
X117867569Y-72193720D01*
X117710000Y-72574126D01*
X117710000Y-72925400D01*
X116668248Y-72925400D01*
X116593400Y-72910512D01*
X116518552Y-72925400D01*
X116518548Y-72925400D01*
X116296863Y-72969496D01*
X116045471Y-73137471D01*
X116003069Y-73200930D01*
X115745932Y-73458067D01*
X115745926Y-73458071D01*
X114230550Y-74973448D01*
X113835300Y-74578198D01*
X113835300Y-74412126D01*
X113677731Y-74031720D01*
X113560300Y-73914289D01*
X113560300Y-72588801D01*
X113632470Y-72516631D01*
X113695929Y-72474229D01*
X113856575Y-72233805D01*
X114030765Y-72199157D01*
X114240809Y-72058809D01*
X114381157Y-71848765D01*
X114430440Y-71601000D01*
X114430440Y-70131000D01*
X114381157Y-69883235D01*
X114240809Y-69673191D01*
X114030765Y-69532843D01*
X113783000Y-69483560D01*
X112768474Y-69483560D01*
X112744162Y-69361337D01*
X112737404Y-69327362D01*
X112611829Y-69139427D01*
X112569429Y-69075971D01*
X112566180Y-69073800D01*
X114641194Y-69073800D01*
X114584396Y-69210922D01*
X114584396Y-69210922D01*
G37*
X114584396Y-69210922D02*
X114584396Y-69622670D01*
X114741965Y-70003076D01*
X115033116Y-70294227D01*
X115413522Y-70451796D01*
X115825270Y-70451796D01*
X116205676Y-70294227D01*
X116496827Y-70003076D01*
X116654396Y-69622670D01*
X116654396Y-69594000D01*
X119471599Y-69594000D01*
X119778866Y-69901268D01*
X119821267Y-69964725D01*
X120072659Y-70132700D01*
X120294344Y-70176796D01*
X120294348Y-70176796D01*
X120369195Y-70191684D01*
X120444042Y-70176796D01*
X120689395Y-70176796D01*
X122091670Y-71579072D01*
X122134071Y-71642529D01*
X122385463Y-71810504D01*
X122466153Y-71826554D01*
X122466599Y-71827000D01*
X122450126Y-71827000D01*
X122069720Y-71984569D01*
X122055250Y-71999039D01*
X121871280Y-71815069D01*
X121490874Y-71657500D01*
X121079126Y-71657500D01*
X120698720Y-71815069D01*
X120581289Y-71932500D01*
X119361211Y-71932500D01*
X119331280Y-71902569D01*
X118950874Y-71745000D01*
X118539126Y-71745000D01*
X118158720Y-71902569D01*
X117867569Y-72193720D01*
X117710000Y-72574126D01*
X117710000Y-72925400D01*
X116668248Y-72925400D01*
X116593400Y-72910512D01*
X116518552Y-72925400D01*
X116518548Y-72925400D01*
X116296863Y-72969496D01*
X116045471Y-73137471D01*
X116003069Y-73200930D01*
X115745932Y-73458067D01*
X115745926Y-73458071D01*
X114230550Y-74973448D01*
X113835300Y-74578198D01*
X113835300Y-74412126D01*
X113677731Y-74031720D01*
X113560300Y-73914289D01*
X113560300Y-72588801D01*
X113632470Y-72516631D01*
X113695929Y-72474229D01*
X113856575Y-72233805D01*
X114030765Y-72199157D01*
X114240809Y-72058809D01*
X114381157Y-71848765D01*
X114430440Y-71601000D01*
X114430440Y-70131000D01*
X114381157Y-69883235D01*
X114240809Y-69673191D01*
X114030765Y-69532843D01*
X113783000Y-69483560D01*
X112768474Y-69483560D01*
X112744162Y-69361337D01*
X112737404Y-69327362D01*
X112611829Y-69139427D01*
X112569429Y-69075971D01*
X112566180Y-69073800D01*
X114641194Y-69073800D01*
X114584396Y-69210922D01*
G36*
X106050248Y-71780858D02*
X106036105Y-71795000D01*
X106050248Y-71809143D01*
X105870643Y-71988748D01*
X105856500Y-71974605D01*
X105082707Y-72748398D01*
X105147622Y-72986753D01*
X105657646Y-73167312D01*
X106197944Y-73138949D01*
X106468269Y-73026977D01*
X106491501Y-73050209D01*
X106491500Y-73819968D01*
X106476612Y-73894815D01*
X106491500Y-73969662D01*
X106491500Y-73969666D01*
X106535596Y-74191351D01*
X106607618Y-74299140D01*
X106565712Y-74400310D01*
X105358731Y-73193330D01*
X105316329Y-73129871D01*
X105064937Y-72961896D01*
X104843252Y-72917800D01*
X104843247Y-72917800D01*
X104776906Y-72904604D01*
X104519000Y-72646699D01*
X104519000Y-72165462D01*
X104522939Y-72161523D01*
X104664747Y-72503878D01*
X104903102Y-72568793D01*
X105676895Y-71795000D01*
X105662753Y-71780858D01*
X105842358Y-71601253D01*
X105856500Y-71615395D01*
X105870643Y-71601253D01*
X106050248Y-71780858D01*
X106050248Y-71780858D01*
G37*
X106050248Y-71780858D02*
X106036105Y-71795000D01*
X106050248Y-71809143D01*
X105870643Y-71988748D01*
X105856500Y-71974605D01*
X105082707Y-72748398D01*
X105147622Y-72986753D01*
X105657646Y-73167312D01*
X106197944Y-73138949D01*
X106468269Y-73026977D01*
X106491501Y-73050209D01*
X106491500Y-73819968D01*
X106476612Y-73894815D01*
X106491500Y-73969662D01*
X106491500Y-73969666D01*
X106535596Y-74191351D01*
X106607618Y-74299140D01*
X106565712Y-74400310D01*
X105358731Y-73193330D01*
X105316329Y-73129871D01*
X105064937Y-72961896D01*
X104843252Y-72917800D01*
X104843247Y-72917800D01*
X104776906Y-72904604D01*
X104519000Y-72646699D01*
X104519000Y-72165462D01*
X104522939Y-72161523D01*
X104664747Y-72503878D01*
X104903102Y-72568793D01*
X105676895Y-71795000D01*
X105662753Y-71780858D01*
X105842358Y-71601253D01*
X105856500Y-71615395D01*
X105870643Y-71601253D01*
X106050248Y-71780858D01*
G36*
X103283500Y-70668000D02*
X103303500Y-70668000D01*
X103303500Y-70922000D01*
X103283500Y-70922000D01*
X103283500Y-70942000D01*
X103029500Y-70942000D01*
X103029500Y-70922000D01*
X103009500Y-70922000D01*
X103009500Y-70668000D01*
X103029500Y-70668000D01*
X103029500Y-70648000D01*
X103283500Y-70648000D01*
X103283500Y-70668000D01*
X103283500Y-70668000D01*
G37*
X103283500Y-70668000D02*
X103303500Y-70668000D01*
X103303500Y-70922000D01*
X103283500Y-70922000D01*
X103283500Y-70942000D01*
X103029500Y-70942000D01*
X103029500Y-70922000D01*
X103009500Y-70922000D01*
X103009500Y-70668000D01*
X103029500Y-70668000D01*
X103029500Y-70648000D01*
X103283500Y-70648000D01*
X103283500Y-70668000D01*
G36*
X122072728Y-60417541D02*
X122074400Y-60425947D01*
X122074401Y-61748749D01*
X122059512Y-61823600D01*
X122118497Y-62120137D01*
X122240837Y-62303231D01*
X122286472Y-62371529D01*
X122349928Y-62413929D01*
X122353800Y-62417801D01*
X122353801Y-63831300D01*
X122291326Y-63831300D01*
X121910920Y-63988869D01*
X121619769Y-64280020D01*
X121462200Y-64660426D01*
X121462200Y-65072174D01*
X121619769Y-65452580D01*
X121774386Y-65607197D01*
X121701912Y-65715663D01*
X121695297Y-65725563D01*
X121636312Y-66022100D01*
X121695297Y-66318637D01*
X121863271Y-66570029D01*
X121926729Y-66612430D01*
X122130001Y-66815702D01*
X122130002Y-68048600D01*
X121943400Y-68048600D01*
X121943400Y-67007644D01*
X121958288Y-66932797D01*
X121943400Y-66857950D01*
X121943400Y-66857946D01*
X121899304Y-66636261D01*
X121854337Y-66568963D01*
X121773729Y-66448324D01*
X121773727Y-66448322D01*
X121731329Y-66384869D01*
X121667875Y-66342471D01*
X120863033Y-65537629D01*
X120820631Y-65474171D01*
X120569239Y-65306196D01*
X120347554Y-65262100D01*
X120347549Y-65262100D01*
X120272702Y-65247212D01*
X120197855Y-65262100D01*
X119816511Y-65262100D01*
X119699080Y-65144669D01*
X119318674Y-64987100D01*
X118906926Y-64987100D01*
X118820900Y-65022733D01*
X118820900Y-60382311D01*
X118938331Y-60264880D01*
X119095900Y-59884474D01*
X119095900Y-59472726D01*
X119006212Y-59256200D01*
X120911389Y-59256200D01*
X122072728Y-60417541D01*
X122072728Y-60417541D01*
G37*
X122072728Y-60417541D02*
X122074400Y-60425947D01*
X122074401Y-61748749D01*
X122059512Y-61823600D01*
X122118497Y-62120137D01*
X122240837Y-62303231D01*
X122286472Y-62371529D01*
X122349928Y-62413929D01*
X122353800Y-62417801D01*
X122353801Y-63831300D01*
X122291326Y-63831300D01*
X121910920Y-63988869D01*
X121619769Y-64280020D01*
X121462200Y-64660426D01*
X121462200Y-65072174D01*
X121619769Y-65452580D01*
X121774386Y-65607197D01*
X121701912Y-65715663D01*
X121695297Y-65725563D01*
X121636312Y-66022100D01*
X121695297Y-66318637D01*
X121863271Y-66570029D01*
X121926729Y-66612430D01*
X122130001Y-66815702D01*
X122130002Y-68048600D01*
X121943400Y-68048600D01*
X121943400Y-67007644D01*
X121958288Y-66932797D01*
X121943400Y-66857950D01*
X121943400Y-66857946D01*
X121899304Y-66636261D01*
X121854337Y-66568963D01*
X121773729Y-66448324D01*
X121773727Y-66448322D01*
X121731329Y-66384869D01*
X121667875Y-66342471D01*
X120863033Y-65537629D01*
X120820631Y-65474171D01*
X120569239Y-65306196D01*
X120347554Y-65262100D01*
X120347549Y-65262100D01*
X120272702Y-65247212D01*
X120197855Y-65262100D01*
X119816511Y-65262100D01*
X119699080Y-65144669D01*
X119318674Y-64987100D01*
X118906926Y-64987100D01*
X118820900Y-65022733D01*
X118820900Y-60382311D01*
X118938331Y-60264880D01*
X119095900Y-59884474D01*
X119095900Y-59472726D01*
X119006212Y-59256200D01*
X120911389Y-59256200D01*
X122072728Y-60417541D01*
G36*
X112823000Y-58880250D02*
X112981750Y-59039000D01*
X113731000Y-59039000D01*
X113731000Y-59019000D01*
X113985000Y-59019000D01*
X113985000Y-59039000D01*
X114005000Y-59039000D01*
X114005000Y-59293000D01*
X113985000Y-59293000D01*
X113985000Y-59313000D01*
X113731000Y-59313000D01*
X113731000Y-59293000D01*
X112981750Y-59293000D01*
X112823000Y-59451750D01*
X112823000Y-59742309D01*
X112919673Y-59975698D01*
X112924876Y-59980901D01*
X112803398Y-60162706D01*
X112735560Y-60503750D01*
X112735560Y-61208149D01*
X112645874Y-61171000D01*
X112234126Y-61171000D01*
X111853720Y-61328569D01*
X111562569Y-61619720D01*
X111405000Y-62000126D01*
X111405000Y-62166198D01*
X110023200Y-63547999D01*
X110023200Y-62420202D01*
X110153702Y-62289700D01*
X110319774Y-62289700D01*
X110700180Y-62132131D01*
X110991331Y-61840980D01*
X111148900Y-61460574D01*
X111148900Y-61048826D01*
X110991331Y-60668420D01*
X110700180Y-60377269D01*
X110319774Y-60219700D01*
X109908026Y-60219700D01*
X109527620Y-60377269D01*
X109236469Y-60668420D01*
X109078900Y-61048826D01*
X109078900Y-61214898D01*
X108778727Y-61515071D01*
X108715272Y-61557471D01*
X108672872Y-61620927D01*
X108672871Y-61620928D01*
X108547297Y-61808863D01*
X108488312Y-62105400D01*
X108503201Y-62180252D01*
X108503200Y-66569002D01*
X108348852Y-66538300D01*
X108348847Y-66538300D01*
X108274000Y-66523412D01*
X108199153Y-66538300D01*
X107810100Y-66538300D01*
X107810100Y-61404946D01*
X107824988Y-61330099D01*
X107810100Y-61255252D01*
X107810100Y-61255248D01*
X107766004Y-61033563D01*
X107715000Y-60957230D01*
X107715000Y-60754126D01*
X107557431Y-60373720D01*
X107381487Y-60197776D01*
X107415778Y-60114989D01*
X107433920Y-60133131D01*
X107814326Y-60290700D01*
X108226074Y-60290700D01*
X108606480Y-60133131D01*
X108897631Y-59841980D01*
X109055200Y-59461574D01*
X109055200Y-59295501D01*
X109644602Y-58706100D01*
X112823000Y-58706100D01*
X112823000Y-58880250D01*
X112823000Y-58880250D01*
G37*
X112823000Y-58880250D02*
X112981750Y-59039000D01*
X113731000Y-59039000D01*
X113731000Y-59019000D01*
X113985000Y-59019000D01*
X113985000Y-59039000D01*
X114005000Y-59039000D01*
X114005000Y-59293000D01*
X113985000Y-59293000D01*
X113985000Y-59313000D01*
X113731000Y-59313000D01*
X113731000Y-59293000D01*
X112981750Y-59293000D01*
X112823000Y-59451750D01*
X112823000Y-59742309D01*
X112919673Y-59975698D01*
X112924876Y-59980901D01*
X112803398Y-60162706D01*
X112735560Y-60503750D01*
X112735560Y-61208149D01*
X112645874Y-61171000D01*
X112234126Y-61171000D01*
X111853720Y-61328569D01*
X111562569Y-61619720D01*
X111405000Y-62000126D01*
X111405000Y-62166198D01*
X110023200Y-63547999D01*
X110023200Y-62420202D01*
X110153702Y-62289700D01*
X110319774Y-62289700D01*
X110700180Y-62132131D01*
X110991331Y-61840980D01*
X111148900Y-61460574D01*
X111148900Y-61048826D01*
X110991331Y-60668420D01*
X110700180Y-60377269D01*
X110319774Y-60219700D01*
X109908026Y-60219700D01*
X109527620Y-60377269D01*
X109236469Y-60668420D01*
X109078900Y-61048826D01*
X109078900Y-61214898D01*
X108778727Y-61515071D01*
X108715272Y-61557471D01*
X108672872Y-61620927D01*
X108672871Y-61620928D01*
X108547297Y-61808863D01*
X108488312Y-62105400D01*
X108503201Y-62180252D01*
X108503200Y-66569002D01*
X108348852Y-66538300D01*
X108348847Y-66538300D01*
X108274000Y-66523412D01*
X108199153Y-66538300D01*
X107810100Y-66538300D01*
X107810100Y-61404946D01*
X107824988Y-61330099D01*
X107810100Y-61255252D01*
X107810100Y-61255248D01*
X107766004Y-61033563D01*
X107715000Y-60957230D01*
X107715000Y-60754126D01*
X107557431Y-60373720D01*
X107381487Y-60197776D01*
X107415778Y-60114989D01*
X107433920Y-60133131D01*
X107814326Y-60290700D01*
X108226074Y-60290700D01*
X108606480Y-60133131D01*
X108897631Y-59841980D01*
X109055200Y-59461574D01*
X109055200Y-59295501D01*
X109644602Y-58706100D01*
X112823000Y-58706100D01*
X112823000Y-58880250D01*
G36*
X114629843Y-49103765D02*
X114770191Y-49313809D01*
X114980235Y-49454157D01*
X115228000Y-49503440D01*
X115318001Y-49503440D01*
X115318000Y-52790563D01*
X115155564Y-52822873D01*
X114864414Y-53017414D01*
X114799000Y-53115313D01*
X114733586Y-53017414D01*
X114442436Y-52822873D01*
X114099001Y-52754560D01*
X113448999Y-52754560D01*
X113282000Y-52787778D01*
X113282000Y-50162301D01*
X113496390Y-49947912D01*
X113538000Y-49956189D01*
X113834537Y-49897204D01*
X114085929Y-49729229D01*
X114253904Y-49477837D01*
X114291571Y-49288474D01*
X114608625Y-49076625D01*
X114620816Y-49058381D01*
X114629843Y-49103765D01*
X114629843Y-49103765D01*
G37*
X114629843Y-49103765D02*
X114770191Y-49313809D01*
X114980235Y-49454157D01*
X115228000Y-49503440D01*
X115318001Y-49503440D01*
X115318000Y-52790563D01*
X115155564Y-52822873D01*
X114864414Y-53017414D01*
X114799000Y-53115313D01*
X114733586Y-53017414D01*
X114442436Y-52822873D01*
X114099001Y-52754560D01*
X113448999Y-52754560D01*
X113282000Y-52787778D01*
X113282000Y-50162301D01*
X113496390Y-49947912D01*
X113538000Y-49956189D01*
X113834537Y-49897204D01*
X114085929Y-49729229D01*
X114253904Y-49477837D01*
X114291571Y-49288474D01*
X114608625Y-49076625D01*
X114620816Y-49058381D01*
X114629843Y-49103765D01*
G36*
X125142560Y-50073809D02*
X125060970Y-50090038D01*
X124995272Y-50103106D01*
X124818049Y-50221524D01*
X124905904Y-50090039D01*
X124928556Y-49976160D01*
X125074586Y-49878586D01*
X125142560Y-49776855D01*
X125142560Y-50073809D01*
X125142560Y-50073809D01*
G37*
X125142560Y-50073809D02*
X125060970Y-50090038D01*
X124995272Y-50103106D01*
X124818049Y-50221524D01*
X124905904Y-50090039D01*
X124928556Y-49976160D01*
X125074586Y-49878586D01*
X125142560Y-49776855D01*
X125142560Y-50073809D01*
G36*
X104700000Y-41979925D02*
X104713642Y-42048508D01*
X104713642Y-42048513D01*
X104761978Y-42291517D01*
X104867992Y-42547458D01*
X104867993Y-42547459D01*
X105005644Y-42753468D01*
X105201532Y-42949356D01*
X105407541Y-43087007D01*
X105407543Y-43087008D01*
X105663483Y-43193022D01*
X105906488Y-43241358D01*
X105906491Y-43241358D01*
X105975074Y-43255000D01*
X110563156Y-43255000D01*
X110537774Y-43280382D01*
X110652785Y-43395393D01*
X110410603Y-43464857D01*
X110223856Y-43988302D01*
X110251638Y-44543368D01*
X110410603Y-44927143D01*
X110652787Y-44996608D01*
X111453395Y-44196000D01*
X111439253Y-44181858D01*
X111618858Y-44002253D01*
X111633000Y-44016395D01*
X111647143Y-44002253D01*
X111826748Y-44181858D01*
X111812605Y-44196000D01*
X111826748Y-44210143D01*
X111647143Y-44389748D01*
X111633000Y-44375605D01*
X110832392Y-45176213D01*
X110874781Y-45324000D01*
X110394348Y-45324000D01*
X110319500Y-45309112D01*
X110244652Y-45324000D01*
X110244648Y-45324000D01*
X110022963Y-45368096D01*
X109771571Y-45536071D01*
X109729171Y-45599527D01*
X108711701Y-46616998D01*
X108656252Y-46616998D01*
X108815000Y-46458250D01*
X108815000Y-43867690D01*
X108718327Y-43634301D01*
X108539698Y-43455673D01*
X108306309Y-43359000D01*
X107965750Y-43359000D01*
X107807000Y-43517750D01*
X107807000Y-46617000D01*
X107827000Y-46617000D01*
X107827000Y-46871000D01*
X107807000Y-46871000D01*
X107807000Y-46891000D01*
X107553000Y-46891000D01*
X107553000Y-46871000D01*
X107533000Y-46871000D01*
X107533000Y-46617000D01*
X107553000Y-46617000D01*
X107553000Y-43517750D01*
X107394250Y-43359000D01*
X107053691Y-43359000D01*
X106820302Y-43455673D01*
X106641673Y-43634301D01*
X106618537Y-43690157D01*
X106564586Y-43609414D01*
X106273435Y-43414874D01*
X105930000Y-43346560D01*
X105430000Y-43346560D01*
X105086565Y-43414874D01*
X104795414Y-43609414D01*
X104600874Y-43900565D01*
X104532560Y-44244000D01*
X104532560Y-47211145D01*
X104464586Y-47109414D01*
X104173435Y-46914874D01*
X103830000Y-46846560D01*
X102730000Y-46846560D01*
X102386565Y-46914874D01*
X102310000Y-46966033D01*
X102310000Y-40753186D01*
X102407235Y-40818157D01*
X102655000Y-40867440D01*
X104355000Y-40867440D01*
X104602765Y-40818157D01*
X104700000Y-40753186D01*
X104700000Y-41979925D01*
X104700000Y-41979925D01*
G37*
X104700000Y-41979925D02*
X104713642Y-42048508D01*
X104713642Y-42048513D01*
X104761978Y-42291517D01*
X104867992Y-42547458D01*
X104867993Y-42547459D01*
X105005644Y-42753468D01*
X105201532Y-42949356D01*
X105407541Y-43087007D01*
X105407543Y-43087008D01*
X105663483Y-43193022D01*
X105906488Y-43241358D01*
X105906491Y-43241358D01*
X105975074Y-43255000D01*
X110563156Y-43255000D01*
X110537774Y-43280382D01*
X110652785Y-43395393D01*
X110410603Y-43464857D01*
X110223856Y-43988302D01*
X110251638Y-44543368D01*
X110410603Y-44927143D01*
X110652787Y-44996608D01*
X111453395Y-44196000D01*
X111439253Y-44181858D01*
X111618858Y-44002253D01*
X111633000Y-44016395D01*
X111647143Y-44002253D01*
X111826748Y-44181858D01*
X111812605Y-44196000D01*
X111826748Y-44210143D01*
X111647143Y-44389748D01*
X111633000Y-44375605D01*
X110832392Y-45176213D01*
X110874781Y-45324000D01*
X110394348Y-45324000D01*
X110319500Y-45309112D01*
X110244652Y-45324000D01*
X110244648Y-45324000D01*
X110022963Y-45368096D01*
X109771571Y-45536071D01*
X109729171Y-45599527D01*
X108711701Y-46616998D01*
X108656252Y-46616998D01*
X108815000Y-46458250D01*
X108815000Y-43867690D01*
X108718327Y-43634301D01*
X108539698Y-43455673D01*
X108306309Y-43359000D01*
X107965750Y-43359000D01*
X107807000Y-43517750D01*
X107807000Y-46617000D01*
X107827000Y-46617000D01*
X107827000Y-46871000D01*
X107807000Y-46871000D01*
X107807000Y-46891000D01*
X107553000Y-46891000D01*
X107553000Y-46871000D01*
X107533000Y-46871000D01*
X107533000Y-46617000D01*
X107553000Y-46617000D01*
X107553000Y-43517750D01*
X107394250Y-43359000D01*
X107053691Y-43359000D01*
X106820302Y-43455673D01*
X106641673Y-43634301D01*
X106618537Y-43690157D01*
X106564586Y-43609414D01*
X106273435Y-43414874D01*
X105930000Y-43346560D01*
X105430000Y-43346560D01*
X105086565Y-43414874D01*
X104795414Y-43609414D01*
X104600874Y-43900565D01*
X104532560Y-44244000D01*
X104532560Y-47211145D01*
X104464586Y-47109414D01*
X104173435Y-46914874D01*
X103830000Y-46846560D01*
X102730000Y-46846560D01*
X102386565Y-46914874D01*
X102310000Y-46966033D01*
X102310000Y-40753186D01*
X102407235Y-40818157D01*
X102655000Y-40867440D01*
X104355000Y-40867440D01*
X104602765Y-40818157D01*
X104700000Y-40753186D01*
X104700000Y-41979925D01*
G36*
X124284801Y-42238103D02*
X124284801Y-42628854D01*
X124269913Y-42703701D01*
X124284801Y-42778548D01*
X124284801Y-42778552D01*
X124328897Y-43000237D01*
X124409800Y-43121317D01*
X124409800Y-43309574D01*
X124425120Y-43346560D01*
X123940000Y-43346560D01*
X123596565Y-43414874D01*
X123305414Y-43609414D01*
X123251463Y-43690157D01*
X123228327Y-43634301D01*
X123049698Y-43455673D01*
X122816309Y-43359000D01*
X122475750Y-43359000D01*
X122317000Y-43517750D01*
X122317000Y-46617000D01*
X122337000Y-46617000D01*
X122337000Y-46871000D01*
X122317000Y-46871000D01*
X122317000Y-46891000D01*
X122063000Y-46891000D01*
X122063000Y-46871000D01*
X122043000Y-46871000D01*
X122043000Y-46617000D01*
X122063000Y-46617000D01*
X122063000Y-43517750D01*
X121904250Y-43359000D01*
X121708925Y-43359000D01*
X122169483Y-42898443D01*
X122232939Y-42856043D01*
X122400914Y-42604651D01*
X122445010Y-42382966D01*
X122445010Y-42382961D01*
X122459898Y-42308114D01*
X122445010Y-42233267D01*
X122445010Y-41189791D01*
X122742802Y-40892000D01*
X122938699Y-40892000D01*
X124284801Y-42238103D01*
X124284801Y-42238103D01*
G37*
X124284801Y-42238103D02*
X124284801Y-42628854D01*
X124269913Y-42703701D01*
X124284801Y-42778548D01*
X124284801Y-42778552D01*
X124328897Y-43000237D01*
X124409800Y-43121317D01*
X124409800Y-43309574D01*
X124425120Y-43346560D01*
X123940000Y-43346560D01*
X123596565Y-43414874D01*
X123305414Y-43609414D01*
X123251463Y-43690157D01*
X123228327Y-43634301D01*
X123049698Y-43455673D01*
X122816309Y-43359000D01*
X122475750Y-43359000D01*
X122317000Y-43517750D01*
X122317000Y-46617000D01*
X122337000Y-46617000D01*
X122337000Y-46871000D01*
X122317000Y-46871000D01*
X122317000Y-46891000D01*
X122063000Y-46891000D01*
X122063000Y-46871000D01*
X122043000Y-46871000D01*
X122043000Y-46617000D01*
X122063000Y-46617000D01*
X122063000Y-43517750D01*
X121904250Y-43359000D01*
X121708925Y-43359000D01*
X122169483Y-42898443D01*
X122232939Y-42856043D01*
X122400914Y-42604651D01*
X122445010Y-42382966D01*
X122445010Y-42382961D01*
X122459898Y-42308114D01*
X122445010Y-42233267D01*
X122445010Y-41189791D01*
X122742802Y-40892000D01*
X122938699Y-40892000D01*
X124284801Y-42238103D01*
G36*
X121048114Y-43719898D02*
X121122333Y-43705135D01*
X121055000Y-43867690D01*
X121055000Y-46458250D01*
X121213748Y-46616998D01*
X121204500Y-46616998D01*
X120595031Y-46007530D01*
X120552629Y-45944071D01*
X120301237Y-45776096D01*
X120079552Y-45732000D01*
X120079547Y-45732000D01*
X120004700Y-45717112D01*
X119929853Y-45732000D01*
X114933000Y-45732000D01*
X114933000Y-45393300D01*
X114964337Y-45380320D01*
X115357320Y-44987337D01*
X115443000Y-44780487D01*
X115528680Y-44987337D01*
X115921663Y-45380320D01*
X116435119Y-45593000D01*
X116990881Y-45593000D01*
X117504337Y-45380320D01*
X117897320Y-44987337D01*
X117983000Y-44780487D01*
X118068680Y-44987337D01*
X118461663Y-45380320D01*
X118975119Y-45593000D01*
X119530881Y-45593000D01*
X120044337Y-45380320D01*
X120437320Y-44987337D01*
X120650000Y-44473881D01*
X120650000Y-43918119D01*
X120571048Y-43727511D01*
X120575523Y-43705010D01*
X120973267Y-43705010D01*
X121048114Y-43719898D01*
X121048114Y-43719898D01*
G37*
X121048114Y-43719898D02*
X121122333Y-43705135D01*
X121055000Y-43867690D01*
X121055000Y-46458250D01*
X121213748Y-46616998D01*
X121204500Y-46616998D01*
X120595031Y-46007530D01*
X120552629Y-45944071D01*
X120301237Y-45776096D01*
X120079552Y-45732000D01*
X120079547Y-45732000D01*
X120004700Y-45717112D01*
X119929853Y-45732000D01*
X114933000Y-45732000D01*
X114933000Y-45393300D01*
X114964337Y-45380320D01*
X115357320Y-44987337D01*
X115443000Y-44780487D01*
X115528680Y-44987337D01*
X115921663Y-45380320D01*
X116435119Y-45593000D01*
X116990881Y-45593000D01*
X117504337Y-45380320D01*
X117897320Y-44987337D01*
X117983000Y-44780487D01*
X118068680Y-44987337D01*
X118461663Y-45380320D01*
X118975119Y-45593000D01*
X119530881Y-45593000D01*
X120044337Y-45380320D01*
X120437320Y-44987337D01*
X120650000Y-44473881D01*
X120650000Y-43918119D01*
X120571048Y-43727511D01*
X120575523Y-43705010D01*
X120973267Y-43705010D01*
X121048114Y-43719898D01*
G04 #@! TD*
M02*
